<svg width="350" height="350" viewBox="0 0 350 350" fill="none" xmlns="http://www.w3.org/2000/svg">
<g clip-path="url(#clip0_1564_9763)">
<path d="M486.052 328.224C486.052 328.322 386.267 328.406 263.214 328.406C140.161 328.406 40.3477 328.301 40.3477 328.224C40.3477 328.147 140.112 328.042 263.214 328.042C386.316 328.042 486.052 328.126 486.052 328.224Z" fill="#263238"/>
<g filter="url(#filter0_d_1564_9763)">
<path d="M42.2948 289.521L29.7158 306.601L50.8978 322.365C52.2978 320.265 44.3388 308.029 44.3388 308.029L52.8508 297.417L42.2948 289.521Z" fill="#455A64"/>
</g>
<path d="M38.5008 302.247C38.2517 302.157 37.9778 302.161 37.7322 302.261C37.4865 302.361 37.2865 302.548 37.1708 302.786C37.0724 303.033 37.072 303.308 37.1695 303.555C37.2671 303.803 37.4553 304.003 37.6958 304.116C37.9597 304.209 38.2487 304.201 38.5071 304.094C38.7656 303.987 38.9752 303.788 39.0958 303.535C39.1731 303.267 39.1434 302.979 39.0128 302.732C38.8823 302.486 38.6611 302.299 38.3958 302.212" fill="white"/>
<path d="M29.6875 306.644L31.0245 304.81L50.8135 320.742C50.8135 320.742 51.4435 321.862 50.8135 322.443L29.6875 306.644Z" fill="#263238"/>
<path d="M44.8009 308.183C44.7239 308.288 44.1709 307.952 43.4009 307.903C42.6309 307.854 42.0499 308.092 42.0009 307.98C41.9519 307.868 42.5399 307.385 43.4499 307.455C44.3599 307.525 44.8569 308.106 44.8009 308.183Z" fill="#263238"/>
<path d="M46.306 310.76C46.25 310.879 45.676 310.718 44.997 310.893C44.318 311.068 43.877 311.46 43.772 311.376C43.667 311.292 44.045 310.676 44.892 310.459C45.739 310.242 46.376 310.662 46.306 310.76Z" fill="#263238"/>
<path d="M45.5846 314.357C45.4726 314.308 45.7176 313.657 46.4036 313.314C47.0896 312.971 47.7406 313.083 47.7196 313.202C47.6986 313.321 47.1736 313.398 46.6206 313.713C46.0676 314.028 45.6966 314.42 45.5846 314.357Z" fill="#263238"/>
<path d="M46.4386 305.552C46.3196 305.615 45.9556 305.118 45.3396 304.726C44.7236 304.334 44.1356 304.173 44.1426 304.026C44.1496 303.879 44.8426 303.851 45.5846 304.327C46.3266 304.803 46.5506 305.51 46.4386 305.552Z" fill="#263238"/>
<g filter="url(#filter1_d_1564_9763)">
<path d="M93.5071 218.023C93.8851 220.165 94.4871 238.386 94.8721 247.997C95.2571 257.608 94.2981 262.333 93.1991 264.489C92.1001 266.645 50.6531 297.186 47.4961 304.501L36.9961 296.038C36.9961 296.038 52.3961 268.395 58.9621 263.369C65.5281 258.343 78.1631 253.73 78.1631 253.73L74.5721 201.097L91.7851 200.159L93.5071 218.023Z" fill="#263238"/>
</g>
<path d="M54.9857 306.412L54.8037 327.601L81.2007 327.965C81.0817 325.445 67.4947 320.188 67.4947 320.188L68.1947 306.601L54.9857 306.412Z" fill="#455A64"/>
<path d="M59.3469 318.963C59.0922 319.037 58.8736 319.202 58.7328 319.426C58.5921 319.651 58.539 319.92 58.5839 320.181C58.6489 320.439 58.8096 320.662 59.0333 320.805C59.257 320.948 59.5269 321 59.7879 320.951C60.0569 320.871 60.287 320.695 60.4342 320.456C60.5814 320.217 60.6354 319.932 60.5859 319.656C60.4921 319.394 60.3001 319.179 60.0506 319.056C59.8011 318.934 59.5136 318.913 59.2489 318.998" fill="white"/>
<path d="M54.7969 327.678V325.403L80.1719 326.719C80.1719 326.719 81.3339 327.258 81.1869 328.084L54.7969 327.678Z" fill="#263238"/>
<path d="M67.9001 320.09C67.9001 320.223 67.2491 320.272 66.6121 320.678C65.9751 321.084 65.6251 321.616 65.5061 321.567C65.3871 321.518 65.5901 320.769 66.3741 320.293C67.1581 319.817 67.9561 319.971 67.9001 320.09Z" fill="#263238"/>
<path d="M70.7003 321.302C70.7003 321.428 70.1613 321.638 69.7203 322.177C69.2793 322.716 69.1393 323.297 69.0203 323.283C68.9013 323.269 68.8173 322.548 69.3843 321.883C69.9513 321.218 70.7003 321.155 70.7003 321.302Z" fill="#263238"/>
<path d="M72.2055 324.612C72.0865 324.612 71.9185 323.989 72.2545 323.289C72.5905 322.589 73.2065 322.316 73.2555 322.421C73.3045 322.526 72.9335 322.904 72.6605 323.485C72.3875 324.066 72.3315 324.598 72.2055 324.612Z" fill="#263238"/>
<path d="M67.7326 316.975C67.6766 317.094 67.0886 316.905 66.3326 316.975C65.5766 317.045 65.0306 317.234 64.9326 317.122C64.8346 317.01 65.4156 316.562 66.2766 316.527C67.1376 316.492 67.7956 316.877 67.7326 316.975Z" fill="#263238"/>
<g filter="url(#filter2_d_1564_9763)">
<path d="M95.4108 197.981C95.4108 199.22 97.4198 230.587 87.1648 253.281C87.1648 253.281 83.6158 260.379 82.9648 263.48C82.3138 266.581 69.0488 318.017 69.0488 318.017L53.7188 317.457C53.7188 317.457 51.2688 291.69 53.7188 276.773C56.1688 261.856 60.7188 263.606 60.7188 253.974C60.7188 244.342 58.4298 224.371 58.4298 224.371C58.4298 224.371 55.0838 218.918 53.9428 208.341C53.0118 199.752 57.0578 190.547 57.0578 190.547L61.0548 183.47L94.8718 181.699L95.4108 197.981Z" fill="#263238"/>
</g>
<path d="M95.4108 197.983C95.4108 197.983 95.4108 197.619 95.4108 196.912C95.4108 196.205 95.3688 195.155 95.3408 193.776C95.2778 191.011 95.1728 186.937 95.0468 181.673V181.596H94.9628L61.1458 183.318H61.0758L61.0338 183.381C59.7948 185.579 58.4298 187.98 57.0298 190.458C55.9886 192.97 55.1756 195.57 54.6008 198.228C53.9658 201.026 53.6813 203.892 53.7538 206.761C53.9669 209.756 54.4353 212.728 55.1538 215.644C55.847 218.705 56.9365 221.663 58.3948 224.443V224.373C58.9758 229.595 59.5148 235.006 59.9698 240.578C60.1938 243.378 60.3898 246.178 60.5298 249.055C60.5998 250.455 60.6558 251.925 60.6628 253.374C60.6628 254.074 60.6628 254.823 60.6208 255.544C60.571 256.267 60.4822 256.986 60.3548 257.7C60.0683 259.137 59.5606 260.52 58.8498 261.802C58.1498 263.111 57.4498 264.406 56.7498 265.771C55.4821 268.541 54.5582 271.456 53.9988 274.451C52.7808 280.471 52.5358 286.729 52.4658 293.036C52.4658 301.359 52.8578 309.535 53.5438 317.438V317.606H53.7048L69.0348 318.166H69.1818L69.2168 318.019C73.6618 300.792 77.8058 284.692 81.4598 270.216L82.7828 264.861C83.0138 263.972 83.1608 263.09 83.4338 262.25C83.7068 261.41 84.0148 260.577 84.3368 259.765C84.9948 258.141 85.7368 256.566 86.4368 255.033L86.9828 253.892C87.1767 253.519 87.3497 253.136 87.5008 252.744C87.8158 251.967 88.1308 251.204 88.4458 250.441C90.6228 244.795 92.2428 238.95 93.2828 232.99C94.782 224.498 95.5548 215.894 95.5928 207.272C95.6348 201.238 95.3898 197.962 95.3898 197.962C95.3898 197.962 95.3898 198.165 95.3898 198.564C95.3898 198.963 95.3898 199.572 95.4318 200.356C95.4738 201.931 95.5018 204.255 95.4318 207.272C95.3671 215.887 94.5874 224.482 93.1008 232.969C92.0367 238.91 90.3956 244.734 88.2008 250.357L87.2628 252.646C87.1088 253.038 86.9338 253.409 86.7448 253.787C86.5558 254.165 86.3738 254.55 86.1918 254.935C85.4918 256.468 84.7498 258.043 84.0918 259.674C83.7628 260.493 83.4478 261.326 83.1748 262.18C82.9018 263.034 82.7408 263.937 82.5168 264.805C82.0758 266.569 81.6348 268.347 81.1798 270.16C77.4628 284.622 73.3258 300.722 68.8948 317.949L69.0768 317.816L53.7468 317.249L53.9288 317.417C53.2288 309.528 52.8228 301.359 52.8508 293.05C52.9208 286.75 53.1658 280.52 54.3768 274.542C54.9345 271.575 55.8488 268.686 57.0998 265.939C57.7298 264.588 58.4998 263.307 59.1998 261.977C59.9059 260.661 60.4063 259.244 60.6838 257.777C60.8165 257.047 60.9077 256.311 60.9568 255.572C60.9568 254.872 61.0268 254.102 60.9988 253.381C60.9988 251.925 60.9358 250.476 60.8658 249.041C60.7258 246.171 60.5228 243.343 60.2918 240.557C59.8252 234.957 59.2955 229.55 58.7028 224.338V224.296C57.244 221.552 56.1498 218.629 55.4478 215.602C54.7333 212.706 54.265 209.756 54.0478 206.782C53.9724 203.94 54.2499 201.099 54.8738 198.326C55.4379 195.695 56.2319 193.118 57.2468 190.626L61.2368 183.542L61.1248 183.612L94.9418 181.785L94.8508 181.708C95.0188 186.965 95.1448 191.039 95.2288 193.804C95.2778 195.204 95.3128 196.226 95.3408 196.94C95.3688 197.654 95.4108 197.983 95.4108 197.983Z" fill="#455A64"/>
<path d="M84.4131 133.751C84.4131 133.751 75.3132 132.141 76.1602 143.852C76.6922 150.852 78.7501 162.864 79.8911 170.529C80.2831 173.182 81.1512 177.928 84.6582 180.714L109.788 198.102L117.719 188.617L95.2772 167.246L91.7772 146.106L84.4131 133.751Z" fill="#455A64"/>
<g filter="url(#filter3_d_1564_9763)">
<path d="M85.4845 91.54C86.9269 92.7015 88.0681 94.1935 88.8114 95.8897C89.5547 97.5859 89.8782 99.4363 89.7545 101.284C89.6145 103.076 89.1175 105.113 90.2865 106.478C91.4555 107.843 93.6955 107.794 94.8015 109.18C96.0965 110.818 95.0115 113.254 95.5015 115.291C95.7513 116.242 96.3313 117.074 97.138 117.637C97.9447 118.2 98.9253 118.458 99.9045 118.364C97.6072 120.244 94.8366 121.455 91.8965 121.864L89.6005 119.001C90.4545 120.009 90.2235 121.612 89.4045 122.641C88.5148 123.599 87.3676 124.279 86.1005 124.601C83.0849 125.529 79.8958 125.748 76.7816 125.242C73.6673 124.735 70.712 123.517 68.1455 121.682" fill="#263238"/>
</g>
<path d="M51.8636 107.339C52.3116 105.939 53.0676 104.7 53.3686 103.293C54.0126 100.262 52.5356 96.8463 54.0056 94.1163C55.0556 92.1773 57.2816 91.2253 59.3956 90.5743C61.5096 89.9233 63.7636 89.3773 65.3386 87.8303C66.4866 86.6963 67.1446 85.1283 68.2926 83.9943C69.9306 82.3703 72.3526 81.8173 74.6486 81.6773C77.0194 81.4482 79.4092 81.8364 81.5856 82.8043C82.6663 83.2973 83.6159 84.0377 84.3577 84.9655C85.0994 85.8933 85.6125 86.9826 85.8556 88.1453C86.0376 89.2793 85.8976 90.4763 86.2616 91.5753C86.6536 92.7793 87.5986 93.7173 88.1866 94.8443C88.7755 96.0546 88.9459 97.4262 88.671 98.7438C88.396 100.061 87.6914 101.25 86.6676 102.124L70.4416 123.082C67.0326 124.37 58.7726 122.816 56.1406 120.282C53.5086 117.748 50.7366 110.804 51.8636 107.339Z" fill="#263238"/>
<path d="M86.2402 99.4637C85.5402 94.7037 81.9492 89.0827 77.2242 89.9507L62.6362 94.8507C61.2362 95.1167 62.2302 97.4617 62.3702 98.9107L65.5412 131.811C65.5412 131.811 63.5672 133.211 62.8672 132.945C62.8274 132.931 62.7842 132.93 62.7436 132.941C62.7031 132.953 62.6672 132.977 62.641 133.01C62.6148 133.044 62.5996 133.084 62.5975 133.126C62.5954 133.168 62.6065 133.21 62.6292 133.246C64.4002 135.801 72.6532 146.91 81.2002 143.501C83.1042 142.738 80.9972 136.739 81.2002 134.52L80.9482 128.843C80.7592 125.945 80.6682 124.755 80.6682 124.783C80.6682 124.811 86.7022 123.299 87.3532 115.228C87.6822 111.231 86.9822 104.749 86.2402 99.4637Z" fill="#FFBF9D"/>
<path d="M85.225 106.787C85.2467 107.053 85.1638 107.318 84.994 107.524C84.8241 107.731 84.5806 107.863 84.315 107.893C84.1856 107.914 84.0533 107.908 83.926 107.877C83.7988 107.846 83.6791 107.789 83.574 107.711C83.4689 107.633 83.3806 107.534 83.3143 107.421C83.248 107.308 83.205 107.183 83.188 107.053C83.1663 106.787 83.2491 106.522 83.419 106.316C83.5888 106.109 83.8323 105.977 84.098 105.947C84.2274 105.926 84.3596 105.932 84.4869 105.963C84.6142 105.994 84.7339 106.05 84.839 106.129C84.944 106.207 85.0323 106.306 85.0986 106.419C85.165 106.532 85.2079 106.657 85.225 106.787Z" fill="#263238"/>
<path d="M75.2854 107.409C75.309 107.675 75.2277 107.939 75.059 108.146C74.8903 108.352 74.6474 108.485 74.3824 108.515C74.2531 108.535 74.1211 108.529 73.9943 108.497C73.8674 108.465 73.748 108.409 73.6431 108.331C73.5383 108.253 73.45 108.154 73.3834 108.042C73.3169 107.929 73.2733 107.805 73.2554 107.675C73.2337 107.409 73.3165 107.144 73.4863 106.938C73.6562 106.731 73.8997 106.599 74.1653 106.569C74.2943 106.548 74.4262 106.554 74.553 106.585C74.6799 106.616 74.7991 106.673 74.9037 106.751C75.0082 106.83 75.0958 106.928 75.1614 107.041C75.227 107.154 75.2691 107.279 75.2854 107.409Z" fill="#263238"/>
<path d="M85.5895 103.413C85.4775 103.602 84.5255 103 83.3355 103.175C82.1455 103.35 81.3825 104.162 81.2355 104.015C81.0885 103.868 81.2355 103.623 81.5785 103.252C82.0092 102.768 82.5981 102.454 83.2395 102.365C83.8809 102.277 84.5329 102.42 85.0785 102.769C85.4705 103.042 85.6455 103.329 85.5895 103.413Z" fill="#263238"/>
<path d="M74.901 104.302C74.761 104.477 73.83 103.798 72.549 103.854C71.268 103.91 70.358 104.631 70.211 104.47C70.064 104.309 70.274 104.092 70.673 103.77C71.1968 103.337 71.8492 103.091 72.528 103.07C73.2036 103.043 73.8687 103.243 74.418 103.637C74.817 103.924 74.964 104.218 74.901 104.302Z" fill="#263238"/>
<path d="M78.9109 111.84C79.4761 111.609 80.0692 111.454 80.6749 111.378C80.9479 111.329 81.2139 111.252 81.2419 111.056C81.2456 110.763 81.1574 110.477 80.9899 110.237C80.6749 109.579 80.3459 108.886 79.9959 108.137C78.5959 105.176 77.5809 102.74 77.6999 102.684C77.8189 102.628 79.0439 104.98 80.4299 107.934C80.7659 108.669 81.0879 109.334 81.3889 110.034C81.5937 110.358 81.6756 110.746 81.6199 111.126C81.5878 111.228 81.5326 111.322 81.4586 111.399C81.3846 111.477 81.2937 111.537 81.1929 111.574C81.0412 111.626 80.8837 111.658 80.7239 111.672C80.1283 111.799 79.5198 111.855 78.9109 111.84Z" fill="#263238"/>
<path d="M80.6684 124.797C76.9198 125.141 73.1493 124.438 69.7764 122.767C69.7764 122.767 72.8914 128.157 80.8084 126.799L80.6684 124.797Z" fill="#FF9A6C"/>
<path d="M75.558 115.046C75.6829 114.769 75.8755 114.528 76.118 114.346C76.4148 114.204 76.7518 114.172 77.07 114.255C77.5428 114.324 77.9802 114.545 78.316 114.885C78.4808 115.056 78.5969 115.268 78.6523 115.5C78.7077 115.731 78.7003 115.973 78.631 116.201C78.505 116.663 77.819 116.901 77.35 116.999C76.8641 117.07 76.3688 116.968 75.95 116.712C75.7679 116.629 75.6088 116.502 75.4868 116.344C75.3648 116.185 75.2835 115.999 75.25 115.802C75.2811 115.526 75.3876 115.264 75.558 115.046Z" fill="#FF9A6C"/>
<path d="M75.7824 113.499C75.9574 113.499 76.0554 114.668 77.1404 115.438C78.2254 116.208 79.4854 115.977 79.5064 116.138C79.5274 116.299 79.2474 116.39 78.7084 116.446C78.009 116.51 77.3095 116.324 76.7344 115.921C76.1794 115.538 75.7973 114.952 75.6704 114.29C75.6004 113.807 75.6984 113.499 75.7824 113.499Z" fill="#263238"/>
<path d="M74.8026 99.9957C74.7116 100.297 73.6056 100.241 72.3246 100.5C71.0436 100.759 70.0286 101.2 69.8396 100.927C69.7556 100.808 69.9096 100.514 70.3086 100.192C70.843 99.7935 71.4618 99.5233 72.1171 99.4019C72.7725 99.2805 73.447 99.3112 74.0886 99.4917C74.5786 99.6317 74.8376 99.8487 74.8026 99.9957Z" fill="#263238"/>
<path d="M84.9101 99.4011C84.7071 99.6671 83.8251 99.4782 82.8101 99.5482C81.7951 99.6182 80.8991 99.8631 80.6751 99.6181C80.5771 99.4991 80.6751 99.2332 81.0601 98.9672C81.5663 98.6336 82.1551 98.447 82.7611 98.4281C83.3632 98.3848 83.9653 98.5135 84.4971 98.7991C84.8611 99.0091 85.0011 99.2611 84.9101 99.4011Z" fill="#263238"/>
<path d="M59.4099 95.9991C60.1099 94.8651 61.4679 94.2841 62.7279 93.8011C68.1696 91.6999 73.8423 90.2548 79.6259 89.4961C80.3259 90.6791 79.6819 92.2961 78.5969 93.1571C77.5119 94.0181 76.1119 94.3611 74.8169 94.8441C73.5219 95.3271 72.1849 96.0831 71.6459 97.3641C71.1069 98.6451 71.5619 100.332 71.0579 101.718C70.1969 104.112 66.8579 104.882 66.0249 107.269C65.3809 109.082 66.4309 111.007 66.7249 112.911C66.8594 113.877 66.7861 114.861 66.5101 115.797C66.2341 116.733 65.7617 117.599 65.1244 118.338C64.4871 119.076 63.6995 119.671 62.8143 120.081C61.929 120.491 60.9665 120.707 59.9909 120.716C59.5989 113.861 59.2046 107.01 58.8079 100.164C58.6889 98.7361 58.6329 97.1961 59.4099 95.9991Z" fill="#263238"/>
<g filter="url(#filter4_d_1564_9763)">
<path d="M45.606 113.31C46.691 112.337 48.049 111.497 48.476 110.111C49.106 108.088 47.482 105.715 48.532 103.874C49.484 102.194 52.291 102.285 53.18 100.57C53.88 99.2259 53.075 98.0429 53.334 96.8669C53.593 95.6909 55.273 94.6619 56.463 94.8019L65.801 108.361C66.669 112.911 67.544 115.361 66.571 117.993C65.9274 119.41 65.4415 120.894 65.122 122.417C64.912 123.957 65.311 125.7 66.564 126.617C60.964 127.058 55.728 124.132 50.884 121.297L45.781 118.301C45.2223 118.034 44.7407 117.629 44.381 117.125C43.618 115.879 44.528 114.276 45.606 113.31Z" fill="#263238"/>
</g>
<path d="M50.7646 119.918C50.96 119.981 51.1621 120.021 51.3666 120.037C51.9506 120.093 52.5398 120.05 53.1097 119.911C54.0193 119.693 54.8565 119.242 55.5386 118.602C56.4397 117.735 57.0051 116.577 57.1347 115.333C57.2188 114.612 57.1569 113.881 56.9527 113.184C56.7017 112.441 56.3533 111.735 55.9166 111.084C55.4537 110.423 55.0927 109.696 54.8456 108.928C54.7145 108.535 54.6734 108.118 54.7255 107.707C54.7776 107.296 54.9216 106.902 55.1466 106.555C55.6506 105.855 56.5957 105.708 57.4777 105.358C57.954 105.187 58.3684 104.877 58.6676 104.469C58.9432 104.032 59.0776 103.522 59.0527 103.006C58.9316 102.017 58.7183 101.043 58.4156 100.094C58.3082 99.6334 58.3082 99.1544 58.4156 98.6939C58.5389 98.2295 58.8245 97.8247 59.2206 97.5529C60.0724 97.0618 61.0375 96.8012 62.0206 96.7969C63.0382 96.7633 64.0305 96.4718 64.9047 95.9499C65.7552 95.4314 66.4457 94.6876 66.8996 93.8009C67.2722 92.9495 67.5084 92.0448 67.5996 91.1199C67.6968 90.2637 67.8797 89.4195 68.1456 88.5999C68.4405 87.8545 68.8889 87.1796 69.4617 86.6189C70.5182 85.6164 71.8821 84.9998 73.3326 84.8689C74.5421 84.7655 75.756 85.0083 76.8326 85.5689C77.6424 85.9833 78.3724 86.5378 78.9886 87.2069C79.5037 87.7909 79.9499 88.4321 80.3186 89.1179C80.3186 89.1179 80.3186 89.0689 80.2696 88.9709C80.2122 88.8319 80.1468 88.6963 80.0736 88.5649C79.8064 88.0567 79.4798 87.5821 79.1006 87.1509C78.4849 86.4549 77.7501 85.8742 76.9306 85.4359C75.8427 84.8379 74.6064 84.5634 73.3676 84.6449C71.8475 84.7562 70.4117 85.3864 69.3006 86.4299C68.6885 87.0212 68.211 87.7374 67.9006 88.5299C67.6231 89.3647 67.4308 90.2254 67.3266 91.0989C67.2295 91.9934 66.9933 92.8672 66.6266 93.6889C66.1998 94.5151 65.5561 95.2096 64.7646 95.6979C63.9306 96.1871 62.9871 96.4591 62.0206 96.4889C60.9673 96.4867 59.9327 96.7671 59.0246 97.3009C58.5704 97.6099 58.2424 98.0721 58.1007 98.6029C57.978 99.1207 57.978 99.6601 58.1007 100.178C58.3971 101.109 58.608 102.065 58.7307 103.034C58.7595 103.484 58.6469 103.932 58.4087 104.315C58.1382 104.67 57.7713 104.94 57.3517 105.092C56.9387 105.267 56.4907 105.386 56.0567 105.568C55.6047 105.738 55.2062 106.026 54.9017 106.401C54.6544 106.787 54.496 107.224 54.4379 107.679C54.3798 108.134 54.4234 108.597 54.5656 109.033C54.8278 109.826 55.2051 110.576 55.6857 111.259C56.112 111.878 56.4534 112.551 56.7007 113.261C56.899 113.923 56.9656 114.617 56.8966 115.305C56.7819 116.502 56.252 117.621 55.3986 118.469C54.7455 119.101 53.9402 119.555 53.0607 119.785C52.3116 119.98 51.5313 120.026 50.7646 119.918Z" fill="#455A64"/>
<g filter="url(#filter5_d_1564_9763)">
<path d="M43.3029 110.279C43.2113 110.416 43.1493 110.571 43.1209 110.734C43.0278 111.214 43.1123 111.712 43.3589 112.134C43.5297 112.436 43.7696 112.692 44.0589 112.883C44.4195 113.101 44.8345 113.213 45.2559 113.205C45.7679 113.194 46.2671 113.042 46.6991 112.767C47.1311 112.492 47.4793 112.103 47.7059 111.644C47.9721 111.117 48.1089 110.534 48.1049 109.943C48.0879 109.308 47.9551 108.682 47.7129 108.095C47.2719 106.884 46.4599 105.701 46.4459 104.287C46.4194 103.939 46.4634 103.589 46.5753 103.258C46.6871 102.927 46.8645 102.623 47.0969 102.362C47.6644 101.893 48.3937 101.667 49.1269 101.732C49.9427 101.792 50.7627 101.706 51.5489 101.48C51.9608 101.312 52.3088 101.018 52.5429 100.64C52.7682 100.264 52.9091 99.8438 52.9559 99.408C52.9962 98.5721 52.928 97.7344 52.7529 96.916C52.6275 96.1479 52.6729 95.3616 52.8859 94.613C53.2826 93.184 54.212 91.9615 55.4829 91.197C56.6892 90.5826 58.0283 90.2748 59.3819 90.301C60.5848 90.3037 61.7804 90.1147 62.9239 89.741C63.8535 89.3999 64.7055 88.8763 65.4299 88.201C65.9845 87.6886 66.4568 87.0936 66.8299 86.437C67.1582 85.8924 67.3836 85.2921 67.4949 84.666C67.2865 85.257 67.0265 85.8286 66.7179 86.374C65.836 87.8458 64.4776 88.9721 62.8679 89.566C61.734 89.9129 60.5535 90.0829 59.3679 90.07C57.9749 90.0308 56.5941 90.3387 55.3499 90.966C54.0135 91.7497 53.0269 93.0142 52.5919 94.501C52.3679 95.2905 52.3177 96.1192 52.4449 96.93C52.6087 97.7217 52.6769 98.5301 52.6479 99.338C52.6313 99.7221 52.5096 100.094 52.2961 100.414C52.0825 100.734 51.7853 100.989 51.4369 101.151C50.6888 101.363 49.9091 101.442 49.1339 101.382C48.322 101.311 47.5148 101.562 46.8869 102.082C46.6305 102.374 46.4362 102.715 46.3158 103.085C46.1955 103.454 46.1516 103.844 46.1869 104.231C46.2178 104.958 46.3914 105.671 46.6979 106.331C46.9709 106.961 47.2719 107.549 47.5029 108.137C47.7378 108.694 47.8705 109.29 47.8949 109.894C47.9044 110.446 47.7846 110.993 47.5449 111.49C47.3417 111.919 47.0249 112.284 46.6287 112.546C46.2326 112.808 45.7723 112.956 45.2979 112.974C44.9087 112.988 44.5234 112.893 44.1849 112.701C43.8951 112.532 43.6539 112.291 43.4849 112.001C43.2395 111.611 43.138 111.148 43.1979 110.692C43.2329 110.44 43.3239 110.286 43.3029 110.279Z" fill="#263238"/>
</g>
<path d="M102.264 113.618C102.43 114.092 102.43 114.608 102.264 115.081C102.172 115.353 102.019 115.6 101.818 115.805C101.617 116.01 101.372 116.167 101.102 116.264C100.742 116.37 100.359 116.374 99.997 116.275C99.6348 116.176 99.3072 115.979 99.051 115.704C98.757 115.381 98.586 114.965 98.568 114.528C98.5545 114.052 98.6281 113.578 98.785 113.128C99.079 112.183 99.688 111.154 99.597 109.915C99.5528 109.287 99.3781 108.675 99.084 108.118C98.7899 107.561 98.3829 107.072 97.889 106.681C97.3718 106.267 96.7802 105.956 96.146 105.764C95.4982 105.585 94.8301 105.488 94.158 105.477C93.5067 105.472 92.8573 105.404 92.219 105.274C91.6231 105.151 91.09 104.821 90.714 104.343C90.3811 103.852 90.1942 103.277 90.175 102.684C90.1439 102.106 90.191 101.527 90.315 100.962C90.6223 99.8961 90.7916 98.7951 90.819 97.6861C90.7626 96.7014 90.4141 95.7558 89.818 94.9701C89.3139 94.3466 88.6964 93.824 87.998 93.4301C87.4877 93.1281 86.9989 92.7913 86.535 92.4221C86.1546 92.0963 85.8449 91.6961 85.625 91.2461C85.625 91.2461 85.625 91.2461 85.625 91.3441C85.6526 91.4388 85.6902 91.5303 85.737 91.6171C85.9116 91.9573 86.1491 92.2614 86.437 92.5131C86.8907 92.9081 87.3753 93.2662 87.886 93.5841C88.5538 93.9813 89.1424 94.4987 89.622 95.1101C90.1769 95.8633 90.4938 96.7653 90.532 97.7001C90.4904 98.7841 90.3141 99.8587 90.007 100.899C89.8716 101.491 89.8174 102.099 89.846 102.705C89.8721 103.358 90.0806 103.991 90.448 104.532C90.8653 105.072 91.4606 105.447 92.128 105.589C92.7847 105.724 93.4527 105.797 94.123 105.806C94.7709 105.815 95.4152 105.904 96.041 106.072C96.635 106.257 97.1901 106.549 97.679 106.933C98.1391 107.296 98.519 107.75 98.7949 108.267C99.0708 108.784 99.2367 109.352 99.282 109.936C99.38 111.063 98.82 112.036 98.512 113.051C98.3502 113.538 98.279 114.05 98.302 114.563C98.3325 115.052 98.5331 115.515 98.869 115.872C99.1565 116.173 99.523 116.388 99.9266 116.49C100.33 116.593 100.754 116.58 101.151 116.453C101.441 116.341 101.701 116.164 101.912 115.936C102.123 115.708 102.279 115.435 102.369 115.137C102.496 114.772 102.515 114.379 102.425 114.003C102.395 113.866 102.34 113.736 102.264 113.618Z" fill="#263238"/>
<path d="M95.5718 168.45V160.708C96.4398 156.361 96.0268 151.209 94.0038 147.24C92.5362 144.682 90.9138 142.215 89.1458 139.855L81.4458 129.852C77.2038 132.939 70.5608 130.706 64.8628 128.634C64.8628 128.634 59.2628 131.749 56.6168 134.675C53.8658 137.755 63.2738 176.29 63.2738 176.29C59.0108 184.816 53.5088 192.39 52.6758 200.16L97.1958 201.875L95.3058 181.463L95.5718 168.45Z" fill="#455A64"/>
<path d="M94.9553 181.68C94.911 181.39 94.8993 181.097 94.9203 180.805C94.9203 180.168 94.9203 179.405 94.9203 178.432C94.9553 176.332 94.9973 173.623 95.0463 170.606C95.0953 167.589 95.1863 164.782 95.2843 162.78C95.3333 161.779 95.3823 160.967 95.4243 160.407C95.4291 160.117 95.4667 159.828 95.5363 159.546C95.5646 159.835 95.5646 160.125 95.5363 160.414C95.5363 161.051 95.5363 161.814 95.5363 162.787C95.5013 164.887 95.4523 167.596 95.4033 170.613C95.3543 173.63 95.2703 176.437 95.1723 178.439C95.1233 179.44 95.0743 180.252 95.0253 180.812C95.0362 181.103 95.0127 181.394 94.9553 181.68Z" fill="#263238"/>
<path d="M115.29 188.722C115.29 188.722 119.63 188.96 122.29 190.64C124.95 192.32 129.29 194.938 131.075 198.179C131.894 199.67 129.563 199.985 128.408 199.124C127.253 198.263 125.496 196.625 124.621 196.429L123.746 196.226C124.545 198.034 125.435 199.8 126.413 201.518C127.316 202.918 128.1 205.242 125.384 205.347C125.384 205.347 123.557 207.727 121.709 205.963C121.709 205.963 120.267 208.126 117.943 205.13C117.943 205.13 116.585 206.845 116.025 206.187C115.465 205.529 113.61 204.493 113.071 202.351C112.263 199.857 111.328 197.406 110.271 195.008L115.29 188.722Z" fill="#FFBF9D"/>
<g filter="url(#filter6_d_1564_9763)">
<path d="M212.458 128.563C212.941 128.563 232.814 126.463 232.814 126.463C232.814 126.463 234.501 118.385 234.41 116.285C234.319 114.185 232.905 100.29 232.905 100.29L240.346 96.79C240.346 96.79 250.293 130.334 248.123 133.12C245.953 135.906 241.872 138.405 241.522 138.419C241.172 138.433 222.265 146.819 209.112 142.458C195.959 138.097 212.458 128.563 212.458 128.563Z" fill="#FFBF9D"/>
</g>
<path d="M195.041 146.673C197.967 149.578 203.007 151.993 211.421 149.893C228.053 145.735 240.52 142.193 245.476 139.533C250.432 136.873 248.5 124.987 248.92 124.448C250.173 122.824 248.794 119.338 247.009 118.792C241.92 117.252 233.065 117.861 232.617 118.323C230.006 121.067 232.386 124.399 232.386 124.399L210.455 127.276C207.759 127.149 205.057 127.321 202.398 127.787" fill="#455A64"/>
<path d="M202.398 127.787L202.923 127.675C203.273 127.612 203.791 127.521 204.477 127.437C206.462 127.187 208.464 127.103 210.462 127.185L232.386 124.245L232.281 124.49C231.561 123.43 231.207 122.164 231.273 120.885C231.333 120.223 231.549 119.585 231.903 119.023C232.081 118.741 232.283 118.474 232.505 118.225C232.593 118.16 232.69 118.108 232.792 118.071L233.044 118.008C233.212 117.966 233.373 117.952 233.534 117.917C236.25 117.604 238.99 117.548 241.717 117.749C243.149 117.836 244.572 118.033 245.973 118.337C246.323 118.414 246.673 118.519 247.037 118.61C247.41 118.729 247.752 118.93 248.038 119.198C248.595 119.727 249.019 120.379 249.277 121.102C249.555 121.826 249.653 122.607 249.564 123.377C249.5 123.778 249.35 124.16 249.123 124.497C249.06 124.567 249.067 124.756 249.06 124.938V125.498C249.109 127.003 249.179 128.536 249.137 130.076C249.148 132.262 248.791 134.435 248.08 136.502C247.715 137.538 247.088 138.461 246.26 139.183C245.831 139.518 245.361 139.796 244.86 140.009C244.398 140.254 243.908 140.443 243.46 140.667C241.542 141.486 239.617 142.158 237.72 142.767C235.823 143.376 233.961 143.964 232.12 144.503C224.798 146.603 218.12 148.304 212.562 149.697C211.234 150.048 209.888 150.326 208.53 150.53C207.313 150.7 206.084 150.765 204.855 150.726C202.882 150.684 200.935 150.261 199.122 149.48C197.985 148.978 196.925 148.318 195.972 147.52C195.637 147.249 195.323 146.952 195.034 146.631C195.034 146.631 195.356 146.939 196.021 147.464C196.986 148.234 198.05 148.869 199.185 149.354C200.987 150.098 202.913 150.494 204.862 150.523C206.077 150.552 207.293 150.477 208.495 150.299C209.844 150.086 211.181 149.801 212.499 149.445C218.099 148.045 224.721 146.323 232.022 144.181C233.849 143.642 235.711 143.068 237.622 142.438C239.533 141.808 241.43 141.143 243.327 140.338C243.789 140.121 244.272 139.932 244.727 139.687C245.194 139.481 245.634 139.218 246.036 138.903C246.818 138.224 247.409 137.353 247.751 136.376C248.441 134.336 248.784 132.195 248.766 130.041C248.808 128.508 248.766 126.989 248.689 125.477V124.903C248.689 124.805 248.689 124.707 248.689 124.602C248.684 124.546 248.684 124.49 248.689 124.434C248.705 124.391 248.724 124.349 248.745 124.308L248.78 124.252C248.977 123.965 249.106 123.637 249.158 123.293C249.24 122.581 249.146 121.86 248.885 121.193C248.65 120.525 248.262 119.92 247.751 119.429C247.503 119.197 247.207 119.022 246.883 118.918C246.533 118.827 246.183 118.729 245.84 118.645C244.457 118.345 243.053 118.151 241.64 118.064C238.942 117.858 236.23 117.909 233.541 118.218C233.38 118.218 233.219 118.26 233.065 118.302L232.841 118.351C232.793 118.37 232.746 118.394 232.701 118.421C232.49 118.651 232.301 118.899 232.134 119.163C231.801 119.678 231.599 120.267 231.546 120.878C231.486 122.081 231.814 123.272 232.484 124.273L232.624 124.49H232.379L210.441 127.29C208.454 127.189 206.462 127.245 204.484 127.458C203.784 127.528 203.273 127.605 202.923 127.654C202.573 127.703 202.398 127.787 202.398 127.787Z" fill="#263238"/>
<path d="M143.02 150.583L134.087 134.533L303.047 40.4916C304.993 39.4081 307.29 39.1423 309.433 39.7527C311.576 40.363 313.388 41.7995 314.472 43.7461L315.238 45.1223C316.321 47.0689 316.587 49.3662 315.976 51.5087C315.366 53.6513 313.93 55.4637 311.983 56.5472L143.023 150.589L143.02 150.583Z" fill="#49A843"/>
<path d="M284.7 65.7051L264.012 28.5357C263.912 28.3558 263.848 28.1579 263.824 27.9533C263.801 27.7488 263.818 27.5416 263.874 27.3435C263.93 27.1455 264.025 26.9605 264.153 26.7991C264.281 26.6378 264.44 26.5032 264.619 26.403L274.112 21.1195C274.292 21.0193 274.49 20.9556 274.694 20.9319C274.899 20.9083 275.106 20.9251 275.304 20.9815C275.502 21.0379 275.687 21.1328 275.849 21.2607C276.01 21.3886 276.145 21.5471 276.245 21.727L296.933 58.8964L284.7 65.7051Z" fill="#49A843"/>
<path d="M244.002 48.3965L259.08 75.486C259.689 76.5805 261.07 76.9739 262.164 76.3648L270.434 71.7621C271.528 71.1529 271.922 69.7718 271.312 68.6774L256.235 41.5878C255.625 40.4933 254.244 40.0999 253.15 40.7091L244.88 45.3118C243.786 45.9209 243.393 47.302 244.002 48.3965Z" fill="#49A843"/>
<path d="M257.314 46.8147L266.648 63.5859L285.646 53.012L276.311 36.2408L257.314 46.8147Z" fill="#49A843"/>
<path d="M300.573 41.9037C300.622 41.9877 267.463 60.5377 226.527 83.3297C185.591 106.122 152.327 124.532 152.327 124.441C152.327 124.35 185.43 105.807 226.38 83.0077C267.33 60.2087 300.524 41.8127 300.573 41.9037Z" fill="#263238"/>
<path d="M74.5926 181.588C87.0526 203.988 113.324 213.088 133.274 201.993C153.224 190.898 159.314 163.738 146.854 141.366C134.394 118.994 108.13 109.866 88.1726 120.961C68.2156 132.056 62.1396 159.216 74.5926 181.588ZM136.046 147.386C144.775 163.066 140.512 182.085 126.526 189.862C112.54 197.639 94.1366 191.262 85.4076 175.568C76.6786 159.874 80.9416 140.869 94.9206 133.085C108.9 125.301 127.317 131.706 136.046 147.386Z" fill="#49A843"/>
<path d="M162.528 118.51L171.747 135.074C172.973 137.276 175.752 138.068 177.955 136.842L178.701 136.427C180.903 135.201 181.695 132.421 180.469 130.219L171.25 113.656C170.024 111.453 167.245 110.662 165.043 111.888L164.296 112.303C162.094 113.529 161.302 116.308 162.528 118.51Z" fill="#49A843"/>
<path d="M180.233 108.655L189.452 125.218C190.678 127.421 193.457 128.212 195.66 126.986L196.406 126.571C198.608 125.345 199.4 122.566 198.174 120.364L188.955 103.8C187.729 101.598 184.95 100.806 182.748 102.032L182.002 102.447C179.799 103.673 179.007 106.452 180.233 108.655Z" fill="#49A843"/>
<path d="M171.052 113.401C171.143 113.352 173.278 117.111 175.833 121.801C178.388 126.491 180.383 130.313 180.292 130.362C180.201 130.411 178.066 126.659 175.511 121.962C172.956 117.265 170.961 113.401 171.052 113.401Z" fill="#263238"/>
<path d="M162.925 119.176C163.016 119.127 165.102 122.718 167.594 127.184C170.086 131.65 172.025 135.325 171.941 135.374C171.857 135.423 169.764 131.832 167.3 127.401C164.836 122.97 162.841 119.225 162.925 119.176Z" fill="#263238"/>
<path d="M188.868 103.65C188.959 103.601 191.136 107.339 193.733 112.001C196.33 116.663 198.36 120.492 198.269 120.541C198.178 120.59 196.008 116.845 193.411 112.183C190.814 107.521 188.784 103.699 188.868 103.65Z" fill="#263238"/>
<path d="M180.32 108.808C180.404 108.759 182.539 112.476 185.073 117.11C187.607 121.744 189.602 125.51 189.511 125.587C189.42 125.664 187.299 121.919 184.758 117.285C182.217 112.651 180.229 108.857 180.32 108.808Z" fill="#263238"/>
<path d="M231.091 83.5601C231.906 83.656 232.728 83.4452 233.396 82.9687C234.064 82.4921 234.531 81.784 234.706 80.9821C234.88 80.1802 234.75 79.342 234.341 78.6307C233.931 77.9193 233.272 77.3859 232.491 77.1341C232.996 76.6171 233.325 75.9544 233.433 75.2398C233.54 74.5252 233.42 73.7949 233.089 73.1523C232.759 72.5097 232.235 71.9874 231.591 71.6593C230.947 71.3312 230.216 71.2139 229.502 71.3241C229.472 70.6133 229.26 69.9223 228.884 69.3181C228.509 68.7139 227.983 68.2172 227.359 67.8762C226.735 67.5351 226.033 67.3614 225.322 67.3719C224.61 67.3824 223.914 67.5768 223.3 67.9361C222.499 67.2816 221.503 66.9136 220.469 66.8908C219.435 66.8679 218.424 67.1915 217.595 67.8101C216.899 67.6772 216.178 67.7722 215.54 68.081C214.902 68.3899 214.381 68.8961 214.053 69.5246C213.725 70.1532 213.609 70.8706 213.721 71.5705C213.833 72.2703 214.168 72.9154 214.676 73.4101" fill="#263238"/>
<path d="M216.888 71.0723H217.588C221.118 71.0752 224.517 72.4072 227.108 74.8031C229.7 77.1989 231.295 80.4829 231.574 84.0013C232.099 90.7843 232.589 98.2813 232.533 101.921C232.4 109.481 224.882 110.601 224.882 110.601L225.491 119.659L207.2 119.064L205.681 86.2343C205.037 78.4013 209.048 71.5063 216.888 71.0723Z" fill="#FFBF9D"/>
<path d="M224.945 110.601C221.446 110.591 218.023 109.578 215.082 107.682C215.082 107.682 217.504 113.387 225.022 112.729L224.945 110.601Z" fill="#FF9A6C"/>
<path d="M227.437 91.1065C227.439 91.387 227.331 91.657 227.136 91.8586C226.941 92.0601 226.674 92.1772 226.394 92.1845C226.257 92.194 226.12 92.1763 225.99 92.1324C225.861 92.0885 225.741 92.0193 225.638 91.9288C225.535 91.8383 225.451 91.7283 225.391 91.6052C225.331 91.4821 225.296 91.3483 225.288 91.2115C225.288 90.9309 225.396 90.6611 225.591 90.4588C225.785 90.2564 226.051 90.1373 226.331 90.1265C226.468 90.117 226.606 90.135 226.736 90.1793C226.866 90.2236 226.987 90.2934 227.09 90.3846C227.192 90.4759 227.276 90.5867 227.336 90.7106C227.396 90.8345 227.43 90.9691 227.437 91.1065Z" fill="#263238"/>
<path d="M229.943 87.7036C229.81 87.8436 228.991 87.2416 227.843 87.2416C226.695 87.2416 225.834 87.8156 225.708 87.6756C225.582 87.5356 225.785 87.3606 226.156 87.0876C226.658 86.7425 227.255 86.5616 227.864 86.5696C228.466 86.5671 229.053 86.7585 229.537 87.1156C229.887 87.3886 230.006 87.6476 229.943 87.7036Z" fill="#263238"/>
<path d="M217.001 90.6017C217.006 90.8864 216.899 91.1618 216.702 91.3678C216.506 91.5737 216.235 91.6934 215.951 91.7007C215.814 91.7102 215.677 91.6925 215.547 91.6486C215.417 91.6047 215.298 91.5355 215.195 91.445C215.092 91.3546 215.008 91.2446 214.948 91.1214C214.888 90.9983 214.853 90.8645 214.845 90.7277C214.843 90.4466 214.951 90.1758 215.146 89.9731C215.34 89.7704 215.607 89.6518 215.888 89.6427C216.024 89.6322 216.161 89.6487 216.29 89.6913C216.42 89.7339 216.54 89.8017 216.644 89.8908C216.747 89.9799 216.832 90.0886 216.893 90.2106C216.954 90.3326 216.991 90.4655 217.001 90.6017Z" fill="#263238"/>
<path d="M218.561 87.8852C218.428 88.0252 217.609 87.4232 216.461 87.4232C215.313 87.4232 214.452 87.9972 214.326 87.8572C214.2 87.7172 214.403 87.5422 214.774 87.2692C215.277 86.9242 215.873 86.7432 216.482 86.7512C217.084 86.7487 217.671 86.9402 218.155 87.2972C218.505 87.5702 218.624 87.8222 218.561 87.8852Z" fill="#263238"/>
<path d="M222.733 96.4893C223.344 96.2973 223.977 96.1844 224.616 96.1533C224.91 96.1533 225.19 96.0693 225.246 95.8663C225.271 95.5615 225.202 95.2564 225.05 94.9913L224.182 92.7373C222.978 89.5243 222.082 86.8853 222.236 86.8433C222.39 86.8013 223.447 89.3563 224.651 92.5623C224.938 93.3533 225.218 94.1093 225.484 94.8303C225.666 95.1891 225.717 95.5996 225.631 95.9923C225.587 96.096 225.52 96.1883 225.435 96.2623C225.35 96.3363 225.25 96.39 225.141 96.4193C224.98 96.4672 224.812 96.4908 224.644 96.4893C224.009 96.5686 223.368 96.5686 222.733 96.4893Z" fill="#263238"/>
<path d="M219.577 83.4345C219.423 83.7285 218.436 83.4345 217.211 83.3645C215.986 83.2945 214.964 83.5255 214.852 83.2175C214.803 83.0705 215.02 82.8115 215.461 82.5735C216.029 82.2925 216.661 82.1623 217.295 82.1955C217.923 82.2178 218.534 82.4062 219.066 82.7415C219.465 83.0145 219.647 83.3015 219.577 83.4345Z" fill="#263238"/>
<path d="M230.014 82.9363C229.769 83.1953 228.81 82.9363 227.662 82.9363C226.514 82.9363 225.562 83.1113 225.317 82.8313C225.219 82.6983 225.373 82.4323 225.8 82.1873C226.388 81.879 227.047 81.7317 227.711 81.7603C228.371 81.7692 229.016 81.9554 229.58 82.2993C229.986 82.5373 230.119 82.8033 230.014 82.9363Z" fill="#263238"/>
<g filter="url(#filter7_d_1564_9763)">
<path d="M230.86 80.5706C230.86 80.5706 228.886 75.8456 226.611 74.7396C223.86 73.3956 222.67 76.4126 220.045 75.6706C217.42 74.9286 214.795 73.6476 212.107 75.6706C209.167 77.8826 210.539 79.4436 210.343 82.7896C209.573 96.3416 207.081 100.164 206.402 93.7796C206.325 93.0796 204.386 92.5196 204.106 89.5796C203.742 85.7506 203.609 81.0956 204.477 78.3796C205.177 76.0906 206.514 74.5086 208.859 72.7796C212.569 70.0356 217.651 69.9796 221.102 70.3506C224.553 70.7216 231.189 74.6626 230.86 80.5706Z" fill="#263238"/>
</g>
<path d="M206.878 93.5699C206.871 93.2933 206.807 93.0212 206.691 92.7701C206.575 92.5189 206.409 92.2939 206.204 92.1087C205.998 91.9235 205.757 91.7819 205.495 91.6925C205.233 91.6032 204.956 91.5679 204.68 91.5889C203.28 91.7219 201.705 92.5129 201.789 95.4179C201.936 100.57 207.081 99.3589 207.088 99.2049C207.095 99.0509 206.962 95.7259 206.878 93.5699Z" fill="#FFBF9D"/>
<path d="M205.906 97.3015C205.906 97.3015 205.822 97.3715 205.668 97.4415C205.459 97.5375 205.221 97.55 205.003 97.4765C204.663 97.2754 204.383 96.9869 204.192 96.641C204.001 96.2951 203.907 95.9044 203.918 95.5096C203.891 95.0699 203.963 94.6299 204.128 94.2216C204.172 94.0602 204.256 93.912 204.37 93.79C204.485 93.6681 204.628 93.5759 204.786 93.5216C204.889 93.4903 204.999 93.4964 205.098 93.5386C205.196 93.5809 205.277 93.6567 205.325 93.7525C205.395 93.8925 205.367 93.9975 205.395 94.0045C205.423 94.0115 205.5 93.9136 205.451 93.7036C205.423 93.5758 205.348 93.4633 205.241 93.3886C205.17 93.3366 205.09 93.2993 205.004 93.2788C204.919 93.2584 204.83 93.2552 204.744 93.2696C204.533 93.317 204.338 93.4179 204.177 93.5626C204.017 93.7072 203.896 93.8908 203.827 94.0955C203.619 94.5465 203.525 95.0418 203.554 95.5375C203.617 96.5735 204.177 97.5326 204.954 97.7286C205.093 97.7651 205.238 97.7696 205.378 97.7417C205.519 97.7138 205.652 97.6542 205.766 97.5676C205.906 97.4276 205.927 97.3015 205.906 97.3015Z" fill="#FF9A6C"/>
<g filter="url(#filter8_d_1564_9763)">
<path d="M207.012 83.5878C207.642 84.1016 208.39 84.4504 209.189 84.6028C209.59 84.6657 210 84.5812 210.344 84.365C210.687 84.1489 210.941 83.8156 211.058 83.4268C211.121 83.0698 211.058 82.6498 211.268 82.3768C211.478 82.1038 212.073 82.1528 212.5 82.2018C213.998 82.3628 215.755 80.7108 216.14 79.2548C216.334 79.5341 216.628 79.7286 216.961 79.7989C217.294 79.8691 217.641 79.8097 217.932 79.6328C218.408 79.3419 218.83 78.97 219.178 78.5338C219.381 78.2561 219.648 78.0316 219.956 77.8792C220.264 77.7269 220.605 77.6513 220.949 77.6588C221.311 77.7841 221.687 77.8663 222.069 77.9038C222.769 77.8478 223.077 77.0568 223.182 76.3848C223.287 75.7128 223.371 74.9358 223.945 74.5718C224.534 74.341 225.185 74.3237 225.786 74.5228C226.409 74.6208 227.186 74.4738 227.375 73.8648C227.401 73.7021 227.393 73.5359 227.354 73.3759C227.314 73.216 227.243 73.0657 227.144 72.9338C226.727 72.3095 226.112 71.844 225.398 71.6127C224.684 71.3815 223.913 71.3981 223.21 71.6598C222.962 70.7984 222.464 70.0301 221.778 69.4529C221.092 68.8758 220.25 68.5159 219.358 68.419C218.467 68.3222 217.567 68.4928 216.774 68.9091C215.98 69.3255 215.328 69.9687 214.901 70.7568C214.356 70.2575 213.698 69.8975 212.983 69.7074C212.269 69.5172 211.519 69.5027 210.798 69.665C210.077 69.8272 209.405 70.1615 208.841 70.6393C208.277 71.117 207.837 71.7242 207.558 72.4088C206.928 72.2408 206.262 72.2617 205.644 72.4691C205.025 72.6765 204.482 73.0611 204.08 73.5752C203.679 74.0892 203.437 74.71 203.386 75.3601C203.335 76.0103 203.476 76.6612 203.792 77.2318C203.312 77.4687 202.901 77.8236 202.596 78.2632C202.291 78.7028 202.103 79.2126 202.049 79.7448C202.049 80.8088 203.064 81.8448 204.093 81.5928C203.879 82.0121 203.835 82.4972 203.968 82.9484C204.101 83.3997 204.401 83.7829 204.808 84.0194C205.215 84.2559 205.697 84.3277 206.155 84.2201C206.613 84.1125 207.012 83.8337 207.271 83.4408" fill="#263238"/>
</g>
<path d="M223.588 73.1719C223.588 73.1719 223.588 73.1719 223.588 73.2699C223.588 73.3679 223.588 73.4239 223.553 73.5429C223.48 73.8922 223.353 74.2278 223.175 74.5369C222.89 75.0213 222.5 75.4352 222.034 75.7479C221.417 76.1686 220.68 76.3775 219.934 76.3429L220.018 76.2309C220.169 76.6931 220.131 77.1964 219.913 77.6309C219.681 78.0914 219.384 78.5159 219.031 78.8909C218.859 79.1095 218.664 79.309 218.45 79.4859C218.069 79.7364 217.611 79.8436 217.159 79.7885C216.706 79.7334 216.288 79.5195 215.979 79.1849L216.168 79.1289C216.095 79.6638 215.911 80.1776 215.628 80.637C215.345 81.0964 214.968 81.4912 214.523 81.7959C214.033 82.1598 213.438 82.3539 212.829 82.3489C212.257 82.3177 211.694 82.1923 211.163 81.9779L211.303 81.9149C211.033 82.5382 210.612 83.0844 210.078 83.5039C209.834 83.7127 209.546 83.8645 209.236 83.9481C208.926 84.0316 208.601 84.0449 208.286 83.9869C207.744 83.8691 207.249 83.5957 206.861 83.2002C206.473 82.8047 206.209 82.3044 206.102 81.7609L206.221 81.8169C205.676 82.099 205.051 82.1878 204.45 82.0689C204.001 81.9834 203.579 81.794 203.218 81.5159C202.993 81.3393 202.798 81.1264 202.644 80.8859C202.587 80.8024 202.544 80.7101 202.518 80.6129C202.713 80.9348 202.967 81.2173 203.267 81.4459C203.623 81.7039 204.036 81.8742 204.471 81.9429C205.042 82.0511 205.634 81.9571 206.144 81.6769L206.242 81.6209V81.7329C206.348 82.2388 206.599 82.7028 206.964 83.0683C207.33 83.4338 207.794 83.6849 208.3 83.7909C208.588 83.8413 208.884 83.8266 209.167 83.7479C209.449 83.6691 209.71 83.5284 209.931 83.3359C210.432 82.9371 210.827 82.42 211.079 81.8309L211.121 81.7399H211.219C211.725 81.9437 212.262 82.0619 212.808 82.0899C213.372 82.0944 213.922 81.915 214.376 81.5789C214.795 81.291 215.15 80.9188 215.417 80.4861C215.685 80.0534 215.859 79.5697 215.93 79.0659V78.8209L216.091 79.0099C216.273 79.211 216.501 79.3645 216.756 79.4573C217.011 79.55 217.285 79.579 217.554 79.5419C217.804 79.5084 218.044 79.4174 218.254 79.2759C218.456 79.113 218.639 78.9274 218.8 78.7229C219.146 78.3657 219.438 77.9602 219.668 77.5189C219.771 77.3223 219.834 77.1073 219.853 76.8861C219.872 76.665 219.847 76.4423 219.78 76.2309L219.738 76.1049H219.871C220.586 76.1493 221.295 75.9601 221.894 75.5659C222.353 75.2701 222.74 74.8755 223.028 74.4109C223.286 74.0342 223.476 73.6147 223.588 73.1719Z" fill="#455A64"/>
<path d="M222.72 100.332C222.678 100.143 221.425 100.451 220.263 99.5969C219.101 98.7429 218.912 97.3709 218.737 97.4059C218.562 97.4409 218.562 97.7699 218.688 98.3369C218.86 99.0767 219.289 99.7315 219.899 100.185C220.481 100.619 221.209 100.809 221.929 100.717C222.468 100.633 222.748 100.416 222.72 100.332Z" fill="#263238"/>
<g filter="url(#filter9_d_1564_9763)">
<path d="M261.542 296.186L266.512 313.119C266.512 313.119 285.412 313.749 286.623 316.794L254.101 327.602L245.267 301.527L261.542 296.186Z" fill="#455A64"/>
</g>
<path d="M255.998 315.057C255.717 315.257 255.52 315.553 255.444 315.889C255.368 316.224 255.418 316.576 255.585 316.877C255.773 317.165 256.065 317.37 256.399 317.449C256.734 317.529 257.086 317.477 257.384 317.304C257.681 317.092 257.89 316.777 257.969 316.421C258.048 316.064 257.991 315.69 257.811 315.372C257.583 315.092 257.255 314.91 256.896 314.866C256.537 314.822 256.175 314.918 255.886 315.134" fill="#E0E0E0"/>
<path d="M284.788 315.568C284.788 315.568 286.447 315.715 286.622 316.793L254.1 327.601L253.316 324.934L284.76 315.554" fill="#263238"/>
<path d="M266.981 312.775C267.03 312.936 266.281 313.272 265.651 314.042C265.021 314.812 264.846 315.617 264.678 315.603C264.51 315.589 264.447 314.595 265.203 313.678C265.959 312.761 266.967 312.621 266.981 312.775Z" fill="white"/>
<path d="M270.858 313.048C270.949 313.195 270.354 313.692 270.032 314.539C269.71 315.386 269.801 316.156 269.64 316.198C269.479 316.24 269.08 315.379 269.493 314.329C269.906 313.279 270.809 312.901 270.858 313.048Z" fill="white"/>
<path d="M274.155 316.486C274.022 316.57 273.539 315.849 273.658 314.848C273.777 313.847 274.4 313.245 274.512 313.357C274.624 313.469 274.316 314.057 274.232 314.911C274.148 315.765 274.309 316.402 274.155 316.486Z" fill="white"/>
<path d="M265.419 309.044C265.419 309.212 264.6 309.233 263.725 309.59C262.85 309.947 262.241 310.465 262.115 310.36C261.989 310.255 262.472 309.464 263.515 309.051C264.558 308.638 265.461 308.89 265.419 309.044Z" fill="white"/>
<g filter="url(#filter10_d_1564_9763)">
<path d="M185.703 296.332L178.626 312.502C178.626 312.502 192.689 325.102 191.674 328.238L159.824 315.638L169.813 289.99L185.703 296.332Z" fill="#455A64"/>
</g>
<path d="M169.324 307.231C168.981 307.204 168.641 307.304 168.367 307.512C168.093 307.719 167.906 308.021 167.84 308.358C167.801 308.7 167.893 309.043 168.099 309.319C168.304 309.595 168.607 309.782 168.946 309.842C169.309 309.869 169.67 309.761 169.96 309.539C170.249 309.317 170.446 308.996 170.514 308.638C170.514 307.938 169.877 307.14 169.191 307.238" fill="#E0E0E0"/>
<path d="M191.051 326.125C191.051 326.125 192.227 327.308 191.674 328.225L159.824 315.625L160.937 313.084L191.037 326.104" fill="#263238"/>
<path d="M179.201 312.544C179.138 312.698 178.333 312.46 177.367 312.656C176.401 312.852 175.736 313.356 175.617 313.23C175.498 313.104 176.086 312.306 177.255 312.089C178.424 311.872 179.299 312.411 179.201 312.544Z" fill="white"/>
<path d="M182.001 315.246C182.001 315.407 181.203 315.407 180.412 315.855C179.621 316.303 179.201 316.94 179.012 316.877C178.823 316.814 179.11 315.89 180.097 315.351C181.084 314.812 182.057 315.099 182.001 315.246Z" fill="white"/>
<path d="M182.323 319.992C182.169 319.992 182.26 319.11 183.023 318.417C183.786 317.724 184.619 317.668 184.633 317.822C184.647 317.976 184.017 318.256 183.422 318.837C182.827 319.418 182.484 320.041 182.323 319.992Z" fill="white"/>
<path d="M180.412 308.7C180.293 308.812 179.663 308.322 178.76 308C177.857 307.678 177.066 307.72 177.038 307.559C177.01 307.398 177.885 307.097 178.942 307.447C179.999 307.797 180.538 308.588 180.412 308.7Z" fill="white"/>
<g filter="url(#filter11_d_1564_9763)">
<path d="M197.625 207.503L186.467 252.765C186.467 252.765 166.342 286.645 162.933 303.599L181.343 310.837C181.343 310.837 194.734 278.182 198.661 272.19C200.427 269.505 202.458 267.002 204.723 264.721C206.195 263.261 207.251 261.434 207.782 259.429L216.231 227.138L197.625 207.503Z" fill="#263238"/>
</g>
<g filter="url(#filter12_d_1564_9763)">
<path d="M192.871 200.264C192.871 200.264 194.425 212.388 206.094 217.764L230.678 257.804C230.678 257.804 232.603 270.824 236.278 281.793C239.953 292.762 247.38 313.902 247.38 313.902L267.603 306.342L254.716 262.284L252.616 247.003L232.554 195.903L215.32 185.571L192.871 200.264Z" fill="#263238"/>
</g>
<path d="M192.871 200.264L193.242 200.012L194.355 199.27L198.723 196.386L215.285 185.501L215.341 185.466L215.397 185.501L232.645 195.812V195.854L252.749 246.905V246.94C253.414 251.77 254.149 256.943 254.849 262.221C258.349 274.121 262.059 286.854 265.895 299.972C266.516 302.086 267.132 304.186 267.743 306.272L267.792 306.433L267.631 306.489L247.408 314.049L247.233 314.112L247.177 313.937C243.677 303.78 240.289 294.001 237.09 284.726C236.285 282.409 235.494 280.113 234.836 277.817C234.178 275.521 233.583 273.239 233.044 270.985C231.98 266.477 231.126 262.074 230.454 257.804V257.86L206.01 217.806L206.052 217.841C203.096 216.458 200.47 214.458 198.352 211.975C196.8 210.152 195.526 208.109 194.572 205.913C193.982 204.557 193.513 203.152 193.172 201.713C193.053 201.237 192.983 200.866 192.941 200.614C192.899 200.362 192.892 200.236 192.892 200.236C192.892 200.236 192.892 200.362 192.969 200.607C193.046 200.852 193.088 201.223 193.221 201.706C193.582 203.126 194.065 204.512 194.663 205.85C195.629 208.024 196.907 210.045 198.457 211.849C200.583 214.306 203.208 216.282 206.157 217.645L230.79 257.657V257.692C231.49 261.948 232.33 266.344 233.394 270.845C233.933 273.092 234.521 275.367 235.186 277.656C235.851 279.945 236.635 282.227 237.44 284.544C240.653 293.819 244.034 303.598 247.548 313.748L247.317 313.643L267.54 306.083L267.428 306.3C266.821 304.214 266.205 302.114 265.58 300L254.548 262.242C253.848 256.964 253.106 251.791 252.448 246.961V247.003L232.421 195.903L232.477 195.966L215.257 185.613H215.362L198.8 196.449L194.39 199.291L193.256 200.026L192.871 200.264Z" fill="#455A64"/>
<g filter="url(#filter13_d_1564_9763)">
<path d="M203.7 113.765C203.7 113.765 197.806 118.301 194.943 123.369C191.513 129.438 191.142 138.433 191.037 152.405C190.932 165.327 192.864 168.918 192.122 173.79C190.659 183.303 189.574 215.23 189.574 215.23C189.574 215.23 208.474 207.971 212.142 204.73L215.831 201.524L239.484 209.343L234.71 180.279L231.434 144.054L227.234 124.839L226.534 117.3L206.22 109.138L203.7 113.765Z" fill="#455A64"/>
</g>
<path d="M225.772 116.9C226.017 116.949 225.191 118.608 223.735 121.044L223.672 121.142L223.56 121.1C221.509 120.302 218.793 119.301 215.825 118.216C212.479 116.998 209.455 115.864 207.292 114.982C206.207 114.541 205.339 114.17 204.744 113.897C204.428 113.775 204.124 113.625 203.834 113.449C204.166 113.523 204.49 113.631 204.8 113.771L207.383 114.744L215.951 117.873C218.919 118.958 221.628 119.973 223.651 120.841L223.483 120.897C225.009 118.51 225.912 116.935 225.772 116.9Z" fill="#263238"/>
<g filter="url(#filter14_d_1564_9763)">
<path d="M250.215 101.808C250.215 101.808 248.717 99.4773 247.303 97.3283C245.889 95.1793 243.747 94.1223 243.404 93.0023C243.061 91.8823 241.178 86.8913 240.877 85.6523C240.615 84.4524 240.493 83.2263 240.513 81.9983C240.513 81.9983 242.06 81.3403 242.802 83.5523C243.25 84.8823 244.678 89.3973 244.986 89.6213C245.294 89.8453 245.686 89.5163 245.686 89.5163C245.05 87.8258 244.501 86.1039 244.041 84.3573C243.971 83.5383 244.258 78.1063 244.258 78.1063C244.642 78.029 245.04 78.0916 245.382 78.283C245.724 78.4743 245.985 78.7816 246.12 79.1493C246.855 80.5493 246.883 84.0493 246.883 84.0493L247.996 87.9553L247.604 84.0913L248.164 76.9863C248.708 77.0639 249.214 77.307 249.615 77.6828C250.016 78.0585 250.291 78.5486 250.404 79.0863C250.873 81.0043 250.25 83.6783 250.565 84.2453C250.88 84.8123 251.223 88.2423 251.223 88.2423C251.223 88.2423 251.608 79.9123 252.497 79.6743C253.386 79.4363 254.114 80.3183 253.988 81.9983C253.862 83.6783 253.827 87.2343 254.289 88.8023C254.751 90.3703 259.49 96.5023 259.105 99.1903C258.869 100.814 258.722 102.45 258.664 104.09H250.544L250.215 101.808Z" fill="#FFBF9D"/>
</g>
<g filter="url(#filter15_d_1564_9763)">
<path d="M221.733 122.788C222.188 122.963 241.585 127.765 241.585 127.765C241.585 127.765 245.918 120.765 246.555 118.735C247.192 116.705 250.601 103.181 250.601 103.181L258.798 102.411C258.798 102.411 256.698 137.334 253.73 139.217C250.762 141.1 246.03 142.052 245.722 141.947C245.414 141.842 224.757 143.277 213.872 134.702C202.987 126.127 221.733 122.788 221.733 122.788Z" fill="#FFBF9D"/>
</g>
<g opacity="0.3">
<path d="M207.83 141.274C209.912 143.631 212.69 145.263 215.761 145.936C220.906 147.07 231.861 149.079 231.861 149.079L231.329 143.703L207.529 141.155" fill="black"/>
</g>
<path d="M199.192 133.883C200.956 137.607 204.876 141.583 213.493 142.486C230.552 144.25 243.467 145.188 249.046 144.348C254.625 143.508 256.844 131.699 257.446 131.335C259.182 130.243 259.07 126.491 257.572 125.371C253.316 122.186 244.783 119.771 244.209 120.03C240.814 121.717 241.92 125.665 241.92 125.665L220.29 120.891C217.799 119.854 215.2 119.099 212.541 118.637" fill="#455A64"/>
<path d="M212.541 118.637C212.541 118.637 212.723 118.637 213.073 118.707C213.423 118.777 213.948 118.861 214.62 119.008C216.571 119.45 218.482 120.055 220.332 120.814L241.948 125.518L241.766 125.714C241.446 124.473 241.545 123.162 242.046 121.983C242.323 121.379 242.741 120.851 243.264 120.443C243.53 120.236 243.813 120.053 244.111 119.897C244.214 119.866 244.319 119.85 244.426 119.848H244.685C244.86 119.848 245.014 119.904 245.182 119.932C247.842 120.561 250.437 121.44 252.931 122.557C254.246 123.13 255.516 123.799 256.732 124.559C257.033 124.755 257.334 124.972 257.635 125.182C257.946 125.418 258.2 125.722 258.377 126.071C258.719 126.758 258.896 127.515 258.895 128.283C258.913 129.06 258.74 129.829 258.391 130.523C258.198 130.881 257.925 131.19 257.593 131.426C257.509 131.468 257.453 131.65 257.383 131.818L257.201 132.343C256.739 133.743 256.277 135.241 255.717 136.683C254.984 138.751 253.91 140.681 252.539 142.395C252.042 143.046 251.409 143.58 250.683 143.96C249.958 144.34 249.157 144.556 248.339 144.593C247.814 144.67 247.289 144.684 246.771 144.726C244.671 144.852 242.655 144.824 240.66 144.768C238.665 144.712 236.712 144.607 234.815 144.488C227.206 143.998 220.381 143.305 214.655 142.71C213.287 142.59 211.927 142.394 210.581 142.122C209.387 141.866 208.216 141.51 207.081 141.058C205.243 140.344 203.558 139.284 202.118 137.936C201.219 137.076 200.446 136.093 199.822 135.017C199.599 134.648 199.404 134.261 199.241 133.862C199.241 133.862 199.437 134.261 199.885 134.982C200.532 136.031 201.316 136.989 202.216 137.831C203.655 139.15 205.332 140.181 207.158 140.869C208.295 141.307 209.465 141.652 210.658 141.898C212.001 142.155 213.356 142.34 214.718 142.451C220.444 143.018 227.269 143.683 234.864 144.159C236.768 144.271 238.714 144.369 240.702 144.418C242.69 144.467 244.727 144.495 246.785 144.376C247.296 144.327 247.821 144.313 248.332 144.236C248.842 144.209 249.346 144.112 249.83 143.949C250.797 143.576 251.651 142.959 252.308 142.157C253.649 140.477 254.7 138.584 255.416 136.557C255.976 135.157 256.431 133.68 256.893 132.238L257.089 131.692C257.089 131.608 257.159 131.517 257.201 131.419C257.227 131.365 257.257 131.313 257.292 131.265C257.319 131.231 257.349 131.201 257.383 131.174L257.432 131.132C257.723 130.931 257.962 130.665 258.132 130.355C258.459 129.705 258.618 128.983 258.594 128.255C258.596 127.547 258.436 126.847 258.125 126.211C257.972 125.91 257.755 125.647 257.488 125.441C257.187 125.238 256.9 125.021 256.599 124.832C255.401 124.077 254.146 123.415 252.847 122.851C250.38 121.739 247.814 120.862 245.182 120.233C245.021 120.233 244.86 120.163 244.706 120.149H244.475H244.321C244.046 120.296 243.783 120.467 243.537 120.66C243.05 121.028 242.658 121.508 242.396 122.06C241.932 123.167 241.837 124.394 242.123 125.56L242.186 125.805L241.941 125.749L220.36 120.919C218.527 120.147 216.635 119.52 214.704 119.043C214.004 118.882 213.521 118.77 213.171 118.7C212.821 118.63 212.541 118.637 212.541 118.637Z" fill="#263238"/>
<path d="M249.047 132.42C248.55 132.296 248.076 132.091 247.647 131.811C246.574 131.212 245.585 130.473 244.707 129.613C243.825 128.756 243.053 127.792 242.411 126.743C242.119 126.313 241.895 125.841 241.746 125.343C242.706 126.757 243.78 128.089 244.959 129.326C246.227 130.477 247.595 131.513 249.047 132.42Z" fill="#263238"/>
<path d="M96.7544 190.072C96.7544 190.072 101.094 190.303 103.754 191.99C106.414 193.677 110.754 196.281 112.539 199.529C113.358 201.02 111.027 201.335 109.879 200.467C108.731 199.599 106.96 197.975 106.085 197.772L105.21 197.576C106.008 199.382 106.898 201.146 107.877 202.861C108.78 204.261 109.564 206.585 106.855 206.697C106.855 206.697 105.021 209.077 103.173 207.313C103.173 207.313 101.731 209.469 99.4073 206.48C99.4073 206.48 98.0564 208.188 97.4894 207.537C96.9224 206.886 95.0744 205.843 94.5354 203.701C93.7311 201.206 92.7965 198.755 91.7354 196.358L96.7544 190.072Z" fill="#FFBF9D"/>
<g filter="url(#filter16_d_1564_9763)">
<path d="M59.8219 133C57.5973 133.716 55.6772 135.158 54.3689 137.095C52.7029 139.657 52.1919 144.095 52.6679 147.399C53.6759 154.364 56.8679 166.117 58.6669 173.663C59.2829 176.267 60.5499 180.929 64.2669 183.4L90.7899 199.304L97.8809 188.804L73.7029 169.099L68.9219 142.093L59.8219 133Z" fill="#455A64"/>
</g>
<path d="M55.2373 159.546C55.2737 159.634 55.3018 159.725 55.3213 159.819L55.5453 160.638C55.7343 161.38 56.0003 162.444 56.3503 163.809C57.0503 166.609 58.0443 170.585 59.2833 175.534C60.0026 178.229 61.5263 180.642 63.6513 182.45C64.8652 183.421 66.1629 184.284 67.5293 185.026L71.7923 187.602L90.8953 199.138L90.6503 199.194L93.2053 195.407L97.7413 188.666L97.7763 188.911L73.8153 169.178H73.7733V169.129C72.1913 162.472 71.0433 157.019 70.3153 153.225C69.9583 151.328 69.7063 149.851 69.5453 148.843C69.4753 148.353 69.4193 147.968 69.3773 147.695C69.3353 147.422 69.3283 147.303 69.3283 147.303C69.3663 147.429 69.3967 147.558 69.4193 147.688C69.4683 147.961 69.5383 148.339 69.6223 148.829C69.8113 149.83 70.0843 151.307 70.4763 153.197C71.2393 156.977 72.4293 162.416 74.0463 169.066L73.9973 168.989L98.0003 188.631L98.1263 188.736L98.0353 188.869L93.4993 195.61L90.9443 199.397L90.8533 199.537L90.6993 199.453L71.6243 187.882L67.3683 185.299C65.9929 184.549 64.6859 183.68 63.4623 182.702C61.3006 180.85 59.7589 178.38 59.0453 175.625C57.8483 170.662 56.8893 166.651 56.2453 163.872C55.9303 162.472 55.6783 161.429 55.5033 160.687L55.3003 159.826C55.2728 159.734 55.2517 159.64 55.2373 159.546Z" fill="#263238"/>
<path d="M55.6719 136.732C55.8365 136.624 56.019 136.546 56.2109 136.501C56.719 136.345 57.2386 136.228 57.7649 136.151C59.5206 135.881 61.3172 136.124 62.9379 136.851C64.5042 137.668 65.8347 138.873 66.8019 140.351C67.0951 140.798 67.3303 141.28 67.5019 141.786C67.577 141.967 67.6197 142.159 67.6279 142.353C67.3254 141.711 66.9768 141.091 66.5849 140.498C65.5885 139.119 64.2848 137.99 62.7769 137.201C61.2129 136.508 59.4931 136.243 57.7929 136.431C56.4839 136.536 55.6929 136.795 55.6719 136.732Z" fill="#263238"/>
</g>
<defs>
<filter id="filter0_d_1564_9763" x="17.7158" y="287.521" width="41.1348" height="50.8438" filterUnits="userSpaceOnUse" color-interpolation-filters="sRGB">
<feFlood flood-opacity="0" result="BackgroundImageFix"/>
<feColorMatrix in="SourceAlpha" type="matrix" values="0 0 0 0 0 0 0 0 0 0 0 0 0 0 0 0 0 0 127 0" result="hardAlpha"/>
<feOffset dx="-3" dy="7"/>
<feGaussianBlur stdDeviation="4.5"/>
<feComposite in2="hardAlpha" operator="out"/>
<feColorMatrix type="matrix" values="0 0 0 0 0 0 0 0 0 0 0 0 0 0 0 0 0 0 0.25 0"/>
<feBlend mode="normal" in2="BackgroundImageFix" result="effect1_dropShadow_1564_9763"/>
<feBlend mode="normal" in="SourceGraphic" in2="effect1_dropShadow_1564_9763" result="shape"/>
</filter>
<filter id="filter1_d_1564_9763" x="24.9961" y="198.159" width="75.9629" height="122.342" filterUnits="userSpaceOnUse" color-interpolation-filters="sRGB">
<feFlood flood-opacity="0" result="BackgroundImageFix"/>
<feColorMatrix in="SourceAlpha" type="matrix" values="0 0 0 0 0 0 0 0 0 0 0 0 0 0 0 0 0 0 127 0" result="hardAlpha"/>
<feOffset dx="-3" dy="7"/>
<feGaussianBlur stdDeviation="4.5"/>
<feComposite in2="hardAlpha" operator="out"/>
<feColorMatrix type="matrix" values="0 0 0 0 0 0 0 0 0 0 0 0 0 0 0 0 0 0 0.25 0"/>
<feBlend mode="normal" in2="BackgroundImageFix" result="effect1_dropShadow_1564_9763"/>
<feBlend mode="normal" in="SourceGraphic" in2="effect1_dropShadow_1564_9763" result="shape"/>
</filter>
<filter id="filter2_d_1564_9763" x="40.6299" y="179.699" width="60.9404" height="154.318" filterUnits="userSpaceOnUse" color-interpolation-filters="sRGB">
<feFlood flood-opacity="0" result="BackgroundImageFix"/>
<feColorMatrix in="SourceAlpha" type="matrix" values="0 0 0 0 0 0 0 0 0 0 0 0 0 0 0 0 0 0 127 0" result="hardAlpha"/>
<feOffset dx="-3" dy="7"/>
<feGaussianBlur stdDeviation="4.5"/>
<feComposite in2="hardAlpha" operator="out"/>
<feColorMatrix type="matrix" values="0 0 0 0 0 0 0 0 0 0 0 0 0 0 0 0 0 0 0.25 0"/>
<feBlend mode="normal" in2="BackgroundImageFix" result="effect1_dropShadow_1564_9763"/>
<feBlend mode="normal" in="SourceGraphic" in2="effect1_dropShadow_1564_9763" result="shape"/>
</filter>
<filter id="filter3_d_1564_9763" x="56.1455" y="89.54" width="49.7588" height="51.9678" filterUnits="userSpaceOnUse" color-interpolation-filters="sRGB">
<feFlood flood-opacity="0" result="BackgroundImageFix"/>
<feColorMatrix in="SourceAlpha" type="matrix" values="0 0 0 0 0 0 0 0 0 0 0 0 0 0 0 0 0 0 127 0" result="hardAlpha"/>
<feOffset dx="-3" dy="7"/>
<feGaussianBlur stdDeviation="4.5"/>
<feComposite in2="hardAlpha" operator="out"/>
<feColorMatrix type="matrix" values="0 0 0 0 0 0 0 0 0 0 0 0 0 0 0 0 0 0 0.25 0"/>
<feBlend mode="normal" in2="BackgroundImageFix" result="effect1_dropShadow_1564_9763"/>
<feBlend mode="normal" in="SourceGraphic" in2="effect1_dropShadow_1564_9763" result="shape"/>
</filter>
<filter id="filter4_d_1564_9763" x="32.0986" y="92.7891" width="40.8994" height="49.8721" filterUnits="userSpaceOnUse" color-interpolation-filters="sRGB">
<feFlood flood-opacity="0" result="BackgroundImageFix"/>
<feColorMatrix in="SourceAlpha" type="matrix" values="0 0 0 0 0 0 0 0 0 0 0 0 0 0 0 0 0 0 127 0" result="hardAlpha"/>
<feOffset dx="-3" dy="7"/>
<feGaussianBlur stdDeviation="4.5"/>
<feComposite in2="hardAlpha" operator="out"/>
<feColorMatrix type="matrix" values="0 0 0 0 0 0 0 0 0 0 0 0 0 0 0 0 0 0 0.25 0"/>
<feBlend mode="normal" in2="BackgroundImageFix" result="effect1_dropShadow_1564_9763"/>
<feBlend mode="normal" in="SourceGraphic" in2="effect1_dropShadow_1564_9763" result="shape"/>
</filter>
<filter id="filter5_d_1564_9763" x="31.084" y="82.666" width="42.4111" height="46.5391" filterUnits="userSpaceOnUse" color-interpolation-filters="sRGB">
<feFlood flood-opacity="0" result="BackgroundImageFix"/>
<feColorMatrix in="SourceAlpha" type="matrix" values="0 0 0 0 0 0 0 0 0 0 0 0 0 0 0 0 0 0 127 0" result="hardAlpha"/>
<feOffset dx="-3" dy="7"/>
<feGaussianBlur stdDeviation="4.5"/>
<feComposite in2="hardAlpha" operator="out"/>
<feColorMatrix type="matrix" values="0 0 0 0 0 0 0 0 0 0 0 0 0 0 0 0 0 0 0.25 0"/>
<feBlend mode="normal" in2="BackgroundImageFix" result="effect1_dropShadow_1564_9763"/>
<feBlend mode="normal" in="SourceGraphic" in2="effect1_dropShadow_1564_9763" result="shape"/>
</filter>
<filter id="filter6_d_1564_9763" x="197.023" y="92.79" width="52.4092" height="54.9248" filterUnits="userSpaceOnUse" color-interpolation-filters="sRGB">
<feFlood flood-opacity="0" result="BackgroundImageFix"/>
<feColorMatrix in="SourceAlpha" type="matrix" values="0 0 0 0 0 0 0 0 0 0 0 0 0 0 0 0 0 0 127 0" result="hardAlpha"/>
<feOffset dx="-3"/>
<feGaussianBlur stdDeviation="2"/>
<feComposite in2="hardAlpha" operator="out"/>
<feColorMatrix type="matrix" values="0 0 0 0 0 0 0 0 0 0 0 0 0 0 0 0 0 0 0.25 0"/>
<feBlend mode="normal" in2="BackgroundImageFix" result="effect1_dropShadow_1564_9763"/>
<feBlend mode="normal" in="SourceGraphic" in2="effect1_dropShadow_1564_9763" result="shape"/>
</filter>
<filter id="filter7_d_1564_9763" x="196.825" y="66.1875" width="35.0469" height="34.6016" filterUnits="userSpaceOnUse" color-interpolation-filters="sRGB">
<feFlood flood-opacity="0" result="BackgroundImageFix"/>
<feColorMatrix in="SourceAlpha" type="matrix" values="0 0 0 0 0 0 0 0 0 0 0 0 0 0 0 0 0 0 127 0" result="hardAlpha"/>
<feOffset dx="-3"/>
<feGaussianBlur stdDeviation="2"/>
<feComposite in2="hardAlpha" operator="out"/>
<feColorMatrix type="matrix" values="0 0 0 0 0 0 0 0 0 0 0 0 0 0 0 0 0 0 0.25 0"/>
<feBlend mode="normal" in2="BackgroundImageFix" result="effect1_dropShadow_1564_9763"/>
<feBlend mode="normal" in="SourceGraphic" in2="effect1_dropShadow_1564_9763" result="shape"/>
</filter>
<filter id="filter8_d_1564_9763" x="195.049" y="64.3926" width="33.3408" height="24.2305" filterUnits="userSpaceOnUse" color-interpolation-filters="sRGB">
<feFlood flood-opacity="0" result="BackgroundImageFix"/>
<feColorMatrix in="SourceAlpha" type="matrix" values="0 0 0 0 0 0 0 0 0 0 0 0 0 0 0 0 0 0 127 0" result="hardAlpha"/>
<feOffset dx="-3"/>
<feGaussianBlur stdDeviation="2"/>
<feComposite in2="hardAlpha" operator="out"/>
<feColorMatrix type="matrix" values="0 0 0 0 0 0 0 0 0 0 0 0 0 0 0 0 0 0 0.25 0"/>
<feBlend mode="normal" in2="BackgroundImageFix" result="effect1_dropShadow_1564_9763"/>
<feBlend mode="normal" in="SourceGraphic" in2="effect1_dropShadow_1564_9763" result="shape"/>
</filter>
<filter id="filter9_d_1564_9763" x="238.267" y="293.186" width="49.3564" height="39.416" filterUnits="userSpaceOnUse" color-interpolation-filters="sRGB">
<feFlood flood-opacity="0" result="BackgroundImageFix"/>
<feColorMatrix in="SourceAlpha" type="matrix" values="0 0 0 0 0 0 0 0 0 0 0 0 0 0 0 0 0 0 127 0" result="hardAlpha"/>
<feOffset dx="-3" dy="1"/>
<feGaussianBlur stdDeviation="2"/>
<feComposite in2="hardAlpha" operator="out"/>
<feColorMatrix type="matrix" values="0 0 0 0 0 0 0 0 0 0 0 0 0 0 0 0 0 0 0.25 0"/>
<feBlend mode="normal" in2="BackgroundImageFix" result="effect1_dropShadow_1564_9763"/>
<feBlend mode="normal" in="SourceGraphic" in2="effect1_dropShadow_1564_9763" result="shape"/>
</filter>
<filter id="filter10_d_1564_9763" x="147.824" y="287.99" width="49.9023" height="56.248" filterUnits="userSpaceOnUse" color-interpolation-filters="sRGB">
<feFlood flood-opacity="0" result="BackgroundImageFix"/>
<feColorMatrix in="SourceAlpha" type="matrix" values="0 0 0 0 0 0 0 0 0 0 0 0 0 0 0 0 0 0 127 0" result="hardAlpha"/>
<feOffset dx="-3" dy="7"/>
<feGaussianBlur stdDeviation="4.5"/>
<feComposite in2="hardAlpha" operator="out"/>
<feColorMatrix type="matrix" values="0 0 0 0 0 0 0 0 0 0 0 0 0 0 0 0 0 0 0.25 0"/>
<feBlend mode="normal" in2="BackgroundImageFix" result="effect1_dropShadow_1564_9763"/>
<feBlend mode="normal" in="SourceGraphic" in2="effect1_dropShadow_1564_9763" result="shape"/>
</filter>
<filter id="filter11_d_1564_9763" x="150.933" y="205.503" width="71.2979" height="121.334" filterUnits="userSpaceOnUse" color-interpolation-filters="sRGB">
<feFlood flood-opacity="0" result="BackgroundImageFix"/>
<feColorMatrix in="SourceAlpha" type="matrix" values="0 0 0 0 0 0 0 0 0 0 0 0 0 0 0 0 0 0 127 0" result="hardAlpha"/>
<feOffset dx="-3" dy="7"/>
<feGaussianBlur stdDeviation="4.5"/>
<feComposite in2="hardAlpha" operator="out"/>
<feColorMatrix type="matrix" values="0 0 0 0 0 0 0 0 0 0 0 0 0 0 0 0 0 0 0.25 0"/>
<feBlend mode="normal" in2="BackgroundImageFix" result="effect1_dropShadow_1564_9763"/>
<feBlend mode="normal" in="SourceGraphic" in2="effect1_dropShadow_1564_9763" result="shape"/>
</filter>
<filter id="filter12_d_1564_9763" x="185.871" y="182.571" width="82.7324" height="136.331" filterUnits="userSpaceOnUse" color-interpolation-filters="sRGB">
<feFlood flood-opacity="0" result="BackgroundImageFix"/>
<feColorMatrix in="SourceAlpha" type="matrix" values="0 0 0 0 0 0 0 0 0 0 0 0 0 0 0 0 0 0 127 0" result="hardAlpha"/>
<feOffset dx="-3" dy="1"/>
<feGaussianBlur stdDeviation="2"/>
<feComposite in2="hardAlpha" operator="out"/>
<feColorMatrix type="matrix" values="0 0 0 0 0 0 0 0 0 0 0 0 0 0 0 0 0 0 0.25 0"/>
<feBlend mode="normal" in2="BackgroundImageFix" result="effect1_dropShadow_1564_9763"/>
<feBlend mode="normal" in="SourceGraphic" in2="effect1_dropShadow_1564_9763" result="shape"/>
</filter>
<filter id="filter13_d_1564_9763" x="177.574" y="107.138" width="67.9102" height="124.092" filterUnits="userSpaceOnUse" color-interpolation-filters="sRGB">
<feFlood flood-opacity="0" result="BackgroundImageFix"/>
<feColorMatrix in="SourceAlpha" type="matrix" values="0 0 0 0 0 0 0 0 0 0 0 0 0 0 0 0 0 0 127 0" result="hardAlpha"/>
<feOffset dx="-3" dy="7"/>
<feGaussianBlur stdDeviation="4.5"/>
<feComposite in2="hardAlpha" operator="out"/>
<feColorMatrix type="matrix" values="0 0 0 0 0 0 0 0 0 0 0 0 0 0 0 0 0 0 0.25 0"/>
<feBlend mode="normal" in2="BackgroundImageFix" result="effect1_dropShadow_1564_9763"/>
<feBlend mode="normal" in="SourceGraphic" in2="effect1_dropShadow_1564_9763" result="shape"/>
</filter>
<filter id="filter14_d_1564_9763" x="233.511" y="72.9863" width="26.6162" height="35.1035" filterUnits="userSpaceOnUse" color-interpolation-filters="sRGB">
<feFlood flood-opacity="0" result="BackgroundImageFix"/>
<feColorMatrix in="SourceAlpha" type="matrix" values="0 0 0 0 0 0 0 0 0 0 0 0 0 0 0 0 0 0 127 0" result="hardAlpha"/>
<feOffset dx="-3"/>
<feGaussianBlur stdDeviation="2"/>
<feComposite in2="hardAlpha" operator="out"/>
<feColorMatrix type="matrix" values="0 0 0 0 0 0 0 0 0 0 0 0 0 0 0 0 0 0 0.25 0"/>
<feBlend mode="normal" in2="BackgroundImageFix" result="effect1_dropShadow_1564_9763"/>
<feBlend mode="normal" in="SourceGraphic" in2="effect1_dropShadow_1564_9763" result="shape"/>
</filter>
<filter id="filter15_d_1564_9763" x="203.474" y="98.4111" width="56.3242" height="47.5674" filterUnits="userSpaceOnUse" color-interpolation-filters="sRGB">
<feFlood flood-opacity="0" result="BackgroundImageFix"/>
<feColorMatrix in="SourceAlpha" type="matrix" values="0 0 0 0 0 0 0 0 0 0 0 0 0 0 0 0 0 0 127 0" result="hardAlpha"/>
<feOffset dx="-3"/>
<feGaussianBlur stdDeviation="2"/>
<feComposite in2="hardAlpha" operator="out"/>
<feColorMatrix type="matrix" values="0 0 0 0 0 0 0 0 0 0 0 0 0 0 0 0 0 0 0.25 0"/>
<feBlend mode="normal" in2="BackgroundImageFix" result="effect1_dropShadow_1564_9763"/>
<feBlend mode="normal" in="SourceGraphic" in2="effect1_dropShadow_1564_9763" result="shape"/>
</filter>
<filter id="filter16_d_1564_9763" x="40.498" y="131" width="63.3828" height="84.3037" filterUnits="userSpaceOnUse" color-interpolation-filters="sRGB">
<feFlood flood-opacity="0" result="BackgroundImageFix"/>
<feColorMatrix in="SourceAlpha" type="matrix" values="0 0 0 0 0 0 0 0 0 0 0 0 0 0 0 0 0 0 127 0" result="hardAlpha"/>
<feOffset dx="-3" dy="7"/>
<feGaussianBlur stdDeviation="4.5"/>
<feComposite in2="hardAlpha" operator="out"/>
<feColorMatrix type="matrix" values="0 0 0 0 0 0 0 0 0 0 0 0 0 0 0 0 0 0 0.25 0"/>
<feBlend mode="normal" in2="BackgroundImageFix" result="effect1_dropShadow_1564_9763"/>
<feBlend mode="normal" in="SourceGraphic" in2="effect1_dropShadow_1564_9763" result="shape"/>
</filter>
<clipPath id="clip0_1564_9763">
<rect width="349.3" height="350" fill="white"/>
</clipPath>
</defs>
</svg>
