<svg width="368" height="188" viewBox="0 0 368 188" fill="none" xmlns="http://www.w3.org/2000/svg">
<path d="M331.506 187.179C331.405 187.373 331.303 187.567 331.2 187.761L20.7382 187.667C20.7382 187.667 20.5899 187.509 20.3144 187.197L20.2974 187.179C12.245 177.963 4.93854 164.333 1.83343 150.858C-2.69428 131.349 1.12709 112.209 13.71 94.5637C27.5545 75.1425 46.4621 59.7167 70.4356 60.0238H70.4582C83.2446 60.1935 95.4842 64.8549 106.2 71.9844C116.381 78.7606 134.03 71.6801 144.672 64.4117C157.134 55.9401 167.686 43.5419 175.799 30.8955C204.453 -13.674 271.791 -5.80117 303.599 27.7431C320.488 45.5207 327.128 69.6467 319.978 97.4399C318.636 102.657 317.884 108.098 318.202 113.49C319.895 142.896 351.173 149.425 331.506 187.179Z" fill="#707071"/>
<g opacity="0.5">
<path d="M319.976 97.4363C319.439 99.5044 319.009 101.599 318.689 103.71C318.465 105.213 318.31 106.662 318.222 108.058V108.149H196.398V27.7437H303.597C305.022 29.2395 306.381 30.7966 307.675 32.4149C320.729 48.7046 326.853 70.7117 319.976 97.4363Z" fill="#D8E8FC"/>
<path d="M319.976 97.4364C319.439 99.5046 319.009 101.599 318.689 103.711H201.459V32.415H307.675C320.729 48.7047 326.853 70.7118 319.976 97.4364Z" fill="#B1D2F9"/>
<path d="M318.199 113.486C318.097 111.71 318.103 109.931 318.217 108.157V108.065H193.431C192.206 108.072 191.032 108.551 190.157 109.402C189.282 110.253 188.776 111.409 188.745 112.624C188.745 112.672 188.745 112.718 188.745 112.765V113.488L318.199 113.486Z" fill="#B1D2F9"/>
</g>
<path d="M207.519 99.6721C207.519 99.6721 203.654 98.2025 201.425 100.055C199.196 101.907 197.669 111.441 198.433 113.219C199.197 114.997 201.425 116.056 201.425 116.056C201.425 116.056 200.959 115.008 201.128 114.193C201.128 114.193 201.766 116.254 203.464 116.646C205.162 117.039 211.209 116.554 212.379 116.056C213.731 115.482 214.498 114.888 214.842 113.219C215.185 111.55 216.544 96.7342 207.519 99.6721Z" fill="#B5493F"/>
<path d="M226.22 187.162C226.19 187.164 226.161 187.164 226.131 187.162C226.02 187.167 225.91 187.134 225.82 187.07C225.73 187.006 225.664 186.913 225.632 186.807L219.97 162.507L219.559 160.737L221.495 160.653L222.127 163.966L226.493 186.824C226.498 186.864 226.496 186.905 226.485 186.944C226.474 186.983 226.455 187.02 226.43 187.051C226.404 187.083 226.373 187.109 226.336 187.128C226.3 187.147 226.261 187.159 226.22 187.162V187.162Z" fill="#E5BD9E"/>
<path d="M197.448 160.742L196.515 164.741L191.373 186.813C191.342 186.919 191.276 187.012 191.185 187.076C191.094 187.14 190.984 187.173 190.873 187.168C190.843 187.17 190.814 187.17 190.784 187.168C190.744 187.164 190.705 187.152 190.67 187.133C190.634 187.114 190.603 187.089 190.578 187.058C190.553 187.026 190.534 186.991 190.523 186.952C190.512 186.914 190.509 186.873 190.514 186.834L195.166 162.464L195.512 160.663L197.448 160.742Z" fill="#E5BD9E"/>
<path d="M197.448 160.742L196.515 164.741C196.487 164.282 196.351 163.836 196.116 163.439C195.882 163.043 195.556 162.707 195.166 162.458L195.512 160.658L197.448 160.742Z" fill="#CC9E7F"/>
<path d="M222.123 163.97C221.165 162.568 220.004 162.568 219.967 162.513L219.556 160.744L221.492 160.66L222.123 163.97Z" fill="#CC9E7F"/>
<path d="M193.597 160.917H221.637C222.302 160.917 222.94 160.655 223.411 160.188C223.881 159.721 224.146 159.087 224.146 158.427V156.427C224.146 155.766 223.881 155.132 223.41 154.665C222.939 154.198 222.301 153.935 221.635 153.935H193.597C192.931 153.935 192.293 154.198 191.822 154.665C191.351 155.132 191.087 155.766 191.087 156.427V158.428C191.087 158.755 191.152 159.079 191.278 159.381C191.405 159.683 191.59 159.958 191.823 160.189C192.056 160.42 192.333 160.603 192.637 160.728C192.942 160.853 193.268 160.918 193.597 160.917V160.917Z" fill="#C65447"/>
<path d="M217.429 145.716C216.598 141.124 214.179 135.899 214.179 135.899C215.94 128.579 214.143 120.347 214.143 120.347C213.174 120.089 212.189 119.902 211.193 119.786C211.069 119.133 210.713 117.168 210.561 115.477C210.545 115.28 210.531 115.088 210.519 114.901C210.488 114.475 210.486 114.048 210.512 113.622L209.273 113.703L204.169 114.041L203.953 114.055C203.953 114.055 203.984 114.509 203.991 115.195C204.008 116.425 203.947 118.395 203.502 119.807C201.307 120.033 199.819 120.351 199.819 120.351C198.382 120.594 198.689 129.475 201.373 136.379C202.609 139.557 199.113 144.475 199.113 145.719C199.113 146.962 217.729 147.375 217.429 145.716Z" fill="#FFB27D"/>
<path d="M210.557 115.474C210.078 116.035 208.862 117.236 207.331 117.263C205.326 117.298 203.987 115.192 203.987 115.192C204.019 114.804 204.079 114.418 204.165 114.038L209.269 113.7C209.704 114.078 210.12 114.478 210.515 114.898C210.527 115.084 210.541 115.276 210.557 115.474Z" fill="#EF9E67"/>
<path d="M207.295 116.073C204.518 116.073 202.245 113.794 202.245 111.009V106.789C202.243 105.89 202.6 105.027 203.237 104.388C203.875 103.749 204.741 103.386 205.647 103.379H208.71C209.615 103.386 210.482 103.749 211.119 104.388C211.756 105.027 212.113 105.89 212.111 106.789V111.243C212.114 112.517 211.609 113.739 210.707 114.644C209.804 115.549 208.578 116.063 207.295 116.073V116.073Z" fill="#FFB27D"/>
<path d="M205.626 112.928C205.626 112.928 205.731 113.598 207.37 113.62C207.37 113.62 208.746 113.639 208.758 112.919C208.758 112.914 207.47 112.298 205.626 112.928Z" fill="white"/>
<path d="M193.566 153.934C193.566 153.934 196.957 146.049 200.074 144.507C203.192 142.966 215.572 144.335 217.431 145.716C219.29 147.098 221.669 153.934 221.669 153.934H193.566Z" fill="#22356B"/>
<path d="M196.664 153.933C196.664 153.933 197.876 149.203 200.572 148.997C203.267 148.791 206.865 151.293 208.144 150.618C209.422 149.944 211.865 148.257 214.131 148.687C216.397 149.118 219.806 153.933 219.806 153.933H196.664Z" fill="#1B2E59"/>
<path d="M211.441 183.415L208.235 183.642C208.235 183.642 206.435 178.594 204.42 172.704C204.234 172.153 204.042 171.595 203.855 171.031C202.192 166.123 200.49 160.9 199.617 157.669C199.408 156.895 199.251 156.193 199.142 155.553C198.172 149.969 200.671 149.355 201.261 149.209C201.927 149.048 205.94 146.909 208.667 154.117C209.588 156.543 211.085 163.293 211.037 169.683C211.005 175.824 211.441 183.415 211.441 183.415Z" fill="#FFB27D"/>
<path d="M204.427 172.706C204.24 172.155 204.048 171.597 203.862 171.033C202.199 166.125 200.497 160.903 199.624 157.672C199.415 156.898 199.258 156.195 199.149 155.556C199.232 155.783 204.61 170.255 209.203 171.087C212.15 171.621 207.901 172.291 204.427 172.706Z" fill="#EF9E67"/>
<path d="M211.441 183.415L208.226 184.117L207.407 184.297C207.407 184.297 206.082 177.61 203.858 171.033C205.274 171.108 206.694 170.972 208.069 170.627C208.99 170.405 209.886 170.092 210.745 169.693C211.402 176.499 211.441 183.415 211.441 183.415Z" fill="#E9F3FE"/>
<path d="M208.229 184.118L207.41 184.299C207.41 184.299 206.085 177.611 203.861 171.034C205.277 171.11 206.697 170.973 208.072 170.629C208.072 170.629 206.996 180.494 208.229 184.118Z" fill="#C7DCF2"/>
<path d="M212.159 185.186C212.201 185.337 212.238 185.478 212.269 185.606C212.287 185.674 212.29 185.744 212.28 185.813C212.269 185.881 212.245 185.947 212.208 186.007C212.172 186.066 212.124 186.117 212.067 186.158C212.01 186.198 211.945 186.227 211.877 186.242L208.14 187.045C208.007 187.073 207.868 187.049 207.754 186.976C207.639 186.904 207.558 186.789 207.528 186.658C207.476 186.421 207.436 186.182 207.408 185.942C207.342 185.397 207.342 184.846 207.408 184.301C207.417 184.224 207.444 184.15 207.487 184.084C207.53 184.019 207.587 183.964 207.654 183.924C209.383 182.915 210.662 183.083 211.138 183.196C211.201 183.211 211.261 183.239 211.313 183.277C211.365 183.316 211.409 183.364 211.443 183.419C211.753 183.977 211.994 184.57 212.159 185.186V185.186Z" fill="#22356B"/>
<path d="M211.268 183.325C211.268 183.325 210.652 182.676 209.37 182.81C208.998 182.848 208.641 182.977 208.331 183.184C208.021 183.391 207.767 183.671 207.592 183.999L207.424 184.229C207.447 184.179 207.95 182.751 209.348 182.604C209.739 182.551 210.136 182.598 210.503 182.74C210.87 182.881 211.195 183.114 211.446 183.415L211.268 183.325Z" fill="#22356B"/>
<path d="M212.159 185.187C212.201 185.338 212.238 185.478 212.269 185.607C212.287 185.674 212.29 185.745 212.28 185.813C212.269 185.882 212.245 185.948 212.208 186.007C212.172 186.066 212.124 186.118 212.067 186.158C212.01 186.199 211.945 186.227 211.877 186.242L208.14 187.046C208.007 187.074 207.868 187.049 207.754 186.977C207.639 186.905 207.558 186.79 207.528 186.659C207.476 186.422 207.436 186.183 207.408 185.942C207.408 185.942 207.832 186.734 210.105 186.214C211.474 185.896 211.977 185.471 212.159 185.187Z" fill="#22356B"/>
<path d="M223.028 139.71L217.849 139.794C217.452 138.891 216.761 135.88 216.077 134.063C216.332 135.173 216.582 136.319 216.815 137.445C217.729 141.818 218.421 145.929 218.314 146.81C218.068 148.815 210.253 147.912 208.238 147.43C206.224 146.947 201.644 148.051 197.979 147.981C195.873 147.942 196.519 142.057 197.447 137.073C197.667 135.877 197.907 134.732 198.129 133.733C196.945 136.095 196.407 139.007 196.12 139.794C196.12 139.794 191.061 139.467 191.06 139.455C190.887 138.557 192.793 124.363 196.668 121.463C197.445 120.846 198.341 120.394 199.3 120.134C200.26 119.874 201.263 119.812 202.247 119.952C202.247 119.952 203.518 122.223 207.191 122.394C208.249 122.453 209.306 122.272 210.282 121.864C211.258 121.456 212.128 120.831 212.824 120.039C212.824 120.039 215.894 120.115 217.134 121.463C218.374 122.81 221.124 127.641 223.028 139.71Z" fill="#2B478B"/>
<path d="M218.31 146.809C218.064 148.815 210.249 147.912 208.235 147.429C206.22 146.947 201.64 148.05 197.976 147.98C195.869 147.941 196.515 142.057 197.443 137.073C197.443 137.073 201.414 144.044 206.364 143.996C211.315 143.948 216.818 137.444 216.818 137.444C217.73 141.817 218.418 145.929 218.31 146.809Z" fill="#233F77"/>
<path d="M203.794 118.472C203.794 118.472 205.517 121.864 207.195 122.398C207.195 122.398 204.809 123.302 201.331 119.887C201.58 119.457 201.94 119.101 202.372 118.853C202.804 118.604 203.295 118.473 203.794 118.472V118.472Z" fill="#E6F1FF"/>
<path d="M211.025 118.472C211.025 118.472 208.871 121.864 207.194 122.398C207.194 122.398 209.942 123.5 213.42 120.085C213.42 120.08 212.797 118.51 211.025 118.472Z" fill="#E6F1FF"/>
<path d="M206.951 122.384C206.952 122.33 206.97 122.279 207.001 122.235C207.032 122.191 207.076 122.158 207.126 122.138C207.176 122.119 207.231 122.115 207.283 122.126C207.336 122.138 207.384 122.164 207.422 122.203C207.459 122.241 207.484 122.29 207.494 122.342C207.504 122.395 207.498 122.449 207.477 122.498C207.456 122.547 207.421 122.589 207.376 122.619C207.331 122.648 207.279 122.664 207.225 122.664C207.151 122.662 207.082 122.631 207.031 122.579C206.979 122.527 206.951 122.457 206.951 122.384Z" fill="#35488B"/>
<path d="M206.673 129.359C206.674 129.257 206.705 129.157 206.763 129.072C206.821 128.987 206.902 128.921 206.998 128.882C207.094 128.843 207.199 128.833 207.3 128.854C207.401 128.874 207.494 128.924 207.567 128.996C207.64 129.069 207.689 129.161 207.709 129.262C207.729 129.362 207.719 129.467 207.679 129.561C207.64 129.656 207.572 129.737 207.487 129.794C207.401 129.85 207.3 129.881 207.196 129.881C207.057 129.88 206.924 129.825 206.826 129.727C206.728 129.629 206.673 129.497 206.673 129.359V129.359Z" fill="#233F77"/>
<path d="M206.673 137.742C206.674 137.639 206.706 137.539 206.764 137.455C206.822 137.37 206.903 137.304 206.999 137.265C207.095 137.227 207.2 137.217 207.301 137.238C207.402 137.258 207.495 137.308 207.568 137.38C207.64 137.453 207.69 137.546 207.709 137.646C207.729 137.747 207.719 137.851 207.679 137.945C207.639 138.04 207.572 138.121 207.486 138.177C207.4 138.234 207.3 138.265 207.196 138.265C207.057 138.264 206.924 138.208 206.826 138.11C206.728 138.012 206.673 137.88 206.673 137.742Z" fill="#233F77"/>
<path d="M222.111 153.428L222.125 151.97C222.125 151.97 224.134 139.583 222.742 139.2C221.35 138.817 218.731 140.134 218.731 140.134L219.556 151.97C219.543 152.242 219.502 152.512 219.436 152.776C219.401 152.785 219.366 152.79 219.332 152.8C217.966 153.19 218.786 156.007 219.805 156.058C220.552 156.094 221.519 154.97 222.174 154.584C222.459 154.41 222.376 153.626 222.111 153.428Z" fill="#EF9E67"/>
<path d="M217.845 139.793C217.845 139.793 217.522 141.539 218.32 141.794C219.118 142.049 223.195 142.178 223.449 141.794C223.704 141.41 223.35 138.481 222.743 138.265C222.135 138.049 218.225 138.844 217.845 139.793Z" fill="#233F77"/>
<path d="M195.234 140.133L194.41 151.969H191.842C191.842 151.969 189.832 139.582 191.223 139.199C192.615 138.816 195.234 140.133 195.234 140.133Z" fill="#FFB27D"/>
<path d="M191.793 154.583C191.51 154.416 191.591 153.626 191.856 153.427C192.489 152.951 193.649 152.519 194.634 152.799C196 153.189 195.179 156.006 194.161 156.056C193.413 156.093 192.446 154.971 191.793 154.583Z" fill="#FFB27D"/>
<path d="M191.838 151.968L191.856 153.976C192.185 153.945 194.044 154.64 194.622 153.876C194.847 153.578 194.43 152.791 194.406 151.968C194.331 149.502 191.838 151.968 191.838 151.968Z" fill="#FFB27D"/>
<path d="M196.118 139.793C196.118 139.793 196.441 141.539 195.643 141.794C194.845 142.049 190.768 142.178 190.514 141.794C190.259 141.41 190.614 138.481 191.22 138.265C191.826 138.049 195.741 138.844 196.118 139.793Z" fill="#233F77"/>
<path d="M207.841 104.046C207.841 104.046 208.6 106.76 210.561 107.525C210.561 107.525 209.657 105.962 209.974 105.195C209.974 105.195 210.843 108.26 212.113 109.313C212.113 109.313 213.921 102.961 208.764 102.641C203.606 102.321 201.536 105.036 201.505 106.988C201.492 108.178 201.745 109.356 202.247 110.437C202.247 110.437 202.812 106.829 205.072 105.775C207.333 104.722 207.841 104.046 207.841 104.046Z" fill="#B5493F"/>
<path d="M213.193 171.042C211.135 177.834 208.955 184.243 208.955 184.243L205.282 183.485C205.282 183.485 205.662 177.572 205.773 171.017C205.783 170.497 205.841 169.974 205.878 169.448C206.214 164.499 206.62 159.387 207.028 156.229C208.035 148.467 211.113 148.937 211.79 149.051C212.467 149.164 216.99 148.728 216.754 156.426C216.678 158.926 214.981 165.13 213.193 171.042Z" fill="#FFB27D"/>
<path d="M205.775 171.017C205.809 170.497 205.843 169.973 205.88 169.448C206.216 164.499 206.622 159.387 207.03 156.229C207.03 156.229 206.545 169.757 211.028 171.272C213.992 172.275 209.296 171.592 205.775 171.017Z" fill="#EF9E67"/>
<path d="M213.195 171.042C212.025 174.899 210.817 178.629 209.992 181.139C209.364 183.048 208.955 184.247 208.955 184.247L205.051 183.529C205.051 183.529 205.333 177.538 206.153 169.94C206.655 170.239 207.831 170.624 210.249 170.861C211.077 170.94 212.052 171.006 213.195 171.042Z" fill="#E9F3FE"/>
<path d="M208.974 186.4C208.959 186.557 208.942 186.7 208.923 186.827C208.915 186.896 208.892 186.963 208.857 187.022C208.822 187.082 208.775 187.135 208.719 187.176C208.663 187.217 208.599 187.247 208.532 187.263C208.464 187.28 208.393 187.282 208.324 187.27L204.557 186.626C204.423 186.603 204.303 186.528 204.224 186.419C204.145 186.309 204.112 186.173 204.133 186.039C204.171 185.8 204.222 185.563 204.285 185.329C204.426 184.799 204.63 184.288 204.893 183.806C204.93 183.738 204.982 183.678 205.046 183.633C205.11 183.588 205.183 183.559 205.26 183.547C207.238 183.254 208.368 183.878 208.764 184.168C208.817 184.205 208.863 184.253 208.897 184.308C208.932 184.363 208.955 184.425 208.966 184.489C209.047 185.123 209.05 185.765 208.974 186.4Z" fill="#35488B"/>
<path d="M208.832 184.339C208.832 184.331 208.5 183.508 207.26 183.156C206.901 183.052 206.523 183.039 206.158 183.116C205.794 183.193 205.454 183.358 205.169 183.597L204.927 183.747C204.968 183.709 205.964 182.571 207.316 182.957C207.699 183.053 208.051 183.244 208.339 183.512C208.627 183.78 208.842 184.116 208.963 184.489L208.832 184.339Z" fill="#35488B"/>
<path d="M208.974 186.401C208.958 186.558 208.941 186.701 208.923 186.829C208.914 186.898 208.892 186.964 208.857 187.024C208.822 187.084 208.775 187.136 208.719 187.177C208.663 187.219 208.599 187.248 208.531 187.265C208.463 187.281 208.393 187.283 208.324 187.272L204.556 186.627C204.422 186.604 204.303 186.53 204.223 186.42C204.144 186.31 204.111 186.174 204.132 186.041C204.17 185.801 204.221 185.564 204.285 185.33C204.285 185.33 204.391 186.226 206.686 186.592C208.074 186.805 208.691 186.598 208.974 186.401Z" fill="#35488B"/>
<path d="M118.571 187.277C118.571 187.277 118.54 183.492 120.211 183.199C121.883 182.906 124.308 181.993 124.642 187.277H118.571Z" fill="#22356B"/>
<path d="M130.926 187.277C130.926 187.277 130.897 183.492 132.566 183.199C134.236 182.906 136.663 181.993 136.998 187.277H130.926Z" fill="#22356B"/>
<path d="M115.791 146.92C114.812 149.191 114.168 151.59 113.878 154.044H137.462C137.462 154.044 135.302 147.118 133.365 146.352C131.428 145.586 115.791 146.92 115.791 146.92Z" fill="#1B2E59"/>
<path d="M120.566 112.901C120.566 112.901 118.371 109.906 116.921 107.501C115.191 104.631 116.158 100.015 122.457 99.036C122.457 99.036 124.482 98.6055 125.058 98.0698C125.058 98.0698 125.029 98.8187 124.848 99.0178C124.848 99.0178 129.866 98.3629 130.226 100.6C131.328 107.443 130.041 109.941 130.041 109.941L120.566 112.901Z" fill="#B5493F"/>
<path d="M144.575 187.273C144.546 187.275 144.517 187.275 144.488 187.273C144.377 187.278 144.267 187.246 144.176 187.182C144.085 187.117 144.019 187.025 143.988 186.918L138.326 162.619L137.915 160.849L139.85 160.765L140.483 164.077L144.848 186.935C144.854 186.975 144.851 187.016 144.84 187.055C144.83 187.095 144.811 187.131 144.785 187.163C144.76 187.194 144.728 187.221 144.692 187.24C144.656 187.259 144.616 187.27 144.575 187.273V187.273Z" fill="#E5BD9E"/>
<path d="M115.798 160.853L114.865 164.852L109.723 186.924C109.692 187.03 109.626 187.123 109.535 187.187C109.444 187.252 109.334 187.284 109.223 187.279C109.194 187.281 109.164 187.281 109.134 187.279C109.094 187.275 109.055 187.264 109.02 187.245C108.984 187.226 108.953 187.2 108.928 187.169C108.903 187.138 108.884 187.102 108.873 187.063C108.862 187.025 108.859 186.985 108.864 186.945L113.516 162.575L113.862 160.774L115.798 160.853Z" fill="#E5BD9E"/>
<path d="M115.798 160.852L114.865 164.851C114.838 164.392 114.701 163.946 114.466 163.549C114.232 163.153 113.906 162.817 113.516 162.568L113.862 160.768L115.798 160.852Z" fill="#CC9E7F"/>
<path d="M140.479 164.086C139.522 162.684 138.36 162.684 138.324 162.629L137.913 160.86L139.848 160.775L140.479 164.086Z" fill="#CC9E7F"/>
<path d="M139.992 161.028H111.954C110.567 161.028 109.443 159.913 109.443 158.536V156.537C109.443 155.16 110.567 154.045 111.954 154.045H139.992C141.378 154.045 142.502 155.16 142.502 156.537V158.536C142.502 159.913 141.378 161.028 139.992 161.028Z" fill="#A03530"/>
<path d="M135.785 145.827C134.954 141.235 132.535 136.01 132.535 136.01C134.296 128.69 132.499 120.458 132.499 120.458C131.53 120.199 130.544 120.012 129.547 119.897C129.425 119.244 129.069 117.279 128.917 115.586C128.902 115.39 128.888 115.198 128.875 115.011C128.846 114.586 128.846 114.158 128.875 113.732L127.636 113.814L122.532 114.152L122.316 114.166C122.316 114.166 122.347 114.62 122.355 115.304C122.37 116.536 122.31 118.505 121.865 119.918C119.67 120.144 118.182 120.462 118.182 120.462C116.746 120.705 117.052 129.586 119.736 136.49C120.972 139.667 117.476 144.586 117.476 145.829C117.476 147.073 136.084 147.486 135.785 145.827Z" fill="#FFB27D"/>
<path d="M128.914 115.583C128.435 116.144 127.219 117.347 125.687 117.374C123.683 117.409 122.345 115.301 122.345 115.301C122.377 114.914 122.436 114.529 122.522 114.149L127.626 113.811C128.061 114.188 128.478 114.586 128.873 115.004C128.884 115.195 128.899 115.387 128.914 115.583Z" fill="#EF9E67"/>
<path d="M126.314 115.974C125.661 116.099 124.988 116.094 124.336 115.961C123.684 115.827 123.065 115.568 122.514 115.197C121.963 114.826 121.491 114.351 121.125 113.799C120.759 113.247 120.506 112.629 120.381 111.98L119.572 107.839C119.398 106.955 119.583 106.039 120.085 105.29C120.588 104.54 121.367 104.018 122.256 103.835L125.262 103.243C126.151 103.075 127.07 103.264 127.819 103.769C128.568 104.274 129.084 105.052 129.254 105.935L130.102 110.306C130.348 111.555 130.088 112.85 129.379 113.911C128.671 114.972 127.569 115.713 126.314 115.974Z" fill="#FFB27D"/>
<path d="M124.068 113.209C124.068 113.209 124.299 113.845 125.904 113.551C125.904 113.551 127.259 113.304 127.132 112.589C127.144 112.589 125.763 112.234 124.068 113.209Z" fill="white"/>
<path d="M142.784 142.421L138.335 140.192L136.996 139.52C136.599 138.617 135.261 135.792 134.432 134.173C134.617 134.982 134.801 135.811 134.977 136.637C135.042 136.944 135.106 137.25 135.171 137.556C136.083 141.927 136.775 146.04 136.668 146.921C136.422 148.926 128.607 148.023 126.593 147.541C124.578 147.058 119.998 148.162 116.334 148.09C114.227 148.052 114.873 142.168 115.801 137.183C116.021 135.988 116.263 134.842 116.483 133.844C115.3 136.207 114.082 138.7 113.789 139.487L111.266 140.818L108.476 142.289L108.404 142.328C108.398 142.316 108.394 142.303 108.393 142.29V142.29C108.223 141.381 111.297 124.566 115.174 121.667C115.174 121.593 115.193 121.519 115.23 121.454C115.268 121.389 115.321 121.335 115.386 121.297C116.909 120.252 118.771 119.812 120.604 120.063C120.604 120.063 121.876 122.335 125.549 122.507C126.606 122.566 127.664 122.384 128.64 121.976C129.616 121.567 130.485 120.943 131.181 120.15C131.181 120.15 132.98 120.195 134.378 120.82C134.797 120.995 135.175 121.251 135.491 121.575C136.715 122.901 142.659 134.291 142.784 142.421Z" fill="#A53A35"/>
<path d="M137.186 139.316C137.186 139.316 130.877 146.076 127.804 148.352L128.783 150.371C128.783 150.371 138.531 146.673 142.643 141.483L137.186 139.316Z" fill="#0052B4"/>
<path d="M128.599 147.877C128.599 147.877 126.002 148.605 125.58 149.419C125.157 150.234 125.335 152.539 125.991 152.155C126.646 151.77 130.257 149.391 130.257 149.391L128.599 147.877Z" fill="#0052B4"/>
<path d="M122.152 118.583C122.152 118.583 123.874 121.975 125.551 122.509C125.551 122.509 123.167 123.413 119.689 119.998C119.938 119.568 120.297 119.212 120.73 118.963C121.162 118.715 121.653 118.584 122.152 118.583V118.583Z" fill="#E6F1FF"/>
<path d="M129.383 118.583C129.383 118.583 127.229 121.975 125.55 122.509C125.55 122.509 128.376 123.413 131.847 119.998C131.597 119.569 131.238 119.212 130.805 118.964C130.373 118.715 129.882 118.584 129.383 118.583Z" fill="#E6F1FF"/>
<path d="M113.808 139.316C113.808 139.316 120.374 145.825 123.533 147.979L122.631 150.036C122.631 150.036 113.317 146.861 109.006 141.835L113.808 139.316Z" fill="#FFB27D"/>
<path d="M121.187 147.398C121.187 147.398 123.872 147.584 124.454 148.287C125.036 148.991 125.325 151.293 124.608 151.051C123.89 150.808 119.869 149.216 119.869 149.216L121.187 147.398Z" fill="#FFB27D"/>
<path d="M125.03 129.47C125.031 129.367 125.062 129.267 125.12 129.182C125.178 129.098 125.26 129.032 125.356 128.993C125.452 128.955 125.557 128.945 125.658 128.966C125.759 128.986 125.852 129.036 125.924 129.109C125.997 129.182 126.046 129.274 126.066 129.375C126.086 129.476 126.075 129.58 126.035 129.674C125.995 129.769 125.928 129.849 125.842 129.906C125.756 129.963 125.655 129.993 125.551 129.993C125.412 129.991 125.279 129.936 125.182 129.838C125.084 129.74 125.029 129.607 125.03 129.47V129.47Z" fill="#C65447"/>
<path d="M125.03 137.852C125.031 137.75 125.062 137.65 125.12 137.565C125.178 137.48 125.26 137.415 125.356 137.376C125.452 137.337 125.557 137.328 125.658 137.348C125.759 137.369 125.852 137.419 125.924 137.492C125.997 137.565 126.046 137.657 126.066 137.758C126.086 137.858 126.075 137.963 126.035 138.057C125.995 138.152 125.928 138.232 125.842 138.289C125.756 138.346 125.655 138.376 125.551 138.375C125.412 138.374 125.279 138.319 125.182 138.221C125.084 138.123 125.029 137.99 125.03 137.852V137.852Z" fill="#C65447"/>
<path d="M119.574 107.839C119.574 107.839 119.726 106.156 120.8 105.887C121.873 105.618 125.873 107.047 126.733 105.887C127.594 104.727 128.246 104.238 128.827 104.821C129.407 105.404 128.998 101.315 128.856 101.262C128.715 101.209 119.815 101.695 119.815 101.695L117.696 103.939L117.805 106.488L119.574 107.839Z" fill="#B5493F"/>
<path d="M125.815 183.757C125.815 183.757 124.311 184.384 122.024 184.401C120.402 184.412 118.793 184.116 117.283 183.53C117.283 183.53 115.963 174.267 115.175 166.344C114.729 161.838 114.452 157.766 114.688 156.077C115.337 151.42 117.451 148.729 120.118 148.953C122.785 149.178 125.279 151.03 125.464 153.278C125.649 155.526 125.815 183.757 125.815 183.757Z" fill="#2B478B"/>
<path d="M117.467 130.326L116.478 133.844C115.4 137.006 114.076 138.7 113.784 139.487L111.261 140.818L108.47 142.289H108.387C108.006 140.431 111.145 124.479 115.017 121.573C115.131 121.474 115.251 121.38 115.376 121.293C116.63 123.659 118.927 128.573 117.467 130.326Z" fill="#E6F1FF"/>
<path d="M115.788 140.779L114.542 141.868L111.327 144.673C109.548 144.533 108.264 142.418 108.264 142.418C108.893 141.41 109.852 140.676 110.807 140.153C111.808 139.614 112.883 139.223 113.998 138.992L115.788 140.779Z" fill="#E6F1FF"/>
<path d="M115.788 140.778L114.542 141.867C112.382 141.851 110.805 140.156 110.805 140.156C111.806 139.616 112.882 139.225 113.997 138.995L115.788 140.778Z" fill="#C7DCF2"/>
<path d="M134.381 120.819C134.805 121.01 135.315 121.229 135.607 121.546C136.001 121.975 136.831 123.489 137.855 125.571C140.002 129.929 142.7 136.93 142.784 142.421L140.184 141.118L138.335 140.193L136.996 139.521C136.208 138.234 135.124 135.861 134.432 134.174C134.617 134.983 134.801 135.812 134.977 136.638L133.047 129.47C132.188 128.203 134 122.063 134.381 120.819Z" fill="#E6F1FF"/>
<path d="M142.784 142.421C142.784 142.421 141.498 144.537 139.721 144.675L136.066 141.482L135.261 140.781L136.784 139.048C137.627 139.2 138.452 139.439 139.246 139.759C140.512 140.268 141.963 141.104 142.784 142.421Z" fill="#E6F1FF"/>
<path d="M139.246 139.759C139.246 139.759 137.529 141.266 136.066 141.482L135.26 140.781L136.783 139.048C137.626 139.2 138.452 139.439 139.246 139.759V139.759Z" fill="#C7DCF2"/>
<path d="M136.827 175.942C137.101 179.8 137.262 182.622 137.262 182.622C133.002 185.335 128.941 184.533 128.941 184.533C128.941 184.533 124.773 163.122 123.587 156.422C123.423 155.499 123.317 154.855 123.286 154.584C123.025 152.341 125.106 150.034 127.676 149.286C130.245 148.539 132.848 150.757 134.401 155.196C135.412 158.081 136.316 168.79 136.827 175.942Z" fill="#2B478B"/>
<path d="M136.827 175.942C137.101 179.8 137.262 182.621 137.262 182.621C133.002 185.335 128.941 184.533 128.941 184.533C128.941 184.533 124.773 163.122 123.587 156.421C123.607 155.742 123.62 155.34 123.621 155.288C123.675 155.712 126.197 175.248 136.827 175.942Z" fill="#233F77"/>
<path d="M122.024 184.401C120.402 184.412 118.793 184.116 117.283 183.53C117.283 183.53 115.963 174.268 115.175 166.344C115.22 166.563 117.955 179.88 122.024 184.401Z" fill="#233F77"/>
<path d="M137.852 125.57C140 129.929 143.009 136.691 142.781 142.421L140.182 141.118C140.241 141.065 140.304 141.016 140.368 140.97C143.02 139.067 137.981 125.897 137.852 125.57Z" fill="#C7DCF2"/>
<path d="M73.5136 112.059C72.5929 110.774 71.971 109.302 71.6926 107.75C71.2476 105.196 71.5909 98.943 76.3418 99.2249C79.721 99.4254 81.5688 98.6093 83.0606 99.4801C84.4295 100.278 86.3904 102.591 86.0075 105.004C85.6247 107.417 83.3234 112.059 83.3234 112.059H73.5136Z" fill="#1B2E59"/>
<path d="M71.4819 187.277C71.4819 187.277 71.4522 183.492 73.122 183.199C74.7918 182.906 77.2188 181.993 77.5522 187.277H71.4819Z" fill="#22356B"/>
<path d="M80.0986 187.277C80.0986 187.277 80.0689 183.492 81.7402 183.199C83.4114 182.906 85.8299 181.993 86.1704 187.277H80.0986Z" fill="#22356B"/>
<path d="M68.7013 146.92C67.7233 149.191 67.0791 151.59 66.7885 154.044H90.3721C90.3721 154.044 88.2121 147.118 86.2752 146.352C84.3384 145.586 68.7013 146.92 68.7013 146.92Z" fill="#993530"/>
<path d="M97.488 187.273C97.4584 187.275 97.4286 187.275 97.399 187.273C97.2876 187.278 97.1778 187.246 97.0871 187.182C96.9964 187.117 96.9301 187.025 96.8989 186.918L91.2368 162.619L90.8257 160.849L92.7611 160.765L93.394 164.077L97.7592 186.935C97.765 186.975 97.7624 187.016 97.7517 187.055C97.741 187.094 97.7223 187.131 97.697 187.162C97.6716 187.194 97.6399 187.22 97.604 187.239C97.5681 187.258 97.5286 187.27 97.488 187.273Z" fill="#E5BD9E"/>
<path d="M68.7139 160.852L67.7829 164.852L62.6393 186.923C62.608 187.03 62.5417 187.122 62.451 187.187C62.3604 187.251 62.2505 187.283 62.1392 187.278C62.1096 187.28 62.0798 187.28 62.0502 187.278C62.0101 187.274 61.9712 187.263 61.9357 187.244C61.9003 187.225 61.869 187.199 61.8439 187.168C61.8187 187.137 61.8001 187.101 61.7891 187.063C61.7782 187.024 61.7753 186.984 61.7804 186.944L66.4324 162.569L66.7771 160.768L68.7139 160.852Z" fill="#E5BD9E"/>
<path d="M68.7139 160.852L67.7829 164.851C67.755 164.392 67.6182 163.946 67.3838 163.549C67.1493 163.153 66.8238 162.817 66.4338 162.568L66.7785 160.768L68.7139 160.852Z" fill="#CC9E7F"/>
<path d="M93.395 164.086C92.4386 162.684 91.276 162.684 91.2392 162.629L90.8281 160.86L92.7635 160.775L93.395 164.086Z" fill="#CC9E7F"/>
<path d="M64.8625 161.028H92.9018C93.5675 161.028 94.2061 160.766 94.6768 160.298C95.1476 159.831 95.4121 159.197 95.4121 158.536V156.537C95.4121 155.876 95.1476 155.242 94.6768 154.775C94.2061 154.307 93.5675 154.045 92.9018 154.045H64.8625C64.1971 154.045 63.5589 154.307 63.0884 154.774C62.6178 155.241 62.3535 155.875 62.3535 156.535V158.536C62.3533 158.864 62.4181 159.188 62.5441 159.49C62.6701 159.792 62.8549 160.067 63.0879 160.298C63.3209 160.53 63.5975 160.713 63.902 160.839C64.2065 160.964 64.5329 161.028 64.8625 161.028Z" fill="#FF9924"/>
<path d="M88.6951 145.827C87.8645 141.235 85.4459 136.01 85.4459 136.01C87.2047 128.69 85.4078 120.458 85.4078 120.458C84.4397 120.2 83.4538 120.012 82.458 119.897C82.3337 119.244 81.9777 117.279 81.828 115.586C81.811 115.39 81.7969 115.198 81.7842 115.011C81.7546 114.586 81.7546 114.158 81.7842 113.732L80.5438 113.814L75.4397 114.152L75.2236 114.166C75.2236 114.166 75.2547 114.62 75.2632 115.304C75.2787 116.536 75.218 118.505 74.7744 119.918C72.5776 120.144 71.09 120.462 71.09 120.462C69.6533 120.705 69.9599 129.586 72.644 136.49C73.8815 139.667 70.3837 144.586 70.3837 145.829C70.3837 147.073 88.996 147.486 88.6951 145.827Z" fill="#FFB27D"/>
<path d="M81.8291 115.583C81.3488 116.144 80.1409 117.347 78.6011 117.374C76.5964 117.409 75.2586 115.301 75.2586 115.301C75.2903 114.914 75.3493 114.529 75.4352 114.149L80.5393 113.811C80.9749 114.189 81.3907 114.589 81.7853 115.008C81.7952 115.195 81.8093 115.387 81.8291 115.583Z" fill="#EF9E67"/>
<path d="M78.562 116.183C77.2169 116.174 75.9302 115.636 74.9837 114.687C74.0372 113.738 73.5079 112.456 73.5116 111.12V106.901C73.5097 106.001 73.8664 105.138 74.5038 104.499C75.1412 103.86 76.0075 103.497 76.9134 103.49H79.9761C80.882 103.497 81.7483 103.86 82.3857 104.499C83.0231 105.138 83.3798 106.001 83.3779 106.901V111.359C83.3795 112.631 82.8739 113.853 81.9717 114.756C81.0695 115.66 79.8438 116.173 78.562 116.183V116.183Z" fill="#FFB27D"/>
<path d="M76.8964 113.041C76.8964 113.041 77.0009 113.709 78.6397 113.733C78.6397 113.733 80.0171 113.751 80.0298 113.032C80.0298 113.024 78.74 112.408 76.8964 113.041Z" fill="white"/>
<path d="M95.6934 142.421L91.2448 140.193L89.9069 139.521C89.5086 138.618 88.1707 135.792 87.3415 134.174C87.528 134.983 87.7102 135.812 87.8868 136.638C87.9532 136.945 88.0168 137.251 88.0803 137.556C88.9929 141.927 89.6852 146.04 89.5778 146.921C89.332 148.927 81.5169 148.023 79.5024 147.541C77.4879 147.059 72.9079 148.162 69.2434 148.091C67.137 148.053 67.7826 142.169 68.7108 137.183C68.9312 135.988 69.1727 134.843 69.3931 133.844C68.2093 136.207 66.9915 138.701 66.6991 139.487L64.176 140.818L61.3859 142.289L61.3139 142.328C61.3076 142.317 61.3037 142.304 61.3026 142.291V142.291C61.1331 141.382 64.0602 124.481 67.9324 121.575C68.0471 121.475 68.1674 121.381 68.2926 121.295C69.8155 120.25 71.6774 119.81 73.5111 120.061C73.5111 120.061 74.7826 122.332 78.4556 122.505C79.5133 122.564 80.5705 122.382 81.5466 121.973C82.5227 121.565 83.392 120.94 84.088 120.147C84.088 120.147 85.8864 120.192 87.285 120.818C87.7036 120.992 88.0824 121.249 88.3982 121.572C89.6244 122.902 95.569 134.292 95.6934 142.421Z" fill="#0052B4"/>
<path d="M90.1032 139.316C90.1032 139.316 83.7941 146.076 80.7201 148.352L81.7005 150.371C81.7005 150.371 91.4481 146.673 95.5591 141.483L90.1032 139.316Z" fill="#0052B4"/>
<path d="M81.5148 147.877C81.5148 147.877 78.9197 148.605 78.4973 149.419C78.0749 150.234 78.2529 152.539 78.907 152.155C79.5611 151.77 83.1733 149.391 83.1733 149.391L81.5148 147.877Z" fill="#0052B4"/>
<path d="M75.0616 118.583C75.0616 118.583 76.7836 121.975 78.4619 122.509C78.4619 122.509 76.0759 123.413 72.5978 119.998C72.8476 119.568 73.2066 119.212 73.639 118.963C74.0714 118.715 74.562 118.584 75.0616 118.583V118.583Z" fill="#233F77"/>
<path d="M82.2931 118.583C82.2931 118.583 80.1387 121.975 78.4618 122.509C78.4618 122.509 81.2788 123.413 84.7568 119.998C84.5071 119.568 84.148 119.212 83.7156 118.963C83.2832 118.715 82.7926 118.584 82.2931 118.583Z" fill="#233F77"/>
<path d="M66.7134 139.316C66.7134 139.316 73.2797 145.825 76.4385 147.979L75.5386 150.036C75.5386 150.036 66.2232 146.861 61.9117 141.835L66.7134 139.316Z" fill="#FFB27D"/>
<path d="M74.097 147.398C74.097 147.398 76.7811 147.584 77.3631 148.287C77.9452 148.991 78.2362 151.293 77.5171 151.051C76.7981 150.808 72.7789 149.216 72.7789 149.216L74.097 147.398Z" fill="#FFB27D"/>
<path d="M77.9428 129.47C77.9439 129.368 77.9754 129.268 78.0334 129.184C78.0914 129.1 78.1732 129.034 78.2686 128.996C78.364 128.958 78.4687 128.948 78.5695 128.969C78.6703 128.989 78.7627 129.039 78.8351 129.112C78.9074 129.184 78.9566 129.276 78.9762 129.376C78.9959 129.477 78.9852 129.58 78.9456 129.675C78.906 129.769 78.8391 129.849 78.7535 129.906C78.6678 129.963 78.5672 129.993 78.4643 129.993C78.3954 129.992 78.3273 129.979 78.2639 129.952C78.2004 129.926 78.1428 129.887 78.0944 129.838C78.0459 129.79 78.0076 129.732 77.9816 129.669C77.9556 129.606 77.9424 129.538 77.9428 129.47V129.47Z" fill="#C65447"/>
<path d="M77.9428 137.853C77.9439 137.751 77.9754 137.651 78.0334 137.567C78.0914 137.482 78.1732 137.417 78.2686 137.379C78.364 137.34 78.4687 137.331 78.5695 137.351C78.6703 137.372 78.7627 137.422 78.8351 137.494C78.9074 137.567 78.9566 137.659 78.9762 137.759C78.9959 137.859 78.9852 137.963 78.9456 138.057C78.906 138.152 78.8391 138.232 78.7535 138.289C78.6678 138.345 78.5672 138.376 78.4643 138.376C78.3954 138.375 78.3273 138.361 78.2639 138.335C78.2004 138.308 78.1428 138.27 78.0944 138.221C78.0459 138.173 78.0076 138.115 77.9816 138.052C77.9556 137.989 77.9424 137.921 77.9428 137.853V137.853Z" fill="#C65447"/>
<path d="M73.5099 106.9C73.5099 106.9 73.9846 105.275 75.0879 105.217C76.1912 105.16 79.843 107.335 80.904 106.356C81.9649 105.377 82.7052 105.028 83.1643 105.714C83.6234 106.399 84.0034 102.311 83.8706 102.226C83.7378 102.14 74.9127 100.906 74.9127 100.906L72.408 102.694L72.0266 105.218L73.5099 106.9Z" fill="#1B2E59"/>
<path d="M78.7207 183.757C78.7207 183.757 77.2162 184.384 74.929 184.401C73.3073 184.412 71.6984 184.116 70.188 183.53C70.188 183.53 68.8699 174.267 68.0816 166.344C67.6338 161.838 67.3583 157.766 67.5929 156.077C68.2427 151.42 70.3561 148.729 73.0233 148.953C75.6904 149.178 78.1839 151.03 78.3704 153.278C78.5568 155.526 78.7207 183.757 78.7207 183.757Z" fill="#0052B4"/>
<path d="M87.8379 176.883C87.3604 180.722 86.9705 183.521 86.9705 183.521C82.2648 185.352 78.4378 183.775 78.4378 183.775C78.4378 183.775 78.4957 161.961 78.6313 155.155C78.6497 154.22 78.6695 153.567 78.6921 153.295C78.8701 151.051 81.3578 149.186 84.0236 148.947C86.6894 148.709 88.8127 151.399 89.4766 156.054C89.9089 159.086 88.7208 169.769 87.8379 176.883Z" fill="#0052B4"/>
<path d="M70.3775 130.326L69.3886 133.844C68.2048 136.207 66.987 138.7 66.6946 139.487L64.1715 140.818L61.3814 142.289H61.2981C61.1285 141.38 64.0557 124.479 67.9279 121.573C68.0426 121.473 68.1629 121.38 68.2881 121.293C69.5383 123.659 71.8382 128.573 70.3775 130.326Z" fill="#35488B"/>
<path d="M68.7036 140.779L67.4576 141.868L64.2423 144.673C62.4637 144.533 61.181 142.418 61.181 142.418C61.8082 141.41 62.7674 140.676 63.7238 140.153C64.7243 139.614 65.799 139.223 66.9137 138.992L68.7036 140.779Z" fill="#35488B"/>
<path d="M68.7036 140.778L67.4576 141.867C65.299 141.851 63.7224 140.156 63.7224 140.156C64.7229 139.616 65.7976 139.225 66.9123 138.995L68.7036 140.778Z" fill="#233F77"/>
<path d="M95.6934 142.421L93.094 141.118L91.2448 140.193L89.9069 139.521C89.5086 138.618 88.1707 135.792 87.3415 134.174C87.528 134.983 87.7102 135.812 87.8868 136.638L85.957 129.47C85.0995 128.208 86.9106 122.063 87.2906 120.819C87.7093 120.993 88.088 121.25 88.4038 121.574C88.798 122.003 89.6866 123.482 90.7108 125.565C92.8609 129.929 95.61 136.923 95.6934 142.421Z" fill="#35488B"/>
<path d="M95.6934 142.421C95.6934 142.421 94.4078 144.537 92.632 144.676L88.976 141.482L88.1707 140.781L89.6936 139.051C90.5368 139.203 91.3619 139.442 92.156 139.762C93.4232 140.268 94.8726 141.104 95.6934 142.421Z" fill="#35488B"/>
<path d="M92.1562 139.759C92.1562 139.759 90.4398 141.266 88.9763 141.482L88.171 140.781L89.6939 139.051C90.5369 139.202 91.3621 139.44 92.1562 139.759V139.759Z" fill="#233F77"/>
<path d="M87.8345 176.883C87.357 180.722 86.9671 183.521 86.9671 183.521C82.2613 185.352 78.4344 183.775 78.4344 183.775C78.4344 183.775 78.4923 161.961 78.6279 155.155C78.7791 154.495 78.868 154.102 78.8808 154.052C78.8511 154.478 77.5401 174.132 87.8345 176.883Z" fill="#4395F2"/>
<path d="M74.9341 184.401C73.3124 184.412 71.7034 184.116 70.1931 183.53C70.1931 183.53 68.875 174.268 68.0867 166.344C68.1235 166.563 70.8655 179.88 74.9341 184.401Z" fill="#4395F2"/>
<path d="M90.7136 125.57C92.8609 129.929 95.61 136.929 95.6934 142.421L93.094 141.118C93.1533 141.065 93.2156 141.016 93.2805 140.97C95.9321 139.067 90.8407 125.897 90.7136 125.57Z" fill="#233F77"/>
<path d="M288.107 187.273C288.077 187.275 288.047 187.275 288.018 187.273C287.906 187.278 287.797 187.246 287.706 187.182C287.615 187.117 287.549 187.025 287.518 186.918L281.857 162.619L281.446 160.849L283.383 160.765L284.011 164.087L288.377 186.945C288.381 186.984 288.377 187.024 288.366 187.062C288.355 187.1 288.336 187.135 288.311 187.165C288.286 187.196 288.255 187.221 288.22 187.24C288.185 187.258 288.146 187.27 288.107 187.273V187.273Z" fill="#E5BD9E"/>
<path d="M259.33 160.853L258.398 164.852L253.255 186.924C253.224 187.03 253.157 187.122 253.067 187.187C252.976 187.251 252.867 187.283 252.755 187.279C252.726 187.281 252.696 187.281 252.666 187.279C252.626 187.275 252.587 187.264 252.551 187.245C252.516 187.226 252.484 187.2 252.459 187.168C252.434 187.137 252.415 187.101 252.404 187.063C252.393 187.024 252.39 186.983 252.395 186.944L257.049 162.575L257.393 160.774L259.33 160.853Z" fill="#E5BD9E"/>
<path d="M259.33 160.852L258.398 164.851C258.37 164.392 258.233 163.946 257.999 163.549C257.764 163.153 257.439 162.817 257.049 162.568L257.393 160.768L259.33 160.852Z" fill="#CC9E7F"/>
<path d="M284.012 164.086C283.055 162.684 281.893 162.684 281.857 162.629L281.446 160.86L283.383 160.775L284.012 164.086Z" fill="#CC9E7F"/>
<path d="M255.485 161.026H283.524C284.19 161.026 284.828 160.764 285.299 160.296C285.77 159.829 286.034 159.195 286.034 158.534V156.535C286.034 155.874 285.77 155.24 285.299 154.773C284.828 154.305 284.19 154.043 283.524 154.043H255.485C254.819 154.043 254.181 154.305 253.71 154.772C253.24 155.239 252.976 155.873 252.976 156.533V158.534C252.975 158.862 253.04 159.186 253.166 159.488C253.292 159.79 253.477 160.065 253.71 160.296C253.943 160.528 254.22 160.711 254.524 160.837C254.829 160.962 255.155 161.026 255.485 161.026V161.026Z" fill="#C65447"/>
<path d="M269.165 98.8668C269.165 98.8668 264 97.7617 260.83 100.109C257.66 102.457 259.797 108.051 258.557 109.505C257.317 110.959 255.873 111.508 257.318 114.413C258.763 117.319 255.873 118.099 255.873 120.194C255.873 122.289 258.876 122.904 258.958 124.768C259.04 126.632 268.408 128.36 272.401 128.428C276.395 128.497 281.008 123.679 281.56 122.739C282.112 121.799 283.556 117.587 281.56 115.447C279.564 113.307 281.149 110.405 280.392 108.748C279.634 107.09 276.741 106.124 277.223 104.743C277.705 103.361 276.672 97.3466 269.165 98.8668Z" fill="#1B2E59"/>
<path d="M279.317 145.827C278.487 141.234 276.067 136.01 276.067 136.01C277.826 128.69 276.031 120.458 276.031 120.458C275.062 120.2 274.076 120.012 273.08 119.897C272.957 119.244 272.601 117.279 272.45 115.586C272.433 115.39 272.418 115.198 272.406 115.011C272.377 114.586 272.377 114.158 272.406 113.732L271.165 113.814L266.046 114.149L265.828 114.163C265.828 114.163 265.859 114.616 265.868 115.302C265.883 116.533 265.823 118.502 265.379 119.915C263.182 120.141 261.695 120.459 261.695 120.459C260.258 120.702 260.565 129.583 263.249 136.487C264.486 139.665 260.988 144.583 260.988 145.827C260.988 147.071 279.618 147.486 279.317 145.827Z" fill="#FFB27D"/>
<path d="M272.446 115.583C271.967 116.144 270.758 117.347 269.218 117.374C267.215 117.409 265.875 115.301 265.875 115.301C265.907 114.914 265.967 114.528 266.053 114.149L271.156 113.811C271.592 114.187 272.009 114.585 272.403 115.004C272.415 115.195 272.429 115.387 272.446 115.583Z" fill="#EF9E67"/>
<path d="M269.179 116.183C266.401 116.183 264.13 113.904 264.13 111.12V106.901C264.127 106.001 264.484 105.138 265.121 104.498C265.758 103.859 266.624 103.496 267.53 103.489H270.593C271.499 103.496 272.365 103.859 273.003 104.498C273.64 105.137 273.997 106.001 273.995 106.901V111.359C273.996 112.631 273.491 113.852 272.588 114.756C271.686 115.66 270.46 116.173 269.179 116.183V116.183Z" fill="#FFB27D"/>
<path d="M267.513 113.041C267.513 113.041 267.618 113.709 269.258 113.733C269.258 113.733 270.634 113.751 270.646 113.032C270.646 113.024 269.357 112.408 267.513 113.041Z" fill="white"/>
<path d="M269.358 102.102C269.358 102.102 268.919 107.333 264.273 108.448C259.626 109.563 263.678 99.6133 266.816 100.379C269.953 101.145 269.358 102.102 269.358 102.102Z" fill="#1B2E59"/>
<path d="M268.803 102.102C268.803 102.102 269.242 107.333 273.889 108.448C278.535 109.563 274.483 99.6133 271.346 100.379C268.208 101.145 268.803 102.102 268.803 102.102Z" fill="#1B2E59"/>
<path d="M255.45 154.045C255.45 154.045 258.848 146.159 261.959 144.618C265.069 143.077 277.455 144.446 279.314 145.827C281.173 147.208 283.552 154.045 283.552 154.045H255.45Z" fill="#22356B"/>
<path d="M258.558 154.044C258.558 154.044 259.769 149.314 262.464 149.108C265.16 148.902 268.758 151.402 270.038 150.729C271.318 150.056 273.757 148.367 276.023 148.798C278.289 149.228 281.698 154.044 281.698 154.044H258.558Z" fill="#1B2E59"/>
<path d="M270.64 183.844L267.424 183.886C267.424 183.886 265.918 178.746 264.253 172.748C264.099 172.187 263.939 171.618 263.782 171.045C262.406 166.044 261.008 160.736 260.324 157.46C260.16 156.675 260.042 155.965 259.972 155.32C259.325 149.69 261.854 149.221 262.46 149.109C263.134 148.987 267.263 147.085 269.572 154.438C270.35 156.914 271.456 163.738 271.041 170.113C270.641 176.242 270.64 183.844 270.64 183.844Z" fill="#FFB27D"/>
<path d="M278.159 170.468C276.82 177.438 275.319 184.041 275.319 184.041L271.588 183.674C271.588 183.674 271.35 177.752 270.777 171.221C270.732 170.702 270.736 170.176 270.718 169.65C270.536 164.693 270.406 159.568 270.482 156.383C270.674 148.558 273.786 148.709 274.47 148.744C275.154 148.779 279.607 147.878 280.172 155.558C280.361 158.057 279.324 164.4 278.159 170.468Z" fill="#FFB27D"/>
<path d="M264.251 172.747C264.097 172.186 263.937 171.617 263.781 171.043C262.405 166.043 261.006 160.735 260.322 157.459C260.158 156.674 260.04 155.964 259.971 155.319C260.041 155.552 264.576 170.31 269.114 171.407C272.025 172.111 267.739 172.533 264.251 172.747Z" fill="#EF9E67"/>
<path d="M270.778 171.221C270.758 170.7 270.737 170.176 270.719 169.65C270.536 164.693 270.407 159.567 270.483 156.382C270.483 156.382 271.412 169.888 276.029 170.923C279.08 171.609 274.338 171.424 270.778 171.221Z" fill="#EF9E67"/>
<path d="M278.161 170.467C277.399 174.425 276.588 178.262 276.027 180.845C275.604 182.808 275.321 184.044 275.321 184.044L271.366 183.739C271.366 183.739 271.022 177.751 271.045 170.108C271.576 170.352 272.784 170.613 275.215 170.595C276.044 170.588 277.019 170.552 278.161 170.467Z" fill="#E9F3FE"/>
<path d="M276.028 180.842C275.605 182.805 275.322 184.041 275.322 184.041L271.366 183.736C271.366 183.736 270.709 177.549 270.732 169.906C271.263 170.15 272.785 170.607 275.216 170.592C275.213 170.592 273.522 178.426 276.028 180.842Z" fill="#C7DCF2"/>
<path d="M275.582 186.121C275.582 186.278 275.582 186.424 275.582 186.552C275.58 186.621 275.565 186.689 275.536 186.752C275.507 186.815 275.466 186.872 275.415 186.919C275.363 186.966 275.303 187.002 275.237 187.026C275.172 187.049 275.102 187.059 275.032 187.055L271.218 186.808C271.082 186.8 270.955 186.738 270.865 186.637C270.774 186.537 270.727 186.405 270.734 186.27C270.748 186.028 270.774 185.787 270.813 185.548C270.897 185.006 271.046 184.476 271.256 183.969C271.286 183.897 271.332 183.833 271.391 183.782C271.45 183.731 271.52 183.693 271.595 183.673C273.533 183.173 274.72 183.673 275.145 183.923C275.202 183.955 275.252 183.997 275.292 184.049C275.332 184.1 275.362 184.159 275.378 184.221C275.524 184.844 275.593 185.482 275.582 186.121V186.121Z" fill="#35488B"/>
<path d="M275.227 184.085C275.227 184.085 274.803 183.293 273.54 183.073C273.173 183.008 272.795 183.034 272.44 183.149C272.086 183.264 271.765 183.464 271.507 183.732L271.283 183.907C271.318 183.865 272.19 182.628 273.576 182.87C273.966 182.925 274.336 183.078 274.651 183.315C274.966 183.551 275.214 183.863 275.374 184.221L275.227 184.085Z" fill="#35488B"/>
<path d="M275.583 186.121C275.583 186.278 275.583 186.424 275.583 186.552C275.581 186.621 275.566 186.689 275.537 186.752C275.508 186.815 275.467 186.872 275.416 186.919C275.365 186.966 275.304 187.002 275.239 187.026C275.173 187.049 275.103 187.059 275.033 187.055L271.219 186.808C271.083 186.8 270.956 186.738 270.866 186.638C270.775 186.537 270.728 186.405 270.735 186.27C270.749 186.028 270.775 185.787 270.814 185.548C270.814 185.548 271.013 186.427 273.334 186.546C274.731 186.616 275.332 186.344 275.583 186.121Z" fill="#22356B"/>
<path d="M270.639 183.842L267.39 184.358L266.561 184.499C266.561 184.499 265.623 177.745 263.782 171.05C266.142 171.3 268.527 170.978 270.734 170.112C270.999 176.936 270.639 183.842 270.639 183.842Z" fill="#E9F3FE"/>
<path d="M267.39 184.359L266.561 184.499C266.561 184.499 265.623 177.746 263.782 171.051C265.191 171.209 266.616 171.155 268.009 170.89C268.009 170.89 266.364 180.668 267.39 184.359Z" fill="#C7DCF2"/>
<path d="M271.256 185.653C271.289 185.807 271.318 185.949 271.342 186.074C271.355 186.141 271.355 186.211 271.341 186.279C271.327 186.347 271.299 186.411 271.259 186.468C271.22 186.525 271.169 186.573 271.111 186.61C271.052 186.648 270.987 186.673 270.918 186.685L267.14 187.271C267.006 187.292 266.87 187.259 266.76 187.18C266.65 187.102 266.575 186.983 266.553 186.85C266.514 186.611 266.487 186.37 266.474 186.128C266.438 185.581 266.47 185.031 266.567 184.491C266.58 184.414 266.612 184.341 266.658 184.278C266.704 184.215 266.764 184.164 266.834 184.127C268.618 183.22 269.885 183.454 270.354 183.603C270.417 183.622 270.474 183.653 270.524 183.694C270.574 183.736 270.615 183.787 270.645 183.844C270.922 184.42 271.127 185.028 271.256 185.653Z" fill="#35488B"/>
<path d="M270.469 183.744C270.469 183.737 269.891 183.061 268.604 183.121C268.231 183.137 267.867 183.245 267.546 183.434C267.224 183.623 266.955 183.888 266.761 184.205L266.579 184.424C266.606 184.375 267.19 182.978 268.595 182.914C268.987 182.883 269.381 182.953 269.74 183.116C270.098 183.279 270.408 183.53 270.642 183.845L270.469 183.744Z" fill="#35488B"/>
<path d="M271.256 185.654C271.289 185.808 271.318 185.95 271.342 186.074C271.355 186.142 271.355 186.212 271.341 186.28C271.327 186.347 271.299 186.412 271.259 186.469C271.22 186.526 271.169 186.574 271.111 186.611C271.052 186.649 270.987 186.674 270.918 186.686L267.14 187.272C267.006 187.292 266.87 187.26 266.76 187.181C266.65 187.102 266.575 186.984 266.553 186.851C266.514 186.612 266.487 186.371 266.474 186.129C266.474 186.129 266.856 186.945 269.149 186.55C270.531 186.323 271.058 185.927 271.256 185.654Z" fill="#22356B"/>
<path d="M286.315 142.421L281.87 140.191L280.53 139.521C280.133 138.617 278.794 135.792 277.966 134.173C278.221 135.284 278.469 136.43 278.704 137.556C279.616 141.927 280.309 146.04 280.201 146.921C279.955 148.926 272.149 148.023 270.127 147.541C268.106 147.058 263.531 148.162 259.868 148.092C257.761 148.052 258.408 142.168 259.336 137.183C259.556 135.988 259.796 134.842 260.017 133.844C258.833 136.205 257.615 138.7 257.323 139.487L254.799 140.818L251.937 142.328C251.932 142.316 251.928 142.303 251.926 142.29C251.754 141.393 254.682 124.48 258.556 121.572C259.333 120.956 260.229 120.504 261.188 120.245C262.147 119.985 263.15 119.923 264.135 120.063C264.135 120.063 265.406 122.333 269.079 122.504C270.137 122.564 271.194 122.382 272.17 121.974C273.146 121.566 274.015 120.942 274.712 120.15C274.712 120.15 277.783 120.226 279.022 121.572C280.261 122.918 286.193 134.291 286.315 142.421Z" fill="#0052B4"/>
<path d="M280.199 146.92C279.953 148.925 272.147 148.022 270.125 147.54C268.103 147.057 263.529 148.161 259.866 148.091C257.758 148.052 258.405 142.167 259.333 137.182C259.333 137.182 263.305 144.155 268.255 144.107C273.205 144.059 278.709 137.555 278.709 137.555C279.609 141.929 280.306 146.039 280.199 146.92Z" fill="#B5493F"/>
<path d="M280.793 139.488C280.793 139.488 273.306 144.913 269.859 146.555L270.435 148.727C270.435 148.727 281.162 146.595 286.189 142.292L280.793 139.488Z" fill="#0052B4"/>
<path d="M269.858 146.558C269.858 146.558 267.284 145.758 266.492 146.207C265.699 146.656 264.597 148.696 265.362 148.731C266.126 148.766 270.447 148.731 270.447 148.731L269.858 146.558Z" fill="#0052B4"/>
<path d="M265.683 118.583C265.683 118.583 267.405 121.975 269.083 122.509C269.083 122.509 266.697 123.413 263.219 119.998C263.469 119.569 263.828 119.212 264.26 118.964C264.693 118.715 265.183 118.584 265.683 118.583V118.583Z" fill="#E6F1FF"/>
<path d="M260.014 133.843C258.83 136.205 257.613 138.7 257.32 139.486L254.797 140.817C254.62 140.745 254.479 140.607 254.403 140.433C253.644 138.914 260.014 133.843 260.014 133.843Z" fill="#B5493F"/>
<path d="M272.839 118.556C272.839 118.556 270.76 121.975 269.082 122.505C269.082 122.505 271.786 123.602 275.264 120.186C275.264 120.193 274.611 118.594 272.839 118.556Z" fill="#E6F1FF"/>
<path d="M282.551 139.965C282.341 140.088 282.107 140.164 281.866 140.188L280.526 139.518C280.129 138.615 278.79 135.789 277.962 134.171C277.962 134.172 284.307 138.984 282.551 139.965Z" fill="#B5493F"/>
<path d="M257.319 139.488C257.319 139.488 264.806 144.913 268.253 146.555L267.677 148.727C267.677 148.727 256.95 146.595 251.923 142.292L257.319 139.488Z" fill="#FFB27D"/>
<path d="M268.255 146.558C268.255 146.558 270.829 145.758 271.622 146.207C272.414 146.656 273.516 148.696 272.752 148.731C271.988 148.766 267.666 148.731 267.666 148.731L268.255 146.558Z" fill="#FFB27D"/>
<path d="M259.32 140.778L258.074 141.868L254.86 144.673C253.08 144.532 251.798 142.419 251.798 142.419C252.426 141.411 253.384 140.677 254.341 140.154C255.341 139.615 256.416 139.224 257.53 138.993L259.32 140.778Z" fill="#E6F1FF"/>
<path d="M286.315 142.421C286.315 142.421 285.031 144.535 283.254 144.674L279.599 141.482L278.793 140.781L280.316 139.048C281.159 139.2 281.984 139.439 282.778 139.759C284.045 140.268 285.496 141.104 286.315 142.421Z" fill="#E6F1FF"/>
<path d="M282.778 139.759C282.778 139.759 281.061 141.266 279.599 141.482L278.793 140.781L280.315 139.048C281.159 139.2 281.984 139.438 282.778 139.759V139.759Z" fill="#C7DCF2"/>
<path d="M259.32 140.778L258.074 141.867C255.916 141.851 254.339 140.156 254.339 140.156C255.34 139.616 256.414 139.225 257.529 138.995L259.32 140.778Z" fill="#C7DCF2"/>
<path d="M268.84 122.494C268.841 122.44 268.857 122.388 268.887 122.343C268.917 122.299 268.96 122.264 269.011 122.244C269.061 122.224 269.116 122.218 269.169 122.229C269.222 122.24 269.271 122.266 269.309 122.304C269.347 122.342 269.373 122.39 269.384 122.443C269.394 122.496 269.388 122.55 269.368 122.6C269.347 122.65 269.312 122.692 269.267 122.722C269.222 122.752 269.169 122.768 269.114 122.768C269.042 122.767 268.972 122.738 268.92 122.687C268.869 122.636 268.84 122.566 268.84 122.494V122.494Z" fill="#35488B"/>
<path d="M268.559 129.47C268.56 129.368 268.592 129.268 268.649 129.183C268.707 129.099 268.789 129.033 268.884 128.995C268.98 128.956 269.084 128.947 269.185 128.967C269.286 128.987 269.379 129.037 269.451 129.11C269.524 129.182 269.573 129.274 269.593 129.375C269.613 129.475 269.602 129.579 269.562 129.673C269.523 129.767 269.456 129.848 269.37 129.904C269.285 129.961 269.184 129.991 269.081 129.991C268.942 129.991 268.809 129.935 268.712 129.837C268.614 129.74 268.559 129.607 268.559 129.47V129.47Z" fill="#A53D38"/>
<path d="M268.559 137.853C268.561 137.751 268.592 137.651 268.65 137.567C268.708 137.482 268.79 137.417 268.885 137.379C268.981 137.34 269.085 137.331 269.186 137.351C269.287 137.372 269.379 137.422 269.452 137.494C269.524 137.567 269.573 137.659 269.593 137.759C269.613 137.859 269.602 137.963 269.562 138.057C269.523 138.152 269.456 138.232 269.37 138.289C269.285 138.345 269.184 138.376 269.081 138.376C269.012 138.375 268.944 138.361 268.881 138.335C268.817 138.308 268.759 138.27 268.711 138.221C268.663 138.173 268.624 138.115 268.598 138.052C268.572 137.989 268.559 137.921 268.559 137.853Z" fill="#A53D38"/>
<path d="M163.074 98.7484C163.074 98.7484 156.587 97.405 155.367 102.955C154.355 107.55 159.22 113.463 159.22 113.463H167.838C167.838 113.463 177.468 97.6153 163.074 98.7484Z" fill="#1B2E59"/>
<path d="M182.437 187.273C182.407 187.275 182.377 187.275 182.348 187.273C182.236 187.278 182.126 187.246 182.036 187.182C181.945 187.117 181.879 187.025 181.847 186.918L176.187 162.619L175.776 160.849L177.713 160.765L178.344 164.077L182.711 186.935C182.716 186.976 182.713 187.016 182.702 187.056C182.691 187.095 182.673 187.131 182.647 187.163C182.621 187.194 182.589 187.221 182.553 187.24C182.517 187.259 182.477 187.27 182.437 187.273Z" fill="#E5BD9E"/>
<path d="M153.66 160.853L152.727 164.852L147.585 186.924C147.554 187.03 147.487 187.123 147.397 187.187C147.306 187.251 147.196 187.284 147.085 187.279C147.055 187.281 147.026 187.281 146.996 187.279C146.956 187.275 146.917 187.264 146.881 187.245C146.845 187.226 146.814 187.2 146.789 187.168C146.763 187.137 146.745 187.101 146.734 187.063C146.723 187.024 146.72 186.983 146.725 186.944L151.378 162.575L151.723 160.774L153.66 160.853Z" fill="#E5BD9E"/>
<path d="M153.66 160.852L152.727 164.851C152.699 164.392 152.563 163.946 152.328 163.549C152.094 163.153 151.768 162.817 151.378 162.568L151.723 160.768L153.66 160.852Z" fill="#CC9E7F"/>
<path d="M178.341 164.086C177.385 162.684 176.222 162.684 176.187 162.629L175.776 160.86L177.713 160.775L178.341 164.086Z" fill="#CC9E7F"/>
<path d="M177.848 161.026H149.81C148.423 161.026 147.299 159.911 147.299 158.534V156.535C147.299 155.158 148.423 154.043 149.81 154.043H177.848C179.234 154.043 180.358 155.158 180.358 156.535V158.534C180.358 159.911 179.234 161.026 177.848 161.026Z" fill="#C65447"/>
<path d="M173.646 145.827C172.817 141.234 170.397 136.01 170.397 136.01C172.156 128.69 170.36 120.458 170.36 120.458C169.392 120.2 168.405 120.012 167.409 119.897C167.286 119.244 166.93 117.279 166.779 115.586C166.762 115.39 166.748 115.198 166.735 115.011C166.707 114.586 166.707 114.158 166.735 113.732L165.495 113.814L160.392 114.152L160.175 114.166C160.175 114.166 160.206 114.619 160.214 115.304C160.23 116.536 160.169 118.505 159.726 119.918C157.529 120.144 156.043 120.462 156.043 120.462C154.604 120.705 154.912 129.586 157.597 136.49C158.834 139.667 155.336 144.586 155.336 145.829C155.336 147.073 173.947 147.486 173.646 145.827Z" fill="#FFB27D"/>
<path d="M166.775 115.583C166.296 116.144 165.08 117.347 163.547 117.374C161.544 117.409 160.204 115.301 160.204 115.301C160.236 114.914 160.296 114.528 160.382 114.149L165.485 113.811C165.922 114.187 166.339 114.585 166.734 115.004C166.744 115.195 166.758 115.387 166.775 115.583Z" fill="#EF9E67"/>
<path d="M163.508 116.183C160.73 116.183 158.459 113.904 158.459 111.12V106.901C158.457 106.001 158.813 105.138 159.45 104.498C160.087 103.859 160.953 103.496 161.859 103.489H164.923C165.829 103.496 166.695 103.859 167.333 104.498C167.97 105.138 168.326 106.001 168.324 106.901V111.359C168.325 112.631 167.82 113.852 166.918 114.756C166.015 115.66 164.79 116.173 163.508 116.183V116.183Z" fill="#FFB27D"/>
<path d="M149.781 154.045C149.781 154.045 153.171 146.159 156.289 144.618C159.407 143.077 171.785 144.446 173.644 145.827C175.503 147.208 177.882 154.045 177.882 154.045H149.781Z" fill="#22356B"/>
<path d="M152.882 154.044C152.882 154.044 154.093 149.314 156.79 149.108C159.486 148.902 163.083 151.402 164.362 150.729C165.64 150.056 168.081 148.367 170.347 148.798C172.613 149.228 176.023 154.044 176.023 154.044H152.882Z" fill="#1B2E59"/>
<path d="M164.97 183.844L161.754 183.886C161.754 183.886 160.249 178.746 158.583 172.748C158.429 172.187 158.269 171.618 158.113 171.045C156.737 166.044 155.338 160.736 154.654 157.46C154.49 156.675 154.372 155.965 154.302 155.32C153.655 149.69 156.184 149.221 156.79 149.109C157.464 148.987 161.593 147.085 163.902 154.438C164.68 156.914 165.786 163.738 165.371 170.113C164.971 176.242 164.97 183.844 164.97 183.844Z" fill="#FFB27D"/>
<path d="M172.489 170.468C171.15 177.438 169.65 184.041 169.65 184.041L165.919 183.674C165.919 183.674 165.68 177.752 165.108 171.221C165.063 170.702 165.067 170.176 165.049 169.65C164.866 164.693 164.736 159.568 164.813 156.383C165.005 148.558 168.117 148.709 168.801 148.744C169.484 148.779 173.939 147.878 174.508 155.558C174.692 158.057 173.656 164.4 172.489 170.468Z" fill="#FFB27D"/>
<path d="M158.579 172.747C158.426 172.186 158.266 171.617 158.109 171.043C156.733 166.043 155.335 160.735 154.651 157.459C154.487 156.674 154.368 155.964 154.299 155.319C154.37 155.552 158.904 170.31 163.442 171.407C166.354 172.111 162.069 172.533 158.579 172.747Z" fill="#EF9E67"/>
<path d="M165.107 171.221C165.087 170.7 165.066 170.176 165.047 169.65C164.865 164.693 164.735 159.567 164.811 156.382C164.811 156.382 165.741 169.888 170.358 170.923C173.409 171.609 168.667 171.424 165.107 171.221Z" fill="#EF9E67"/>
<path d="M172.486 170.467C171.724 174.425 170.914 178.262 170.353 180.845C169.929 182.808 169.646 184.044 169.646 184.044L165.691 183.739C165.691 183.739 165.347 177.751 165.37 170.108C165.901 170.352 167.111 170.613 169.54 170.595C170.37 170.588 171.344 170.552 172.486 170.467Z" fill="#E9F3FE"/>
<path d="M170.353 180.842C169.929 182.805 169.646 184.041 169.646 184.041L165.691 183.736C165.691 183.736 165.034 177.549 165.056 169.906C165.588 170.15 167.11 170.607 169.54 170.592C169.537 170.592 167.846 178.426 170.353 180.842Z" fill="#C7DCF2"/>
<path d="M169.911 186.121C169.911 186.278 169.911 186.424 169.911 186.552C169.91 186.621 169.894 186.689 169.866 186.752C169.837 186.815 169.796 186.872 169.744 186.919C169.693 186.966 169.633 187.002 169.567 187.026C169.501 187.049 169.432 187.059 169.362 187.055L165.548 186.808C165.412 186.8 165.285 186.739 165.194 186.638C165.104 186.537 165.057 186.405 165.065 186.27C165.109 185.479 165.285 184.702 165.587 183.969C165.617 183.897 165.663 183.833 165.721 183.782C165.78 183.731 165.849 183.693 165.925 183.673C167.863 183.173 169.05 183.673 169.475 183.923C169.532 183.955 169.582 183.997 169.622 184.049C169.662 184.1 169.691 184.159 169.708 184.221C169.854 184.844 169.922 185.482 169.911 186.121Z" fill="#35488B"/>
<path d="M169.556 184.085C169.556 184.085 169.132 183.293 167.869 183.073C167.502 183.008 167.124 183.034 166.77 183.149C166.415 183.264 166.094 183.464 165.837 183.732L165.612 183.907C165.649 183.865 166.519 182.628 167.905 182.87C168.295 182.925 168.665 183.078 168.98 183.315C169.295 183.551 169.543 183.863 169.703 184.221L169.556 184.085Z" fill="#35488B"/>
<path d="M169.908 186.121C169.908 186.278 169.908 186.424 169.908 186.552C169.906 186.621 169.891 186.689 169.862 186.752C169.833 186.815 169.792 186.872 169.741 186.919C169.689 186.966 169.629 187.002 169.563 187.026C169.498 187.049 169.428 187.059 169.358 187.055L165.544 186.808C165.408 186.8 165.281 186.739 165.191 186.638C165.1 186.537 165.053 186.405 165.061 186.27C165.074 186.028 165.1 185.787 165.138 185.548C165.138 185.548 165.338 186.427 167.66 186.546C169.057 186.616 169.656 186.344 169.908 186.121Z" fill="#22356B"/>
<path d="M164.968 183.842L161.719 184.358L160.89 184.499C160.89 184.499 159.952 177.745 158.111 171.05C160.471 171.299 162.857 170.977 165.064 170.112C165.328 176.936 164.968 183.842 164.968 183.842Z" fill="#E9F3FE"/>
<path d="M161.72 184.359L160.89 184.499C160.89 184.499 159.952 177.746 158.112 171.051C159.521 171.209 160.946 171.155 162.338 170.89C162.338 170.89 160.694 180.668 161.72 184.359Z" fill="#C7DCF2"/>
<path d="M165.585 185.653C165.619 185.807 165.647 185.949 165.671 186.074C165.684 186.141 165.684 186.211 165.67 186.279C165.656 186.347 165.628 186.411 165.589 186.468C165.549 186.525 165.499 186.573 165.44 186.61C165.381 186.648 165.316 186.673 165.247 186.685L161.469 187.271C161.335 187.292 161.199 187.259 161.089 187.18C160.979 187.102 160.904 186.983 160.882 186.85C160.843 186.611 160.816 186.37 160.803 186.128C160.768 185.581 160.799 185.031 160.896 184.491C160.91 184.414 160.941 184.341 160.987 184.279C161.034 184.216 161.094 184.164 161.163 184.127C162.947 183.22 164.214 183.454 164.683 183.603C164.746 183.622 164.804 183.653 164.854 183.695C164.904 183.736 164.946 183.787 164.976 183.844C165.252 184.421 165.456 185.028 165.585 185.653V185.653Z" fill="#35488B"/>
<path d="M164.797 183.744C164.797 183.737 164.219 183.061 162.932 183.121C162.56 183.138 162.197 183.246 161.877 183.435C161.557 183.624 161.288 183.889 161.095 184.205L160.913 184.424C160.94 184.375 161.525 182.978 162.929 182.914C163.322 182.883 163.716 182.953 164.074 183.116C164.432 183.279 164.743 183.53 164.976 183.845L164.797 183.744Z" fill="#35488B"/>
<path d="M165.585 185.654C165.619 185.808 165.647 185.95 165.671 186.074C165.684 186.142 165.684 186.212 165.67 186.28C165.656 186.347 165.628 186.412 165.589 186.469C165.549 186.526 165.499 186.574 165.44 186.611C165.381 186.649 165.316 186.674 165.247 186.686L161.469 187.272C161.335 187.292 161.199 187.26 161.089 187.181C160.979 187.102 160.904 186.984 160.882 186.851C160.843 186.612 160.816 186.371 160.803 186.129C160.803 186.129 161.186 186.945 163.478 186.55C164.86 186.323 165.387 185.927 165.585 185.654Z" fill="#22356B"/>
<path d="M180.64 142.421L176.191 140.191L174.853 139.521C174.456 138.617 173.117 135.792 172.289 134.173C172.543 135.284 172.794 136.43 173.027 137.556C173.939 141.927 174.631 146.04 174.524 146.921C174.278 148.926 166.465 148.023 164.45 147.541C162.436 147.058 157.854 148.162 154.191 148.092C152.083 148.052 152.73 142.168 153.658 137.183C153.879 135.988 154.119 134.842 154.339 133.844C153.156 136.205 151.938 138.7 151.645 139.487L149.122 140.818L146.262 142.328C146.255 142.316 146.251 142.304 146.249 142.29C146.077 141.393 149.005 124.48 152.879 121.572C153.656 120.956 154.551 120.504 155.511 120.245C156.47 119.985 157.473 119.923 158.457 120.063C158.457 120.063 159.729 122.333 163.402 122.504C164.459 122.564 165.516 122.382 166.493 121.974C167.469 121.566 168.338 120.942 169.034 120.15C169.034 120.15 172.104 120.226 173.343 121.572C174.582 122.918 180.517 134.291 180.64 142.421Z" fill="#0052B4"/>
<path d="M174.528 146.92C174.282 148.925 166.469 148.022 164.454 147.54C162.44 147.057 157.858 148.161 154.195 148.091C152.087 148.052 152.734 142.167 153.663 137.182C153.663 137.182 157.634 144.155 162.584 144.107C167.534 144.059 173.038 137.555 173.038 137.555C173.939 141.929 174.635 146.039 174.528 146.92Z" fill="#B5493F"/>
<path d="M175.124 139.488C175.124 139.488 167.636 144.913 164.189 146.555L164.766 148.727C164.766 148.727 175.492 146.595 180.52 142.292L175.124 139.488Z" fill="#FFB27D"/>
<path d="M164.189 146.558C164.189 146.558 161.616 145.758 160.823 146.207C160.03 146.656 158.929 148.696 159.686 148.731C160.443 148.766 164.771 148.731 164.771 148.731L164.189 146.558Z" fill="#0052B4"/>
<path d="M160.007 118.583C160.007 118.583 161.731 121.975 163.408 122.509C163.408 122.509 161.022 123.413 157.544 119.998C157.794 119.569 158.153 119.212 158.585 118.964C159.017 118.715 159.508 118.584 160.007 118.583Z" fill="#E6F1FF"/>
<path d="M154.34 133.843C153.156 136.205 151.938 138.7 151.646 139.486L149.123 140.817C148.946 140.744 148.805 140.607 148.729 140.433C147.97 138.914 154.34 133.843 154.34 133.843Z" fill="#B5493F"/>
<path d="M167.241 118.583C167.241 118.583 165.086 121.975 163.408 122.509C163.408 122.509 166.225 123.413 169.703 119.998C169.454 119.568 169.095 119.212 168.663 118.964C168.23 118.715 167.74 118.584 167.241 118.583Z" fill="#E6F1FF"/>
<path d="M176.88 139.965C176.67 140.088 176.436 140.164 176.193 140.188L174.855 139.518C174.458 138.615 173.119 135.789 172.291 134.171C172.291 134.172 178.636 138.984 176.88 139.965Z" fill="#B5493F"/>
<path d="M151.649 139.488C151.649 139.488 159.137 144.913 162.583 146.555L162.007 148.727C162.007 148.727 151.28 146.595 146.253 142.292L151.649 139.488Z" fill="#FFB27D"/>
<path d="M162.58 146.558C162.58 146.558 165.154 145.758 165.947 146.207C166.739 146.656 167.841 148.696 167.077 148.731C166.313 148.766 161.991 148.731 161.991 148.731L162.58 146.558Z" fill="#FFB27D"/>
<path d="M153.649 140.778L152.403 141.868L149.19 144.673C147.41 144.532 146.127 142.419 146.127 142.419C146.755 141.411 147.713 140.677 148.67 140.154C149.67 139.615 150.745 139.224 151.86 138.993L153.649 140.778Z" fill="#E6F1FF"/>
<path d="M180.64 142.421C180.64 142.421 179.356 144.535 177.578 144.674L173.924 141.482L173.117 140.781L174.641 139.048C175.485 139.2 176.311 139.439 177.105 139.759C178.369 140.268 179.82 141.104 180.64 142.421Z" fill="#E6F1FF"/>
<path d="M177.106 139.759C177.106 139.759 175.389 141.266 173.926 141.482L173.12 140.781L174.644 139.048C175.487 139.2 176.312 139.439 177.106 139.759V139.759Z" fill="#C7DCF2"/>
<path d="M153.649 140.778L152.403 141.867C150.245 141.851 148.668 140.156 148.668 140.156C149.669 139.616 150.743 139.225 151.858 138.995L153.649 140.778Z" fill="#C7DCF2"/>
<path d="M163.169 122.494C163.169 122.44 163.185 122.388 163.216 122.343C163.246 122.299 163.289 122.264 163.339 122.244C163.389 122.224 163.444 122.218 163.497 122.229C163.551 122.24 163.599 122.266 163.637 122.304C163.676 122.342 163.702 122.39 163.712 122.443C163.723 122.496 163.717 122.55 163.696 122.6C163.675 122.65 163.64 122.692 163.595 122.722C163.55 122.752 163.497 122.768 163.443 122.768C163.371 122.765 163.302 122.736 163.251 122.685C163.2 122.634 163.171 122.566 163.169 122.494Z" fill="#35488B"/>
<path d="M162.889 129.47C162.89 129.368 162.921 129.268 162.979 129.183C163.037 129.099 163.119 129.033 163.214 128.995C163.309 128.956 163.414 128.947 163.515 128.967C163.616 128.987 163.708 129.037 163.781 129.11C163.853 129.182 163.903 129.274 163.922 129.375C163.942 129.475 163.932 129.579 163.892 129.673C163.852 129.767 163.786 129.848 163.7 129.904C163.614 129.961 163.514 129.991 163.411 129.991C163.272 129.991 163.139 129.935 163.041 129.837C162.943 129.74 162.889 129.607 162.889 129.47V129.47Z" fill="#A53D38"/>
<path d="M162.889 137.853C162.89 137.751 162.922 137.651 162.98 137.567C163.038 137.482 163.12 137.417 163.215 137.379C163.31 137.34 163.415 137.331 163.516 137.351C163.617 137.372 163.709 137.422 163.781 137.494C163.854 137.567 163.903 137.659 163.923 137.759C163.942 137.859 163.932 137.963 163.892 138.057C163.852 138.152 163.785 138.232 163.7 138.289C163.614 138.345 163.514 138.376 163.411 138.376C163.342 138.375 163.274 138.361 163.21 138.335C163.147 138.308 163.089 138.27 163.041 138.221C162.992 138.173 162.954 138.115 162.928 138.052C162.902 137.989 162.889 137.921 162.889 137.853V137.853Z" fill="#A53D38"/>
<path d="M156.816 105.009C156.816 105.009 150.672 105.635 152.307 111.6C153.941 117.566 153.102 118.588 153.102 118.588C153.581 118.562 154.033 118.362 154.374 118.027C154.374 118.027 154.091 118.479 153.024 120.155C150.774 123.698 156.505 125.774 156.505 125.774C156.505 125.774 155.59 123.435 157.142 122.616C160.109 121.048 161.359 116.974 159.499 115.174C155.231 111.042 156.816 105.009 156.816 105.009Z" fill="#1B2E59"/>
<path d="M169.697 105.009C169.697 105.009 175.842 105.635 174.207 111.6C172.573 117.566 173.411 118.588 173.411 118.588C172.932 118.562 172.48 118.362 172.139 118.027C172.139 118.027 172.422 118.479 173.49 120.155C175.74 123.698 170.007 125.774 170.007 125.774C170.007 125.774 170.923 123.435 169.372 122.616C166.405 121.048 165.153 116.974 167.015 115.174C171.289 111.042 169.697 105.009 169.697 105.009Z" fill="#1B2E59"/>
<path d="M158.46 108.019C158.46 108.019 161.794 108.371 162.908 107.636C162.908 107.636 163.64 105.433 162.908 104.858C162.908 104.858 164.277 106.04 164.021 107.604C164.021 107.604 166.099 107.541 166.564 107.285C166.564 107.285 166.423 106.295 166.149 105.883C166.149 105.883 166.864 106.681 167.022 107.256C167.022 107.256 168.55 107.416 168.868 106.835C169.186 106.255 166.417 99.2625 162.022 101.216C157.627 103.169 157.195 106.806 158.46 108.019Z" fill="#1B2E59"/>
<path d="M155.254 104.871C155.254 104.871 154.618 105.252 154.66 105.658C154.703 106.063 156.204 107.466 156.204 107.466L155.254 104.871Z" fill="#C65447"/>
<path d="M170.948 104.871C170.948 104.871 171.582 105.252 171.54 105.658C171.498 106.063 169.998 107.466 169.998 107.466L170.948 104.871Z" fill="#C65447"/>
<path d="M44.965 99.9997C44.965 99.9997 41.3867 97.9256 38.8904 99.3911C36.3942 100.857 33.3484 110.02 33.816 111.897C34.2836 113.775 36.3137 115.183 36.3137 115.183C36.3137 115.183 36.0212 114.072 36.3137 113.297C36.3137 113.297 36.6117 115.433 38.2236 116.101C39.8355 116.77 45.8819 117.264 47.1237 116.963C48.5491 116.615 49.4066 116.153 50.0098 114.56C50.613 112.967 54.3425 98.5679 44.965 99.9997Z" fill="#1B2E59"/>
<path d="M61.8447 187.273C61.815 187.275 61.7853 187.275 61.7556 187.273C61.6443 187.278 61.5345 187.246 61.4438 187.182C61.3531 187.117 61.2868 187.025 61.2556 186.918L55.5935 162.619L55.1824 160.849L57.1178 160.765L57.7506 164.077L62.1159 186.935C62.1214 186.975 62.1187 187.016 62.1079 187.055C62.0971 187.094 62.0785 187.13 62.0531 187.162C62.0278 187.193 61.9962 187.22 61.9604 187.239C61.9245 187.258 61.8852 187.27 61.8447 187.273V187.273Z" fill="#E5BD9E"/>
<path d="M33.0654 160.853L32.1344 164.852L26.9908 186.924C26.9596 187.03 26.8933 187.123 26.8026 187.187C26.7119 187.252 26.6021 187.284 26.4907 187.279C26.4611 187.281 26.4313 187.281 26.4017 187.279C26.3615 187.275 26.3224 187.264 26.2869 187.245C26.2513 187.226 26.22 187.2 26.1948 187.168C26.1696 187.137 26.151 187.101 26.1402 187.062C26.1294 187.024 26.1266 186.983 26.1319 186.944L30.7839 162.575L31.13 160.774L33.0654 160.853Z" fill="#E5BD9E"/>
<path d="M33.0654 160.852L32.1344 164.851C32.1061 164.392 31.9691 163.946 31.7344 163.549C31.4997 163.153 31.1741 162.817 30.7839 162.568L31.13 160.768L33.0654 160.852Z" fill="#CC9E7F"/>
<path d="M57.7471 164.086C56.7893 162.684 55.628 162.684 55.5913 162.629L55.1802 160.86L57.1156 160.775L57.7471 164.086Z" fill="#CC9E7F"/>
<path d="M57.2587 161.026H29.2208C27.8344 161.026 26.7104 159.911 26.7104 158.534V156.535C26.7104 155.158 27.8344 154.043 29.2208 154.043H57.2587C58.6451 154.043 59.7691 155.158 59.7691 156.535V158.534C59.7691 159.911 58.6451 161.026 57.2587 161.026Z" fill="#C65447"/>
<path d="M53.0526 145.827C52.2219 141.234 49.8034 136.01 49.8034 136.01C51.5636 128.69 49.7666 120.458 49.7666 120.458C48.7986 120.2 47.8127 120.012 46.8169 119.897C46.6926 119.244 46.3366 117.279 46.1854 115.586C46.1699 115.39 46.1557 115.198 46.143 115.011C46.1143 114.586 46.1143 114.158 46.143 113.732L44.9041 113.814L39.8 114.152L39.5839 114.166C39.5839 114.166 39.615 114.619 39.6234 115.304C39.639 116.536 39.5782 118.505 39.1332 119.918C36.9379 120.144 35.4503 120.462 35.4503 120.462C34.0136 120.705 34.3201 129.586 37.0043 136.49C38.2404 139.667 34.744 144.586 34.744 145.829C34.744 147.073 53.3521 147.486 53.0526 145.827Z" fill="#FFB27D"/>
<path d="M46.1807 115.583C45.7018 116.144 44.4939 117.347 42.9541 117.374C40.9495 117.409 39.6116 115.301 39.6116 115.301C39.6432 114.914 39.7022 114.529 39.7882 114.149L44.8923 113.811C45.3278 114.189 45.7437 114.589 46.1383 115.008C46.151 115.195 46.1651 115.387 46.1807 115.583Z" fill="#EF9E67"/>
<path d="M42.102 116.154C39.3614 115.704 37.4867 113.087 37.9345 110.338L38.6126 106.169C38.7554 105.282 39.2468 104.487 39.9792 103.96C40.7115 103.432 41.6249 103.214 42.5187 103.355L45.5419 103.85C46.4352 104.004 47.2312 104.502 47.7568 105.235C48.2824 105.968 48.4952 106.878 48.349 107.766L47.6313 112.163C47.4312 113.42 46.7363 114.546 45.6993 115.295C44.6624 116.043 43.3684 116.352 42.102 116.154V116.154Z" fill="#FFB27D"/>
<path d="M40.9673 112.782C40.9673 112.782 40.9673 113.459 42.5778 113.746C42.5778 113.746 43.9325 113.989 44.0625 113.274C44.0625 113.274 42.8886 112.458 40.9673 112.782Z" fill="white"/>
<path d="M29.1896 154.045C29.1896 154.045 32.5872 146.159 35.6979 144.618C38.8087 143.077 51.1953 144.446 53.0544 145.827C54.9135 147.208 57.2925 154.045 57.2925 154.045H29.1896Z" fill="#22356B"/>
<path d="M32.2872 154.044C32.2872 154.044 33.4993 149.314 36.1948 149.108C38.8902 148.902 42.4884 151.402 43.7669 150.729C45.0454 150.056 47.4879 148.367 49.7539 148.798C52.0198 149.228 55.4287 154.044 55.4287 154.044H32.2872Z" fill="#1B2E59"/>
<path d="M52.6236 169.91C52.5727 177.007 52.2958 183.774 52.2958 183.774L48.5621 184.092C48.5621 184.092 47.2511 178.314 45.5035 171.995C45.3623 171.495 45.2733 170.977 45.1588 170.462C44.081 165.622 43.0214 160.605 42.5185 157.46C41.2881 149.73 44.3748 149.311 45.0529 149.221C45.731 149.131 49.9493 147.432 51.9017 154.88C52.536 157.299 52.666 163.73 52.6236 169.91Z" fill="#FFB27D"/>
<path d="M45.5041 171.994C45.3892 171.488 45.2743 170.977 45.1594 170.462C44.0815 165.621 43.022 160.604 42.5191 157.459C42.5191 157.459 45.8855 170.57 50.6124 170.745C53.7373 170.863 49.0415 171.546 45.5041 171.994Z" fill="#EF9E67"/>
<path d="M52.6255 169.909C52.5972 173.938 52.4941 177.859 52.4122 180.498C52.35 182.506 52.2977 183.772 52.2977 183.772L48.3507 184.193C48.3507 184.193 46.9267 178.369 45.5606 170.85C46.1257 170.99 47.3632 171.029 49.7492 170.569C50.5672 170.412 51.5193 170.198 52.6255 169.909Z" fill="#E9F3FE"/>
<path d="M52.4111 180.494C52.349 182.502 52.2967 183.769 52.2967 183.769L48.3496 184.189C48.3496 184.189 46.5809 178.227 45.2163 170.707C45.7813 170.847 47.3621 171.025 49.7482 170.567C49.7482 170.568 49.508 178.58 52.4111 180.494Z" fill="#C7DCF2"/>
<path d="M52.9317 185.771C52.96 185.925 52.984 186.068 53.0038 186.192C53.0147 186.26 53.0118 186.33 52.995 186.397C52.9782 186.464 52.9479 186.528 52.906 186.583C52.8641 186.639 52.8114 186.685 52.751 186.72C52.6906 186.755 52.6238 186.777 52.5546 186.786L48.76 187.24C48.625 187.257 48.4888 187.22 48.3813 187.137C48.2738 187.054 48.2038 186.933 48.1865 186.799C48.088 186.013 48.1205 185.216 48.2826 184.44C48.299 184.364 48.3331 184.292 48.3821 184.231C48.4311 184.17 48.4937 184.12 48.5651 184.087C50.3804 183.246 51.6377 183.526 52.0968 183.686C52.1584 183.707 52.2151 183.74 52.2636 183.783C52.3122 183.826 52.3515 183.879 52.3794 183.937C52.6383 184.524 52.8238 185.14 52.9317 185.771V185.771Z" fill="#35488B"/>
<path d="M52.2181 183.835C52.2181 183.835 51.6629 183.134 50.3745 183.146C50.001 183.149 49.634 183.244 49.3062 183.422C48.9784 183.6 48.7 183.855 48.4956 184.166L48.3063 184.379C48.3346 184.331 48.9661 182.956 50.3731 182.94C50.7668 182.923 51.1583 183.006 51.5105 183.181C51.8628 183.357 52.1642 183.618 52.3862 183.941L52.2181 183.835Z" fill="#35488B"/>
<path d="M52.9317 185.771C52.96 185.925 52.984 186.068 53.0038 186.192C53.0147 186.26 53.0118 186.33 52.995 186.397C52.9782 186.465 52.9479 186.528 52.906 186.583C52.8641 186.639 52.8114 186.685 52.751 186.72C52.6906 186.755 52.6238 186.777 52.5546 186.786L48.76 187.24C48.625 187.257 48.4888 187.22 48.3813 187.137C48.2738 187.054 48.2038 186.933 48.1865 186.799C48.1555 186.558 48.1376 186.316 48.1328 186.074C48.1328 186.074 48.4874 186.904 50.7915 186.595C52.1844 186.413 52.7255 186.037 52.9317 185.771Z" fill="#22356B"/>
<path d="M38.4193 184.49L35.3114 183.66C35.3114 183.66 35.245 178.303 35.2549 172.076C35.2549 171.494 35.2549 170.904 35.2549 170.309C35.2761 165.121 35.3566 159.632 35.5798 156.293C35.6335 155.492 35.714 154.777 35.8172 154.138C36.71 148.541 39.2712 148.774 39.8843 148.83C40.5653 148.894 45.0548 148.18 45.3006 155.879C45.384 158.474 44.6112 165.344 42.4964 171.37C40.4664 177.17 38.4193 184.49 38.4193 184.49Z" fill="#FFB27D"/>
<path d="M35.2518 172.08C35.2518 171.499 35.2518 170.908 35.2518 170.314C35.273 165.125 35.3536 159.636 35.5768 156.297C35.6305 155.496 35.711 154.781 35.8141 154.142C35.8141 154.384 36.2153 169.823 40.2895 172.106C42.9087 173.567 38.672 172.817 35.2518 172.08Z" fill="#EF9E67"/>
<path d="M38.4182 184.489L35.1493 184.106L34.3158 184.01C34.3158 184.01 35.2298 177.252 35.2595 170.309C36.573 170.841 37.9598 171.174 39.3732 171.297C40.4335 171.364 41.4977 171.337 42.5532 171.217C40.9696 177.867 38.4182 184.489 38.4182 184.489Z" fill="#E9F3FE"/>
<path d="M35.1471 184.106L34.3136 184.01C34.3136 184.01 35.2277 177.252 35.2573 170.309C36.5709 170.841 37.9577 171.174 39.3711 171.297C39.3711 171.297 35.1542 180.274 35.1471 184.106Z" fill="#C7DCF2"/>
<path d="M38.6635 186.305C38.6748 186.462 38.6819 186.606 38.6861 186.735C38.6889 186.804 38.6777 186.873 38.6532 186.938C38.6286 187.003 38.5912 187.062 38.5431 187.112C38.495 187.163 38.4372 187.203 38.3732 187.23C38.3092 187.258 38.2402 187.273 38.1704 187.273H34.3477C34.212 187.273 34.0818 187.22 33.985 187.126C33.8883 187.032 33.8328 186.903 33.8306 186.769C33.8276 186.526 33.838 186.283 33.8617 186.041C33.9102 185.495 34.0245 184.956 34.2022 184.437C34.2272 184.364 34.2688 184.297 34.3239 184.242C34.379 184.187 34.4461 184.145 34.52 184.12C36.4215 183.493 37.6379 183.918 38.0786 184.136C38.1373 184.163 38.1898 184.203 38.2332 184.251C38.2766 184.299 38.31 184.355 38.3315 184.416C38.5191 185.03 38.6306 185.664 38.6635 186.305V186.305Z" fill="#35488B"/>
<path d="M38.1775 184.297C38.1775 184.297 37.7085 183.534 36.4272 183.398C36.0561 183.357 35.6804 183.407 35.3338 183.545C34.9872 183.683 34.6804 183.904 34.441 184.189L34.2291 184.378C34.263 184.333 35.0512 183.042 36.4498 183.192C36.843 183.221 37.2221 183.35 37.5513 183.565C37.8805 183.781 38.1491 184.076 38.3315 184.423L38.1775 184.297Z" fill="#35488B"/>
<path d="M38.6635 186.305C38.6748 186.462 38.6819 186.607 38.6861 186.736C38.6889 186.805 38.6777 186.874 38.6532 186.939C38.6286 187.003 38.5912 187.063 38.5431 187.113C38.495 187.163 38.4372 187.203 38.3732 187.231C38.3092 187.259 38.2402 187.273 38.1704 187.274H34.3477C34.212 187.274 34.0818 187.221 33.985 187.127C33.8883 187.032 33.8328 186.904 33.8306 186.769C33.8276 186.526 33.838 186.283 33.8617 186.042C33.8617 186.042 34.1174 186.908 36.4427 186.873C37.8469 186.855 38.4275 186.545 38.6635 186.305Z" fill="#22356B"/>
<path d="M58.647 139.826L53.468 139.91C53.0725 139.007 52.3802 135.996 51.6965 134.178C51.9508 135.289 52.2008 136.435 52.4339 137.561C53.3479 141.932 54.0402 146.045 53.9328 146.926C53.687 148.931 45.8719 148.028 43.8574 147.546C41.8429 147.063 37.2629 148.167 33.5984 148.097C31.4921 148.057 32.1377 142.173 33.0658 137.188C33.2876 135.993 33.5263 134.847 33.7481 133.849C32.5643 136.21 32.026 139.123 31.7393 139.91C31.7393 139.91 26.6804 139.582 26.679 139.569C26.5081 138.673 28.4124 124.478 32.2874 121.577C33.0643 120.961 33.9601 120.509 34.9195 120.249C35.879 119.99 36.8818 119.928 37.8662 120.068C37.8662 120.068 39.1376 122.338 42.8106 122.509C43.8681 122.569 44.9252 122.387 45.9014 121.979C46.8775 121.571 47.7469 120.947 48.443 120.155C48.443 120.155 51.5128 120.231 52.7532 121.577C53.9935 122.923 56.737 127.751 58.647 139.826Z" fill="#C65447"/>
<path d="M53.9338 146.92C53.688 148.925 45.873 148.022 43.8584 147.54C41.8439 147.057 37.264 148.161 33.5994 148.091C31.4931 148.052 32.1387 142.167 33.0668 137.182C33.0668 137.182 37.0379 144.155 41.988 144.107C46.9381 144.059 52.4349 137.555 52.4349 137.555C53.349 141.929 54.0412 146.039 53.9338 146.92Z" fill="#B5493F"/>
<path d="M39.4175 118.583C39.4175 118.583 41.1396 121.975 42.8179 122.509C42.8179 122.509 40.4318 123.413 36.9537 119.998C37.2035 119.568 37.5626 119.212 37.995 118.963C38.4274 118.715 38.9179 118.584 39.4175 118.583V118.583Z" fill="#E6F1FF"/>
<path d="M46.6549 118.583C46.6549 118.583 44.5005 121.975 42.8236 122.509C42.8236 122.509 45.6406 123.413 49.1187 119.998C48.8687 119.569 48.5096 119.212 48.0772 118.964C47.6448 118.715 47.1544 118.584 46.6549 118.583V118.583Z" fill="#E6F1FF"/>
<path d="M42.5751 122.494C42.5754 122.44 42.5918 122.388 42.6221 122.343C42.6525 122.299 42.6955 122.264 42.7457 122.244C42.7959 122.223 42.8511 122.218 42.9042 122.229C42.9574 122.24 43.0061 122.266 43.0442 122.304C43.0824 122.343 43.1082 122.391 43.1185 122.444C43.1288 122.497 43.1231 122.551 43.1021 122.601C43.0811 122.651 43.0457 122.693 43.0005 122.723C42.9552 122.752 42.9022 122.768 42.8479 122.768C42.8119 122.767 42.7763 122.76 42.7431 122.746C42.7099 122.733 42.6798 122.712 42.6545 122.687C42.6291 122.662 42.6091 122.631 42.5955 122.598C42.5819 122.565 42.5749 122.53 42.5751 122.494V122.494Z" fill="#35488B"/>
<path d="M42.2953 129.47C42.2961 129.368 42.3274 129.268 42.3852 129.183C42.4431 129.099 42.5248 129.033 42.6202 128.995C42.7155 128.956 42.8203 128.947 42.9212 128.967C43.0221 128.987 43.1146 129.037 43.1871 129.11C43.2596 129.182 43.3089 129.274 43.3287 129.375C43.3484 129.475 43.3379 129.579 43.2983 129.673C43.2587 129.767 43.1918 129.848 43.1062 129.904C43.0205 129.961 42.9198 129.991 42.8169 129.991C42.678 129.991 42.5452 129.935 42.4474 129.837C42.3496 129.74 42.2949 129.607 42.2953 129.47Z" fill="#A53D38"/>
<path d="M42.2953 137.853C42.2964 137.751 42.328 137.651 42.386 137.567C42.4439 137.482 42.5258 137.417 42.6212 137.379C42.7166 137.34 42.8212 137.331 42.922 137.351C43.0228 137.372 43.1153 137.422 43.1876 137.494C43.26 137.567 43.3091 137.659 43.3288 137.759C43.3484 137.859 43.3378 137.963 43.2982 138.057C43.2585 138.152 43.1917 138.232 43.106 138.289C43.0204 138.345 42.9198 138.376 42.8169 138.376C42.748 138.375 42.6799 138.361 42.6164 138.335C42.5529 138.308 42.4953 138.27 42.4469 138.221C42.3985 138.173 42.3602 138.115 42.3342 138.052C42.3082 137.989 42.2949 137.921 42.2953 137.853V137.853Z" fill="#A53D38"/>
<path d="M57.7341 153.539L57.7482 152.08C57.7482 152.08 59.7571 139.693 58.3655 139.309C56.974 138.925 54.3563 140.244 54.3563 140.244L55.1799 152.08C55.166 152.352 55.1258 152.622 55.0598 152.886C55.0245 152.886 54.9892 152.901 54.9553 152.91C53.5892 153.3 54.41 156.117 55.4286 156.167C56.1759 156.203 57.1421 155.08 57.7976 154.694C58.0816 154.526 57.9982 153.738 57.7341 153.539Z" fill="#FFB27D"/>
<path d="M53.4682 139.904C53.4682 139.904 53.1447 141.65 53.9429 141.905C54.741 142.16 58.8181 142.288 59.0724 141.905C59.3266 141.522 58.9735 138.592 58.366 138.376C57.7585 138.16 53.8482 138.961 53.4682 139.904Z" fill="#B5493F"/>
<path d="M30.253 152.91C30.2191 152.9 30.1838 152.893 30.1499 152.886C30.0839 152.622 30.0437 152.352 30.0298 152.08L30.8534 140.244C30.8534 140.244 28.2343 138.926 26.8427 139.309C25.4512 139.691 27.4615 152.08 27.4615 152.08L27.4742 153.538C27.21 153.737 27.1267 154.52 27.4121 154.694C28.0662 155.079 29.0324 156.203 29.7798 156.166C30.7983 156.117 31.6191 153.3 30.253 152.91Z" fill="#FFB27D"/>
<path d="M31.7413 139.904C31.7413 139.904 32.0648 141.65 31.2667 141.905C30.4685 142.16 26.3914 142.288 26.1371 141.905C25.8828 141.522 26.2374 138.592 26.8435 138.376C27.4495 138.16 31.3627 138.961 31.7413 139.904Z" fill="#B5493F"/>
<path d="M44.5755 104.374C44.5755 104.374 44.8863 107.179 46.6946 108.249C46.6946 108.249 46.0546 106.558 46.4911 105.854C46.4911 105.854 46.8556 109.019 47.9377 110.264C47.9377 110.264 50.7462 104.287 45.7085 103.138C40.6708 101.988 38.1901 104.33 37.8454 106.247C37.6414 107.419 37.7017 108.622 38.022 109.769C38.022 109.769 39.1592 106.3 41.5537 105.627C43.9482 104.954 44.5755 104.374 44.5755 104.374Z" fill="#1B2E59"/>
<path d="M324.563 79.0309C324.563 79.0309 315.919 96.3892 314.816 99.1673C314.392 100.236 299.029 95.5015 299.029 95.5015C299.029 95.5015 297.722 94.3656 297.603 93.0951C297.573 92.7726 297.188 92.422 296.624 92.0868L292.023 93.405C292.481 94.5535 293.054 95.6782 293.376 95.9671C294.045 96.5715 298.038 98.3217 298.038 98.3217C300.505 100.737 315.848 106.949 317.219 106.21C318.658 105.433 325.313 93.4078 327.89 90.2329C330.467 87.058 329.445 76.6497 324.563 79.0309Z" fill="#FFB27D"/>
<path d="M280.637 77.437L275.986 78.6809L284.715 95.1725L295.876 92.4758L305.211 89.1256L298.842 72.2539L289.827 79.1647L280.637 77.437Z" fill="#A03732"/>
<path d="M295.878 92.1873L289.521 76.9185C289.521 76.9185 281.788 74.1545 276.806 77.4556L284.928 93.7327C284.928 93.7327 289.292 90.4877 295.878 92.1873Z" fill="#E9F3FE"/>
<path d="M299.323 71.0071C292.814 70.6229 289.521 76.918 289.521 76.918L295.878 92.1868C297.869 88.7216 305.985 88.4355 305.985 88.4355L299.323 71.0071Z" fill="#C7DCF2"/>
<path d="M305.09 178.671C305.09 178.671 306.009 183.019 305.09 184.211C304.172 185.403 301.667 185.686 301.724 187.394H313.859C313.859 187.394 313.446 184.336 312.164 183.033C310.881 181.73 309.608 174.125 309.608 174.125L305.09 178.671Z" fill="#163560"/>
<path d="M321.967 178.671C321.967 178.671 322.886 183.019 321.967 184.211C321.047 185.403 318.545 185.686 318.602 187.394H330.737C330.737 187.394 330.324 184.336 329.042 183.033C327.759 181.73 326.486 174.125 326.486 174.125L321.967 178.671Z" fill="#163560"/>
<path d="M346.734 141.36C345.887 141.54 345.031 141.67 344.168 141.747V141.747C339.789 142.221 331.584 142.589 323.694 142.67C320.89 142.701 318.127 142.697 315.585 142.651H315.553C313.346 142.608 311.315 142.534 309.563 142.425C307.63 142.306 306.054 142.136 305.005 141.917C304.241 141.76 303.755 141.575 303.607 141.356C302.351 139.533 299.228 135.898 299.626 133.133C299.703 132.553 299.956 132.01 300.351 131.576C300.351 131.576 302.495 130.764 305.86 129.613C312.541 127.345 324.044 123.772 333.255 122.615C338.693 121.931 343.332 122.088 345.708 123.855C354.151 130.135 352.113 140.048 346.734 141.36Z" fill="#B23636"/>
<path d="M327.868 176.244C326.541 179.126 322.161 179.267 322.161 179.267C321.163 176.993 320.237 174.823 319.382 172.757C313.429 158.409 310.701 148.927 309.603 142.69C309.588 142.6 309.574 142.516 309.559 142.427C307.854 132.46 310.384 130.944 310.384 130.944L310.537 130.913C312.62 130.478 314.791 130.877 316.579 132.023C319.597 133.925 321.889 137.773 323.609 142.443C323.634 142.517 323.662 142.594 323.691 142.673C325.902 148.774 327.142 156.236 327.747 162.586C328.418 169.619 328.306 175.29 327.868 176.244Z" fill="#892828"/>
<path d="M342.74 76.0851C342.74 76.0851 343.146 76.1314 343.756 76.2254C345.228 76.4694 347.886 77.0345 348.85 78.04C350.216 79.462 357.382 98.6153 357.007 101.393C356.633 104.171 348.61 108.439 345.884 108.767L342.74 76.0781V76.0851Z" fill="#0052B4"/>
<path d="M333.077 78.9427C333.048 78.9666 333.099 83.0629 336.632 82.1822C338.953 81.6044 343.428 77.7395 342.577 75.8211C342.172 74.9096 339.903 72.7892 338.407 67.2051L338.003 67.4056L331.222 70.7867C331.222 70.7867 332 73.001 332.584 75.134C333.079 76.915 333.433 78.6398 333.077 78.9427Z" fill="#F4A269"/>
<path d="M328.321 72.2324C328.321 72.2324 338.517 74.5379 339.855 68.1474C341.193 61.7569 343.411 57.7517 336.955 56.0058C330.499 54.2599 328.722 56.4265 327.757 58.4557C326.792 60.4849 325.701 71.4611 328.321 72.2324Z" fill="#FFB27D"/>
<path d="M348.848 132.014C348.848 132.014 342.621 137.107 342.984 140.631C343.347 144.155 338.061 139.93 338.061 139.93L340.469 132.016L348.848 132.014Z" fill="#A03732"/>
<path d="M336.257 68.3738C338.696 69.2054 342.422 64.4052 343.49 61.6075C344.8 58.1816 341.795 51.383 333.955 52.3758C332.374 52.5691 330.858 53.1152 329.52 53.9731C327.804 55.095 323.238 57.9992 330.618 61.0984C333.388 62.2624 334.131 67.6488 336.257 68.3738Z" fill="#1C468A"/>
<path d="M337.174 141.361C335.349 141.808 329.969 142.202 323.612 142.443C321.042 142.54 318.309 142.614 315.585 142.654C315.574 142.655 315.563 142.655 315.552 142.654C313.545 142.683 311.539 142.699 309.606 142.69C308.315 142.69 307.063 142.673 305.854 142.648C306.337 143.983 306.774 145.381 307.168 146.82C310.571 159.25 310.785 174.603 310.034 176.229C308.706 179.111 304.326 179.251 304.326 179.251C300.212 169.855 297.345 162.247 295.379 156.097C288.522 134.67 292.554 130.93 292.554 130.93C292.554 130.93 296.085 128.749 301.304 127.416C311.005 124.938 325.691 120.843 333.268 122.625C334.418 122.893 335.394 123.3 336.157 123.866C338.512 125.615 340.047 127.653 340.926 129.694C343.195 134.997 341.053 140.414 337.174 141.361Z" fill="#A03732"/>
<path d="M351.475 130.063C350.941 130.811 350.031 131.466 348.851 132.014C340.409 135.961 320.197 127.226 321.162 121.38C321.501 119.321 323.101 119.334 324.348 115.972C325.317 113.361 326.014 110.915 325.981 108.523C325.971 107.496 325.812 106.476 325.508 105.494C324.748 103.054 324.05 99.1301 323.606 94.9483C322.852 87.8258 323.42 80.6065 325.116 78.0738C325.357 77.7162 339.304 73.7994 350.133 77.3348C350.133 77.3348 350.989 89.9461 348.515 103.106C348.181 104.86 348.339 106.672 348.97 108.344C350.936 113.555 354.819 125.382 351.475 130.063Z" fill="#0052B4"/>
<path d="M330.118 105.675C331.578 101.105 332 95.4382 329.032 89.582C326.891 91.0095 325.046 92.8319 323.597 94.9502C324.041 99.132 324.739 103.056 325.499 105.496C325.811 106.503 325.97 107.551 325.972 108.605C325.972 108.665 325.972 108.724 325.972 108.784C325.972 108.925 325.972 109.058 325.962 109.195C325.962 109.254 325.962 109.313 325.962 109.371C325.952 109.55 325.94 109.731 325.921 109.911C325.921 109.969 325.908 110.028 325.903 110.086C325.889 110.226 325.872 110.354 325.853 110.488C325.845 110.557 325.835 110.629 325.824 110.696C325.8 110.86 325.773 111.023 325.745 111.187C325.733 111.247 325.721 111.307 325.709 111.369C325.681 111.509 325.651 111.665 325.619 111.812C325.603 111.886 325.586 111.961 325.569 112.035C325.538 112.175 325.507 112.302 325.473 112.436C325.458 112.498 325.444 112.558 325.428 112.62C325.382 112.801 325.332 112.982 325.287 113.164C325.266 113.238 325.244 113.313 325.222 113.388C325.185 113.516 325.146 113.645 325.106 113.774L325.04 113.991C324.982 114.176 324.921 114.362 324.859 114.552L324.795 114.739C324.746 114.879 324.696 115.029 324.644 115.175L324.572 115.38C324.501 115.577 324.431 115.777 324.354 115.978C323.107 119.344 320.108 121.055 320.116 122.75C320.129 127.134 340.425 135.968 348.868 132.02C329.168 135.048 330.115 105.799 330.118 105.675Z" fill="#4395F2"/>
<path d="M326.624 57.9947C326.624 57.9947 327.688 65.6641 333.62 68.452C333.62 68.452 329.746 59.5667 331.708 57.8713C333.67 56.1758 326.624 57.9947 326.624 57.9947Z" fill="#1C468A"/>
<path d="M332.474 64.4874C332.474 64.4874 333.491 62.4095 334.436 62.8049C335.381 63.2003 334.073 66.5596 333.447 66.5218C332.822 66.4839 332.474 64.4874 332.474 64.4874Z" fill="#FFB27D"/>
<path d="M331.285 90.1121C329.704 91.2732 326.982 97.4505 323.181 101.796C323.175 101.806 323.168 101.815 323.161 101.823C322.467 102.626 321.704 103.369 320.882 104.043C314.566 109.129 309.759 107.752 309.759 107.752C306.548 105.975 305.52 102.307 305.211 99.8177C305.1 98.9741 305.059 98.1228 305.088 97.2725C305.088 97.2725 312.958 98.7127 313.769 98.6033C314.58 98.4939 322.593 79.8679 323.682 78.7572C326.039 76.3634 335.699 75.766 335.699 75.766C338.254 74.6834 333.168 88.7251 331.285 90.1121Z" fill="#0052B4"/>
<path d="M323.182 101.797C323.176 101.806 323.17 101.815 323.162 101.824C322.468 102.627 321.706 103.37 320.884 104.044C314.567 109.13 309.76 107.753 309.76 107.753C306.549 105.976 305.522 102.308 305.213 99.8184C306.233 100.794 313.587 107.291 323.182 101.797Z" fill="#4395F2"/>
<path d="M357.638 76.8805C353.307 73.7084 348.721 69.8463 349.652 66.5284C351.811 58.8379 345.486 49.5066 338.916 52.2581C335.384 53.7361 332.522 73.0493 337.386 78.3642C336.955 77.2928 336.48 75.3982 336.284 72.0326C336.316 72.365 336.76 76.6155 338.144 79.0444C345.232 88.4036 332.47 88.5074 337.624 97.0099C337.624 97.0099 338.064 99.9548 349.747 96.7392C351.806 96.1804 353.651 95.0247 355.046 93.4199C356.021 92.2896 356.908 90.9167 357.024 89.5844C356.98 91.5228 356.378 93.4084 355.29 95.0185C358.85 93.7564 361.167 90.1804 361.647 86.0771C362.016 83.0074 361.291 79.5576 357.638 76.8805Z" fill="#1C468A"/>
<path d="M356.581 144.154H306.338C306.338 144.154 307.508 139.273 336.605 139.999C338.916 140.058 340.959 140.155 342.769 140.28C357.065 141.287 356.581 144.154 356.581 144.154Z" fill="#E5BD9E"/>
<path d="M318.315 187.999C324.159 161.916 322.656 145.915 322.649 145.714C322.635 145.312 323.474 144.947 323.921 144.935C324.367 144.922 326.396 144.817 326.629 145.16C326.934 145.611 328.112 165.328 319.403 187.999H318.315Z" fill="#A06B47"/>
<path d="M304.455 187.999C310.298 161.916 308.797 145.915 308.79 145.714C308.774 145.312 309.613 144.947 310.061 144.935C310.509 144.922 312.535 144.817 312.768 145.16C313.074 145.611 314.251 165.328 305.542 187.999H304.455Z" fill="#A06B47"/>
<path d="M357.337 144.933C357.338 145.138 357.257 145.336 357.113 145.482C356.968 145.628 356.771 145.712 356.564 145.714H306.046C305.944 145.715 305.844 145.694 305.75 145.655C305.657 145.615 305.572 145.557 305.502 145.484C305.394 145.376 305.321 145.238 305.291 145.088C305.261 144.939 305.275 144.784 305.333 144.642C305.391 144.501 305.489 144.379 305.616 144.293C305.743 144.206 305.892 144.158 306.046 144.155H356.564C356.666 144.156 356.766 144.176 356.86 144.216C356.954 144.255 357.039 144.313 357.109 144.385C357.255 144.531 357.337 144.728 357.337 144.933V144.933Z" fill="#CE9A78"/>
<path d="M344.321 144.154H306.333C306.333 144.154 307.506 139.273 336.694 139.999C339.012 140.058 341.063 140.155 342.877 140.28C342.787 140.89 342.635 142.875 344.321 144.154Z" fill="#D6A685"/>
<path d="M357.337 144.933C357.336 145.14 357.253 145.339 357.106 145.485C356.958 145.631 356.759 145.714 356.55 145.714H329.594C329.491 145.715 329.389 145.694 329.294 145.655C329.199 145.615 329.113 145.557 329.041 145.484C328.93 145.376 328.854 145.237 328.824 145.086C328.793 144.935 328.808 144.778 328.867 144.635C328.927 144.493 329.028 144.371 329.157 144.285C329.287 144.2 329.439 144.155 329.594 144.155H356.55C356.758 144.156 356.958 144.239 357.105 144.385C357.178 144.457 357.236 144.542 357.276 144.636C357.316 144.73 357.337 144.831 357.337 144.933Z" fill="#7C4F31"/>
<path d="M355.772 145.03H355.783C356.235 145.03 356.597 144.694 356.59 144.293C356.131 115.699 367.158 93.7126 367.27 93.4938C367.456 93.1278 367.421 92.3116 366.231 92.2065C365.193 92.1167 364.549 92.3467 364.362 92.7099C364.334 92.7646 361.873 97.9968 359.135 107.091C356.615 115.476 354.704 129.205 354.947 144.314C354.96 144.712 355.325 145.03 355.772 145.03Z" fill="#7C4F31"/>
<path d="M331.181 145.03H331.193C331.645 145.03 332.005 144.694 331.999 144.293C331.54 115.699 342.568 93.7126 342.679 93.4938C342.864 93.1278 342.829 92.3116 341.641 92.2065C340.603 92.1167 339.958 92.3467 339.772 92.7099C339.744 92.7646 337.283 97.9968 334.545 107.091C332.026 115.476 330.115 129.205 330.358 144.314C330.369 144.712 330.735 145.03 331.181 145.03Z" fill="#7C4F31"/>
<path d="M363.055 102.275C363.239 102.282 363.42 102.225 363.566 102.115C363.713 102.004 363.817 101.847 363.86 101.669C363.936 101.274 363.638 100.898 363.192 100.828C362.486 100.72 345.759 98.2174 338.272 100.305C337.848 100.426 337.601 100.834 337.737 101.216C337.817 101.409 337.966 101.564 338.156 101.652C338.346 101.741 338.562 101.755 338.762 101.693C345.872 99.7092 362.747 102.236 362.919 102.261C362.964 102.269 363.009 102.274 363.055 102.275Z" fill="#7C4F31"/>
<path d="M361.146 107.09C361.33 107.097 361.511 107.04 361.657 106.93C361.804 106.819 361.908 106.662 361.951 106.484C362.027 106.089 361.728 105.713 361.283 105.643C360.576 105.535 343.849 103.031 336.363 105.12C335.932 105.241 335.692 105.649 335.827 106.033C335.908 106.225 336.057 106.38 336.247 106.468C336.437 106.556 336.653 106.57 336.853 106.508C343.966 104.523 360.838 107.051 361.01 107.069C361.055 107.079 361.1 107.086 361.146 107.09Z" fill="#7C4F31"/>
<path d="M360.839 187.999C354.996 161.916 356.498 145.915 356.506 145.714C356.52 145.312 355.681 144.947 355.235 144.935C354.788 144.922 352.761 144.817 352.528 145.16C352.221 145.611 351.045 165.328 359.754 187.999H360.839Z" fill="#7C4F31"/>
<path d="M338.061 188C332.218 161.601 333.719 145.402 333.726 145.198C333.742 144.791 332.903 144.422 332.455 144.409C332.007 144.397 329.981 144.289 329.747 144.637C329.442 145.092 328.265 165.052 336.974 188H338.061Z" fill="#7C4F31"/>
<path d="M285.362 93.4495L285.706 94.1632C285.706 94.1632 293.425 92.0811 295.878 92.1863C295.877 92.1863 290.402 90.3748 285.362 93.4495Z" fill="#C7DCF2"/>
<path d="M295.878 92.1861L304.721 88.9334L304.567 88.5464C304.567 88.5464 297.772 88.9333 295.878 92.1861Z" fill="#ADC7E0"/>
<path d="M297.697 93.548C297.697 93.548 297.539 91.2135 296.153 90.3723C295.54 90.0442 295.039 89.7947 294.7 89.6334C294.636 89.6044 294.565 89.5924 294.496 89.5989C294.426 89.6053 294.359 89.6298 294.302 89.67C294.244 89.7102 294.199 89.7647 294.169 89.8279C294.14 89.8911 294.128 89.9609 294.134 90.0302C294.172 90.3512 294.322 90.6488 294.558 90.8714C295.265 91.5809 295.448 92.7614 295.448 92.7614L297.697 93.548Z" fill="#FFB27D"/>
</svg>
