<svg width="121" height="39" viewBox="0 0 121 39" fill="none" xmlns="http://www.w3.org/2000/svg">
<path d="M19.034 29.4735H13.9014L18.0117 24.3928C18.0117 24.3928 20.103 26.1329 20.1665 27.111L18.894 28.7368L19.034 29.4735Z" fill="#C84E2A"/>
<path d="M10.6264 29.4736H7.03784L6.44824 28.1272C7.4946 27.6206 8.49882 27.0317 9.45146 26.3659C9.45146 26.3659 10.2999 27.018 9.58294 28.233C9.56179 28.233 10.6264 29.4736 10.6264 29.4736Z" fill="#C84E2A"/>
<path d="M64.5225 13.6438V9.38158H65.6545V12.8323H70.4034V13.6438H64.5225ZM68.0631 9.99587C68.3468 9.99587 68.5824 10.0364 68.7698 10.1173C68.9623 10.1981 69.1142 10.3043 69.2256 10.4358C69.3371 10.5672 69.4157 10.7139 69.4612 10.8757C69.5068 11.0324 69.5296 11.1916 69.5296 11.3535C69.5296 11.586 69.5017 11.8313 69.446 12.0891C69.3903 12.3419 69.327 12.5897 69.2561 12.8323L68.405 15.7976L67.3793 15.5246L67.972 13.5072L68.0024 13.3631L68.1847 12.7488C68.2556 12.4961 68.3139 12.2635 68.3595 12.0511C68.4101 11.8389 68.4355 11.6316 68.4355 11.4292C68.4355 11.2371 68.4 11.0854 68.3291 10.9742C68.2632 10.863 68.1569 10.8073 68.01 10.8073C67.858 10.8073 67.7339 10.863 67.6376 10.9742C67.5465 11.0854 67.5009 11.2447 67.5009 11.452C67.5009 11.6492 67.5364 11.8413 67.6073 12.0284C67.6833 12.2104 67.7845 12.3874 67.9112 12.5593C68.0379 12.7312 68.1772 12.8955 68.3291 13.0522L67.5389 13.5224C67.3464 13.305 67.1691 13.0901 67.007 12.8778C66.8449 12.6604 66.7158 12.4329 66.6195 12.1952C66.5283 11.9576 66.4827 11.6973 66.4827 11.4141C66.4827 11.1613 66.541 10.9288 66.6575 10.7164C66.774 10.499 66.9487 10.3246 67.1818 10.193C67.4199 10.0616 67.7136 9.99587 68.0631 9.99587Z" fill="black"/>
<path d="M72.769 13.7347C72.389 13.7347 72.0547 13.6841 71.766 13.583C71.4773 13.4768 71.2519 13.3251 71.0898 13.128C70.9276 12.9257 70.8467 12.6805 70.8467 12.3923C70.8467 12.1143 70.9276 11.8741 71.0898 11.6718C71.257 11.4645 71.5204 11.3027 71.88 11.1865C72.2396 11.0702 72.7108 11.0121 73.2932 11.0121H76.3249V11.778H73.1565C72.9792 11.778 72.8095 11.7881 72.6475 11.8084C72.4904 11.8235 72.3562 11.8589 72.2447 11.9145C72.1485 11.9651 72.0776 12.0283 72.0319 12.1042C71.9864 12.18 71.9635 12.2684 71.9635 12.3696C71.9635 12.5617 72.0421 12.7033 72.1991 12.7943C72.3612 12.8802 72.5765 12.9232 72.845 12.9232C73.0425 12.9232 73.2096 12.8928 73.3464 12.8322C73.4882 12.7715 73.5972 12.6629 73.6732 12.5061C73.7492 12.3443 73.7871 12.1218 73.7871 11.8387V10.1929H72.6398V11.3534L71.6216 11.4747V9.38145H76.3249V10.1929H74.8736V11.8235C74.8736 12.1775 74.8408 12.4581 74.7749 12.6654C74.7091 12.8676 74.6128 13.0395 74.4862 13.181C74.2988 13.3833 74.0581 13.5274 73.7643 13.6134C73.4757 13.6943 73.1438 13.7347 72.769 13.7347Z" fill="black"/>
<path d="M75.7015 7.18974C76.1524 7.18974 76.5271 7.24281 76.826 7.34904C77.13 7.45517 77.3832 7.60434 77.5859 7.79644C77.7125 7.9128 77.8265 8.05934 77.9278 8.23635C78.0342 8.4082 78.1177 8.64335 78.1786 8.94169C78.2444 9.23992 78.2773 9.64186 78.2773 10.1475V13.6437H77.1452V10.3598C77.1452 10.016 77.1325 9.71264 77.1072 9.44975C77.0818 9.18686 77.0287 8.95931 76.9476 8.7672C76.8716 8.57509 76.7526 8.41327 76.5906 8.28182C76.4943 8.20091 76.3778 8.13518 76.241 8.08465C76.0992 8.03412 75.9117 8.0088 75.6788 8.0088C75.4254 8.0088 75.2228 8.04931 75.0709 8.13012C74.9189 8.21104 74.81 8.3198 74.7441 8.45631C74.6783 8.58775 74.6454 8.72933 74.6454 8.88092C74.6454 9.01247 74.6681 9.14898 74.7138 9.29056C74.7543 9.43203 74.8227 9.5812 74.9189 9.73796H73.7792C73.7133 9.61664 73.6627 9.47253 73.6273 9.30564C73.5867 9.13885 73.5664 8.97703 73.5664 8.82026C73.5664 8.53216 73.6273 8.28688 73.7488 8.08465C73.8653 7.87736 74.0249 7.70793 74.2275 7.57649C74.4301 7.44504 74.6606 7.34904 74.9189 7.28838C75.1722 7.22266 75.433 7.18974 75.7015 7.18974Z" fill="black"/>
<path d="M81.1147 13.7348C80.7348 13.7348 80.4005 13.6843 80.1118 13.5831C79.823 13.477 79.5976 13.3253 79.4356 13.1281C79.2734 12.9259 79.1924 12.6806 79.1924 12.3924C79.1924 12.1144 79.2734 11.8742 79.4356 11.6719C79.6027 11.4647 79.8661 11.3028 80.2257 11.1866C80.5854 11.0703 81.0565 11.0122 81.639 11.0122H83.2498C83.574 11.0122 83.8425 11.0247 84.0553 11.0501C84.268 11.0754 84.4503 11.1183 84.6023 11.179C84.7542 11.2346 84.896 11.3104 85.0278 11.4065C85.1797 11.5127 85.2988 11.6542 85.3849 11.8312C85.4761 12.0031 85.5216 12.2003 85.5216 12.4228C85.5216 12.8323 85.3899 13.1533 85.1265 13.3859C84.8682 13.6185 84.4959 13.7348 84.0096 13.7348C83.888 13.7348 83.7487 13.7272 83.5917 13.712C83.4398 13.7019 83.298 13.6792 83.1663 13.6437L83.3486 12.8627C83.4195 12.8828 83.4904 12.898 83.5614 12.9081C83.6323 12.9132 83.7083 12.9157 83.7892 12.9157C84.002 12.9157 84.1641 12.8728 84.2755 12.7868C84.387 12.6958 84.4427 12.5567 84.4427 12.3697C84.4427 12.2382 84.4073 12.1345 84.3364 12.0587C84.2705 11.9778 84.1768 11.9171 84.0553 11.8767C83.9387 11.8363 83.8044 11.811 83.6525 11.8009C83.5006 11.7857 83.3435 11.7781 83.1814 11.7781H81.5023C81.3249 11.7781 81.1553 11.7882 80.9932 11.8085C80.8361 11.8236 80.7019 11.859 80.5905 11.9146C80.4942 11.9652 80.4233 12.0284 80.3777 12.1043C80.3322 12.1801 80.3093 12.2685 80.3093 12.3697C80.3093 12.5618 80.3879 12.7034 80.5449 12.7944C80.7069 12.8853 80.9222 12.9309 81.1907 12.9309C81.3882 12.9309 81.5554 12.9005 81.6922 12.8399C81.834 12.7742 81.9429 12.663 82.0189 12.5062C82.0949 12.3444 82.1328 12.1219 82.1328 11.8388V10.193H80.9855V11.3535L79.9674 11.4748V9.38156H84.6631V10.193H83.2347V11.8236C83.2347 12.1776 83.1991 12.4582 83.1282 12.6655C83.0624 12.8677 82.9661 13.0396 82.8395 13.1812C82.6521 13.3834 82.4114 13.5275 82.1177 13.6135C81.829 13.6944 81.4947 13.7348 81.1147 13.7348Z" fill="black"/>
<path d="M86.4336 13.6437V9.38156H90.9697V10.193H89.8832V13.6437H88.751V10.193H87.5658V13.6437H86.4336Z" fill="black"/>
<path d="M91.7031 13.6437V9.38152H92.8352V12.8322H95.6772V9.38152H96.8095V13.6437H91.7031ZM94.2639 8.62312C94.0813 8.62312 93.9322 8.56499 93.8155 8.44874C93.6988 8.32742 93.641 8.17572 93.641 7.99364C93.641 7.81166 93.6988 7.66249 93.8155 7.54623C93.9322 7.42491 94.0813 7.36415 94.2639 7.36415C94.4405 7.36415 94.5876 7.42491 94.7042 7.54623C94.8209 7.66249 94.8787 7.81166 94.8787 7.99364C94.8787 8.17572 94.8209 8.32742 94.7042 8.44874C94.5876 8.56499 94.4405 8.62312 94.2639 8.62312Z" fill="black"/>
<path d="M46.4213 20.3327C45.9116 19.8558 45.5045 19.2803 45.2248 18.6413C45.2248 18.6143 45.8907 16.8689 45.7229 16.0366C45.5604 15.2909 46.8381 14.7883 46.8381 14.7883C46.8381 14.7883 47.0601 13.7076 46.6162 13.486C46.0358 13.4241 45.4508 13.5511 44.9486 13.848C44.9486 13.8751 44.5317 13.0159 42.2796 12.6538C42.3449 12.3571 42.4761 12.0788 42.6635 11.8394C42.8509 11.6 43.0897 11.4055 43.3623 11.2704C44.0283 10.9083 43.4165 10.2977 43.1674 10.2437C42.9184 10.1896 41.1696 9.271 39.6971 11.8648C38.7339 11.7715 37.823 11.3848 37.0876 10.757C36.113 9.78969 34.0286 6.90405 32.6697 6.76359C31.3108 6.62303 29.9194 6.6285 28.5822 8.31989C27.245 10.0113 24.5542 13.3671 24.5542 13.3671C24.5542 13.3671 25.9726 9.89785 27.6943 8.26044C27.6943 8.26044 24.5271 9.17915 22.5564 10.649C20.5857 12.1188 19.4812 12.9024 18.3985 12.9024C17.3157 12.9024 15.8972 11.8216 15.0905 12.2917C14.2839 12.7618 7.4731 17.2309 6.8884 18.6737C6.3036 20.1165 5.77846 23.467 5.13968 23.2292C4.5008 22.9914 4.5008 22.4132 4.22463 22.5807C3.94856 22.7482 3.44503 23.3588 4.111 23.7696C4.77686 24.1802 6.36316 23.9317 7.69499 20.9109C7.69499 20.9109 7.36475 24.9854 7.77626 25.9581C8.18767 26.9309 8.89148 27.2874 8.16606 29.2005C7.44054 31.1135 6.86131 32.5293 6.86131 32.5293H12.6705L11.6418 30.7946C11.6418 30.7946 16.0597 28.7682 16.6984 27.8819C17.3373 26.9957 18.9723 23.2238 20.9485 22.7807C21.3057 22.6996 20.0552 23.4724 19.5029 24.2505C18.9156 25.3095 18.4141 26.4135 18.0033 27.5523C18.0033 27.5523 22.0042 28.0225 27.9162 25.3907C28.7536 26.1655 29.5334 26.9999 30.2496 27.8874C30.9481 28.86 31.8089 32.4373 31.8089 32.4373H38.1974L38.3652 31.897C37.974 31.4555 37.4765 31.1207 36.9197 30.9243C35.9181 30.5406 34.9491 29.2653 34.9165 28.5142C34.8253 27.8041 35.02 27.087 35.458 26.5201C36.5869 25.0891 37.2467 23.3456 37.3474 21.527C37.3474 21.5 37.8888 23.6075 41.6786 25.0773C43.3353 25.742 43.4219 25.9312 43.947 26.4715C43.947 26.4715 46.4754 26.0554 47.8072 22.8401C48.8812 22.3872 49.8416 21.7027 50.6195 20.8356C51.3973 19.9687 51.9734 18.9406 52.3062 17.8253C52.3062 17.8253 48.3378 20.3651 46.4213 20.3327ZM41.7814 20.3651C41.2401 20.0301 41.0885 18.5062 41.056 18.5062C42.2525 19.8896 42.9455 20.0301 42.9455 20.0301C42.9455 20.0301 42.3337 20.6948 41.7814 20.3651Z" fill="#C84E2A"/>
<path d="M57.8835 3.7742H57.6074V36.4839H57.8835V3.7742Z" fill="#CCCCCC"/>
<path d="M64.3525 31.9958V22.2339H65.8708V30.7271H73.4618V22.2339H74.98V31.9958H64.3525Z" fill="#49A843"/>
<path d="M80.9344 32.2073C80.3107 32.2073 79.7399 32.0546 79.222 31.7492C78.7042 31.432 78.2923 30.9445 77.9863 30.2866C77.692 29.6288 77.5449 28.7713 77.5449 27.714C77.5449 26.7507 77.6862 25.9167 77.9686 25.2119C78.2628 24.4953 78.663 23.9021 79.1691 23.4322C79.6751 22.9623 80.2459 22.6099 80.8815 22.3749C81.517 22.14 82.1761 22.0225 82.8587 22.0225C83.3765 22.0225 83.8414 22.0754 84.2533 22.1811C84.6652 22.2751 85.0418 22.4161 85.3831 22.604C85.7244 22.7802 86.0422 22.9917 86.3364 23.2384L86.1069 24.9299C85.695 24.4131 85.2243 24.0195 84.6946 23.7494C84.1768 23.4674 83.5472 23.3265 82.8057 23.3265C82.0172 23.3265 81.3346 23.5262 80.7579 23.9256C80.1812 24.3132 79.734 24.8477 79.4162 25.529C79.0984 26.1986 78.9396 26.9622 78.9396 27.8197C78.9396 28.6068 79.0278 29.2353 79.2044 29.7052C79.3927 30.1633 79.6398 30.4981 79.9458 30.7095C80.2636 30.9092 80.6167 31.0091 81.005 31.0091C81.3228 31.0091 81.5935 30.9445 81.8171 30.8153C82.0525 30.6743 82.229 30.4746 82.3467 30.2162C82.4762 29.9577 82.5409 29.6405 82.5409 29.2646C82.5409 28.6773 82.3879 28.2309 82.0819 27.9255C81.7759 27.6083 81.3816 27.4497 80.8991 27.4497C80.4283 27.4497 79.987 27.573 79.5751 27.8197C79.1632 28.0664 78.7866 28.3777 78.4453 28.7536L78.1805 27.6259C78.5335 27.2148 78.969 26.88 79.4868 26.6215C80.0164 26.3513 80.5696 26.2163 81.1463 26.2163C81.9936 26.2163 82.6762 26.4747 83.1941 26.9916C83.7237 27.5084 83.9885 28.2074 83.9885 29.0884C83.9885 29.7345 83.8649 30.2925 83.6178 30.7624C83.3706 31.2323 83.0176 31.5906 82.5586 31.8373C82.1113 32.0839 81.57 32.2073 80.9344 32.2073ZM86.0187 31.9958V24.6656L86.2305 23.2912V22.234H95.1282V23.5027H92.1268V31.9958H90.6086V23.5027H87.5369V31.9958H86.0187ZM85.9834 20.049C85.6421 20.049 85.3596 19.9433 85.136 19.7318C84.9124 19.5086 84.8006 19.2208 84.8006 18.8684C84.8006 18.5278 84.9124 18.2458 85.136 18.0226C85.3596 17.7994 85.6421 17.6878 85.9834 17.6878C86.3247 17.6878 86.6071 17.7994 86.8307 18.0226C87.0543 18.2458 87.1662 18.5278 87.1662 18.8684C87.1662 19.2208 87.0543 19.5086 86.8307 19.7318C86.6071 19.9433 86.3247 20.049 85.9834 20.049Z" fill="#49A843"/>
<path d="M99.2784 32.2072C98.6544 32.2072 98.0832 32.0545 97.5658 31.7491C97.0483 31.4319 96.6364 30.9444 96.33 30.2865C96.0358 29.6287 95.8887 28.7712 95.8887 27.7139C95.8887 26.7506 96.0297 25.9166 96.3128 25.2118C96.607 24.4952 97.0067 23.902 97.513 23.4321C98.0193 22.9622 98.5895 22.6098 99.2256 22.3748C99.8607 22.1399 100.52 22.0224 101.202 22.0224C101.72 22.0224 102.185 22.0753 102.597 22.181C103.009 22.275 103.385 22.416 103.727 22.6039C104.068 22.7801 104.386 22.9916 104.68 23.2383L104.451 24.9298C104.039 24.413 103.568 24.0194 103.038 23.7493C102.521 23.4673 101.891 23.3264 101.149 23.3264C100.361 23.3264 99.6781 23.5261 99.1018 23.9255C98.5245 24.3131 98.0781 24.8476 97.7596 25.5289C97.442 26.1985 97.2837 26.9621 97.2837 27.8196C97.2837 28.6067 97.372 29.2352 97.5485 29.7051C97.7362 30.1632 97.9838 30.498 98.2892 30.7094C98.6077 30.9091 98.9608 31.009 99.3484 31.009C99.667 31.009 99.9368 30.9444 100.161 30.8152C100.396 30.6742 100.573 30.4745 100.691 30.2161C100.82 29.9576 100.884 29.6404 100.884 29.2645C100.884 28.6772 100.731 28.2308 100.426 27.9254C100.119 27.6082 99.7258 27.4496 99.2429 27.4496C98.7721 27.4496 98.3308 27.5729 97.9188 27.8196C97.5069 28.0663 97.1305 28.3776 96.7886 28.7535L96.5238 27.6258C96.8769 27.2147 97.3131 26.8799 97.8306 26.6214C98.3602 26.3512 98.9131 26.2162 99.4904 26.2162C100.338 26.2162 101.02 26.4746 101.538 26.9915C102.067 27.5083 102.332 28.2073 102.332 29.0883C102.332 29.7344 102.208 30.2924 101.962 30.7623C101.714 31.2322 101.361 31.5905 100.903 31.8372C100.455 32.0838 99.9135 32.2072 99.2784 32.2072ZM104.362 31.9957V24.6655L104.574 23.2911V22.2339H113.471V23.5026H110.47V31.9957H108.952V23.5026H105.88V31.9957H104.362Z" fill="#49A843"/>
<path d="M112.382 17.1415C113.017 17.1415 113.595 17.2472 114.112 17.4587C114.642 17.6584 115.106 17.9638 115.507 18.3749C115.778 18.6451 116.013 18.9858 116.213 19.3969C116.413 19.7963 116.566 20.3191 116.672 20.9652C116.79 21.5995 116.848 22.4042 116.848 23.3792V31.9957H115.331V23.6964C115.331 22.8506 115.289 22.1516 115.207 21.5995C115.136 21.0474 115.03 20.5951 114.889 20.2427C114.748 19.8786 114.577 19.579 114.377 19.3441C114.13 19.0387 113.836 18.8155 113.494 18.6745C113.141 18.5335 112.759 18.463 112.347 18.463C111.84 18.463 111.411 18.5629 111.058 18.7626C110.705 18.9506 110.44 19.2207 110.264 19.5731C110.075 19.9138 109.982 20.3132 109.982 20.7714C109.982 21.1003 110.028 21.4586 110.123 21.8462C110.217 22.2221 110.364 22.5804 110.564 22.9211H108.957C108.805 22.5687 108.687 22.2163 108.604 21.8638C108.511 21.5114 108.463 21.1531 108.463 20.789C108.463 20.1546 108.569 19.6084 108.78 19.1503C108.993 18.6921 109.281 18.3162 109.646 18.0225C110.011 17.7289 110.428 17.5115 110.899 17.3706C111.37 17.2179 111.865 17.1415 112.382 17.1415Z" fill="#49A843"/>
</svg>
