<svg width="525" height="350" viewBox="0 0 525 350" fill="none" xmlns="http://www.w3.org/2000/svg">
<path d="M419.601 24.549C365.085 17.451 334.103 47.691 260.834 50.974C188.034 45.276 160.3 14.063 105.112 19.348C45.7522 25.032 -0.223775 102.382 12.8592 179.76C25.9422 257.138 107.023 300.391 148.47 300.16C181.601 299.943 210.861 286.461 248.633 283.241C286.006 287.7 313.803 302.141 346.85 303.436C388.199 305.074 473.683 264.572 494.858 187.768C516.033 110.964 478.261 32.2 419.601 24.549Z" fill="#223F64"/>
<path opacity="0.7" d="M419.601 24.549C365.085 17.451 334.103 47.691 260.834 50.974C188.034 45.276 160.3 14.063 105.112 19.348C45.7522 25.032 -0.223775 102.382 12.8592 179.76C25.9422 257.138 107.023 300.391 148.47 300.16C181.601 299.943 210.861 286.461 248.633 283.241C286.006 287.7 313.803 302.141 346.85 303.436C388.199 305.074 473.683 264.572 494.858 187.768C516.033 110.964 478.261 32.2 419.601 24.549Z" fill="white"/>
<g opacity="0.3">
<path d="M442.701 25.2349H411.425V81.0319H442.701V25.2349Z" stroke="black" stroke-linejoin="round"/>
<path d="M477.043 25.2349H445.767V81.0319H477.043V25.2349Z" stroke="black" stroke-linejoin="round"/>
<path d="M511.392 25.2349H480.116V81.0319H511.392V25.2349Z" stroke="black" stroke-linejoin="round"/>
<path d="M442.701 85.792H411.425V141.589H442.701V85.792Z" stroke="black" stroke-linejoin="round"/>
<path d="M477.043 85.792H445.767V141.589H477.043V85.792Z" stroke="black" stroke-linejoin="round"/>
<path d="M511.392 85.792H480.116V141.589H511.392V85.792Z" stroke="black" stroke-linejoin="round"/>
<path d="M442.701 146.349H411.425V202.146H442.701V146.349Z" stroke="black" stroke-linejoin="round"/>
<path d="M477.043 146.349H445.767V202.146H477.043V146.349Z" stroke="black" stroke-linejoin="round"/>
<path d="M511.392 146.349H480.116V202.146H511.392V146.349Z" stroke="black" stroke-linejoin="round"/>
<path d="M442.701 206.906H411.425V262.703H442.701V206.906Z" stroke="black" stroke-linejoin="round"/>
<path d="M477.043 206.906H445.767V262.703H477.043V206.906Z" stroke="black" stroke-linejoin="round"/>
<path d="M511.392 206.906H480.116V262.703H511.392V206.906Z" stroke="black" stroke-linejoin="round"/>
</g>
<g opacity="0.3">
<path d="M53.8785 25.2349H22.6025V81.0319H53.8785V25.2349Z" stroke="black" stroke-linejoin="round"/>
<path d="M88.2203 25.2349H56.9443V81.0319H88.2203V25.2349Z" stroke="black" stroke-linejoin="round"/>
<path d="M122.57 25.2349H91.2939V81.0319H122.57V25.2349Z" stroke="black" stroke-linejoin="round"/>
<path d="M53.8785 85.792H22.6025V141.589H53.8785V85.792Z" stroke="black" stroke-linejoin="round"/>
<path d="M88.2203 85.792H56.9443V141.589H88.2203V85.792Z" stroke="black" stroke-linejoin="round"/>
<path d="M122.57 85.792H91.2939V141.589H122.57V85.792Z" stroke="black" stroke-linejoin="round"/>
<path d="M53.8785 146.349H22.6025V202.146H53.8785V146.349Z" stroke="black" stroke-linejoin="round"/>
<path d="M88.2203 146.349H56.9443V202.146H88.2203V146.349Z" stroke="black" stroke-linejoin="round"/>
<path d="M122.57 146.349H91.2939V202.146H122.57V146.349Z" stroke="black" stroke-linejoin="round"/>
<path d="M53.8785 206.906H22.6025V262.703H53.8785V206.906Z" stroke="black" stroke-linejoin="round"/>
<path d="M88.2203 206.906H56.9443V262.703H88.2203V206.906Z" stroke="black" stroke-linejoin="round"/>
<path d="M122.57 206.906H91.2939V262.703H122.57V206.906Z" stroke="black" stroke-linejoin="round"/>
</g>
<path d="M14.1055 324.394H511.252" stroke="#263238" stroke-linejoin="round"/>
<path d="M470.924 211.155C470.935 211.144 470.94 211.129 470.94 211.113C470.94 211.098 470.935 211.083 470.924 211.071C470.916 211.067 470.907 211.064 470.898 211.063C470.889 211.062 470.879 211.064 470.871 211.067C470.862 211.071 470.854 211.076 470.848 211.083C470.841 211.089 470.836 211.097 470.833 211.106C468.818 215.934 467.226 220.927 466.073 226.03C464.892 231.133 464 236.297 463.399 241.5L463.021 245.413C462.965 246.064 462.895 246.715 462.846 247.373L462.741 249.333C462.685 250.642 462.608 251.951 462.566 253.26V257.194L462.615 259.154C462.615 259.812 462.692 260.463 462.734 261.121C462.832 262.423 462.909 285.502 463.028 286.804C463.28 289.408 463.672 292.005 464.078 294.581C464.075 294.592 464.074 294.603 464.076 294.614C464.077 294.625 464.082 294.635 464.088 294.644C464.095 294.653 464.103 294.66 464.113 294.665C464.123 294.67 464.134 294.673 464.145 294.673C464.156 294.673 464.167 294.67 464.177 294.665C464.187 294.66 464.195 294.653 464.202 294.644C464.208 294.635 464.212 294.625 464.214 294.614C464.216 294.603 464.215 294.592 464.211 294.581C464.211 293.272 464.155 291.97 464.12 290.661C464.085 289.352 463.973 288.064 463.987 286.762C464.001 285.46 463.987 262.388 463.945 261.093L463.91 259.14L463.945 257.194V253.302L464.05 249.403L464.085 247.457C464.085 246.806 464.162 246.162 464.197 245.511L464.435 241.619C464.881 236.449 465.618 231.307 466.64 226.219C467.632 221.084 469.066 216.044 470.924 211.155Z" fill="#263238"/>
<path d="M471.485 231.525C471.488 231.516 471.489 231.507 471.489 231.498C471.489 231.488 471.486 231.479 471.483 231.471C471.479 231.462 471.473 231.455 471.466 231.448C471.459 231.442 471.451 231.437 471.443 231.434C471.434 231.431 471.425 231.429 471.415 231.43C471.406 231.43 471.397 231.432 471.389 231.436C471.38 231.44 471.372 231.446 471.366 231.452C471.36 231.459 471.355 231.467 471.352 231.476C469.128 237.975 467.649 244.706 466.942 251.538C466.599 254.947 466.242 258.363 466.172 261.786C466.102 265.209 466.172 290.409 466.536 293.832C466.536 293.849 466.542 293.865 466.554 293.877C466.566 293.888 466.582 293.895 466.599 293.895C466.608 293.896 466.616 293.895 466.625 293.892C466.633 293.89 466.641 293.885 466.648 293.879C466.654 293.873 466.66 293.866 466.663 293.858C466.667 293.85 466.669 293.841 466.669 293.832C467.068 290.423 467.313 265.251 467.544 261.849C467.775 258.447 467.817 255.031 468.041 251.629C468.517 244.83 469.671 238.095 471.485 231.525Z" fill="#263238"/>
<path d="M482.776 238.7C482.763 238.69 482.747 238.684 482.73 238.684C482.714 238.684 482.697 238.69 482.685 238.7C479.86 240.517 477.316 242.736 475.132 245.287C474.032 246.568 473.044 247.94 472.178 249.389L471.569 250.537L471.1 251.727C470.936 252.12 470.796 252.522 470.68 252.931C470.561 253.337 470.428 253.743 470.316 254.149C469.469 257.418 468.916 282.527 468.755 285.873C468.584 289.224 468.708 292.583 469.126 295.911C469.13 295.926 469.138 295.939 469.149 295.949C469.16 295.959 469.174 295.965 469.189 295.967C469.198 295.97 469.208 295.97 469.217 295.967C469.226 295.965 469.235 295.961 469.243 295.955C469.25 295.949 469.256 295.941 469.26 295.932C469.264 295.924 469.266 295.914 469.266 295.904L470.127 285.971C470.47 282.688 470.68 257.621 471.387 254.415C471.471 254.016 471.59 253.624 471.688 253.225C471.783 252.83 471.9 252.439 472.038 252.056L472.444 250.908L472.962 249.823C473.747 248.384 474.651 247.012 475.664 245.721C477.678 243.087 480.067 240.762 482.755 238.819C482.768 238.818 482.781 238.812 482.791 238.803C482.801 238.793 482.807 238.781 482.81 238.768C482.812 238.754 482.81 238.741 482.804 238.728C482.798 238.716 482.788 238.706 482.776 238.7Z" fill="#263238"/>
<path d="M477.309 251.447C475.844 252.521 474.665 253.939 473.879 255.577C473.05 257.184 472.404 258.88 471.954 260.631C471.821 261.065 471.709 261.499 471.618 261.94L471.31 263.263C471.149 264.152 471.023 286.811 470.974 287.714C470.925 288.617 470.939 289.513 470.974 290.409C471.043 291.309 471.163 292.204 471.331 293.09C471.331 293.09 471.331 293.146 471.387 293.146C471.396 293.148 471.405 293.148 471.414 293.147C471.423 293.145 471.431 293.141 471.438 293.136C471.446 293.131 471.452 293.124 471.456 293.116C471.461 293.108 471.463 293.099 471.464 293.09C471.676 292.221 471.835 291.34 471.94 290.451C472.08 289.576 472.22 288.708 472.325 287.84C472.43 286.972 472.563 286.111 472.633 285.236C472.703 284.361 472.815 261.73 473.004 260.883C473.309 259.163 473.804 257.482 474.481 255.871C475.084 254.228 476.071 252.752 477.358 251.566C477.369 251.554 477.375 251.537 477.375 251.521C477.375 251.504 477.369 251.488 477.358 251.475C477.352 251.467 477.345 251.461 477.337 251.456C477.328 251.451 477.319 251.448 477.309 251.447Z" fill="#263238"/>
<path d="M461.474 261.394C461.103 256.984 460.375 252.623 459.689 248.255C459.003 243.887 458.24 239.547 457.442 235.207C456.644 230.867 455.748 226.541 454.817 222.229C454.816 222.22 454.812 222.211 454.807 222.203C454.802 222.195 454.795 222.188 454.787 222.183C454.779 222.178 454.771 222.174 454.761 222.173C454.752 222.171 454.742 222.171 454.733 222.173C454.716 222.176 454.701 222.186 454.69 222.201C454.68 222.215 454.675 222.233 454.677 222.25C455.433 226.597 456.119 230.958 456.777 235.319C457.435 239.68 458.058 244.041 458.611 248.416C459.164 252.791 459.57 257.173 460.116 261.541L461.733 296.429C461.733 296.437 461.735 296.446 461.738 296.453C461.741 296.461 461.746 296.468 461.752 296.474C461.758 296.479 461.765 296.484 461.772 296.487C461.78 296.49 461.788 296.492 461.796 296.492C461.806 296.493 461.815 296.492 461.824 296.489C461.833 296.486 461.841 296.481 461.848 296.474C461.855 296.467 461.86 296.459 461.863 296.45C461.866 296.441 461.867 296.432 461.866 296.422C461.922 295.316 461.922 294.21 461.95 293.104C461.978 291.998 461.901 290.892 461.88 289.786C461.831 287.574 461.642 263.599 461.474 261.394Z" fill="#263238"/>
<path d="M458.829 261.331C458.598 259.581 458.276 257.831 457.94 256.116L457.324 253.547C457.121 252.686 456.925 251.825 456.673 250.978C455.797 247.559 454.671 244.209 453.306 240.954L452.781 239.743L452.193 238.553C451.815 237.755 451.367 236.992 450.933 236.222C450.067 234.686 448.998 233.273 447.755 232.022C447.741 232.011 447.724 232.004 447.706 232.004C447.688 232.004 447.671 232.011 447.657 232.022C447.651 232.028 447.646 232.035 447.643 232.043C447.639 232.051 447.638 232.059 447.638 232.067C447.638 232.076 447.639 232.084 447.643 232.092C447.646 232.1 447.651 232.107 447.657 232.113C448.817 233.416 449.796 234.869 450.569 236.432C450.954 237.216 451.36 237.986 451.682 238.791L452.2 239.995L452.662 241.22C453.881 244.489 454.863 247.841 455.602 251.251C456.001 252.945 456.302 254.674 456.596 256.382L457.009 258.965C457.156 259.826 457.345 260.68 457.464 261.541C457.737 263.27 458.052 286.741 458.353 288.477C458.654 290.213 458.941 291.935 459.305 293.664C459.309 293.678 459.317 293.691 459.328 293.701C459.339 293.711 459.353 293.718 459.368 293.72C459.387 293.72 459.405 293.713 459.418 293.699C459.431 293.686 459.438 293.669 459.438 293.65C459.438 291.886 459.438 290.15 459.319 288.365C459.2 286.58 459.011 263.081 458.829 261.331Z" fill="#263238"/>
<path d="M455.182 261.555C454.363 259.245 453.418 256.977 452.382 254.758C451.343 252.544 450.174 250.394 448.882 248.318C448.868 248.308 448.851 248.302 448.833 248.302C448.816 248.302 448.798 248.308 448.784 248.318C448.773 248.332 448.767 248.349 448.767 248.367C448.767 248.385 448.773 248.402 448.784 248.416C449.915 250.566 450.915 252.782 451.78 255.052C452.676 257.306 453.481 259.595 454.16 261.919C454.839 264.243 455.343 288.379 455.959 290.71C456.575 293.041 457.1 295.4 457.8 297.731C457.805 297.746 457.815 297.759 457.827 297.769C457.84 297.779 457.854 297.785 457.87 297.787C457.888 297.785 457.905 297.778 457.918 297.765C457.931 297.752 457.939 297.735 457.94 297.717C457.963 295.254 457.729 292.795 457.24 290.381C456.848 287.952 455.994 263.9 455.182 261.555Z" fill="#263238"/>
<path d="M455 291.025C454.554 289.583 453.901 288.213 453.061 286.958C452.27 285.677 451.346 262.703 450.261 261.681C449.701 261.179 449.099 260.725 448.462 260.323C447.833 259.918 447.146 259.609 446.425 259.406C446.41 259.405 446.394 259.408 446.381 259.416C446.368 259.424 446.358 259.436 446.352 259.45C446.347 259.465 446.346 259.481 446.35 259.495C446.355 259.51 446.364 259.523 446.376 259.532C447.676 260.159 448.828 261.054 449.757 262.157C450.709 263.221 451.472 286.216 452.109 287.49C452.746 288.764 453.124 290.157 453.705 291.459C453.964 292.159 454.216 292.803 454.517 293.468C454.767 294.165 455.062 294.846 455.399 295.505C455.404 295.516 455.411 295.526 455.422 295.532C455.432 295.538 455.443 295.541 455.455 295.54C455.473 295.54 455.491 295.534 455.505 295.523C455.519 295.511 455.529 295.495 455.532 295.477C455.553 294.725 455.525 293.972 455.448 293.223C455.364 292.495 455.21 291.76 455 291.025Z" fill="#263238"/>
<path d="M455.301 228.536C453.1 227.922 451.109 226.719 449.542 225.056C447.975 223.393 446.893 221.333 446.411 219.1C444.745 211.316 450.121 214.648 445.305 202.426C440.489 190.204 441.595 187.425 443.261 183.904C444.927 180.383 445.858 181.496 447.342 186.123C448.826 190.75 454.195 197.981 456.232 211.505C458.269 225.029 455.301 228.536 455.301 228.536Z" fill="#223F64"/>
<path d="M469.567 215.383C469.567 215.383 464.751 213.717 464.569 204.645C464.387 195.573 468.069 197.421 468.643 186.116C469.217 174.811 469.938 166.852 471.975 166.67C474.012 166.488 479.381 172.2 481.236 184.8C483.091 197.4 478.828 205.73 475.125 209.44C471.422 213.15 469.567 215.383 469.567 215.383Z" fill="#223F64"/>
<path d="M452.711 239.463C452.711 239.463 451.598 232.799 449.379 229.663C447.16 226.527 442.337 223.734 439.187 217.623C436.037 211.512 432.523 208.523 432.705 217.252C432.887 225.981 436.779 230.405 441.595 233.352C446.411 236.299 452.711 239.463 452.711 239.463Z" fill="#223F64"/>
<path d="M450.673 250.95C450.673 250.95 446.228 242.431 439.746 236.131C433.264 229.831 428.077 226.681 429.946 229.831C431.815 232.981 434.02 232.799 437.17 238.357C440.32 243.915 439.396 247.989 443.841 251.132C448.286 254.275 450.673 250.95 450.673 250.95Z" fill="#223F64"/>
<path d="M450.1 261.877C449.911 261.324 449.729 257.25 443.429 253.911C437.129 250.572 431.2 251.874 431.942 253.54C432.684 255.206 436.576 257.992 440.461 259.658C444.346 261.324 450.1 261.877 450.1 261.877Z" fill="#223F64"/>
<path d="M469.196 239.834C469.196 239.834 466.395 236.334 467.9 228.907C469.405 221.48 472.716 223.349 476.419 219.457C480.122 215.565 479.38 215.012 483.09 210.938C486.8 206.864 490.09 204.638 491.609 206.311C493.128 207.984 490.867 213.164 488.648 216.111C486.429 219.058 482.901 220.556 481.235 224.266C479.569 227.976 480.311 233.898 476.048 236.67C471.785 239.442 469.196 239.834 469.196 239.834Z" fill="#223F64"/>
<path d="M478.457 241.871C478.457 241.871 485.128 234.276 489.944 228.725C494.76 223.174 496.608 218.925 496.797 222.607C496.986 226.289 498.463 229.278 494.571 234.094C490.679 238.91 478.457 241.871 478.457 241.871Z" fill="#223F64"/>
<path d="M474.936 254.1C474.936 254.1 474.754 251.132 485.31 244.3C495.866 237.468 500.318 236.152 499.205 238.931C498.092 241.71 493.465 244.489 488.46 249.487C483.455 254.485 474.936 254.1 474.936 254.1Z" fill="#223F64"/>
<path d="M455.742 227.745C455.742 227.745 453.264 214.445 450.674 205.009C448.084 195.573 446.411 189.826 446.411 189.826" stroke="#ABABAB" stroke-linecap="round" stroke-linejoin="round"/>
<path d="M469.14 215.523C469.14 215.523 473.641 201.124 475.125 192.423C476.609 183.722 474.936 177.233 474.201 173.341" stroke="#ABABAB" stroke-linecap="round" stroke-linejoin="round"/>
<path d="M452.13 239.19C450.136 235.759 447.853 232.504 445.305 229.46C441.224 224.644 438.074 222.054 436.205 217.42" stroke="#ABABAB" stroke-linecap="round" stroke-linejoin="round"/>
<path d="M469.195 239.834C469.195 239.834 470.679 230.944 474.2 226.317C477.721 221.69 484.756 214.459 487.535 209.825" stroke="#ABABAB" stroke-linecap="round" stroke-linejoin="round"/>
<path d="M449.68 261.674C449.68 261.674 443.45 257.621 439.005 255.374" stroke="#ABABAB" stroke-linecap="round" stroke-linejoin="round"/>
<path d="M466.844 324.394H458.689C457.983 324.394 457.292 324.185 456.705 323.794C456.117 323.403 455.658 322.847 455.385 322.196C452.718 315.812 449.89 285.278 449.89 285.278H475.636C475.636 285.278 472.836 315.812 470.148 322.196C469.874 322.847 469.414 323.402 468.827 323.793C468.239 324.184 467.549 324.393 466.844 324.394Z" fill="#263238"/>
<path d="M467.418 239.4C467.418 239.4 463.918 243.089 461.118 242.004C458.318 240.919 456.323 238.672 453.299 240.989C450.275 243.306 452.235 247.8 455.7 252.602C459.165 257.404 461.433 259.602 463.988 257.18C466.543 254.758 472.836 251.517 473.053 245.224C473.27 238.931 473.711 236.761 467.418 239.4Z" fill="#223F64"/>
<path d="M472.409 257.6C471.126 259.092 469.359 260.083 467.418 260.4C463.995 261.1 459.956 257.887 460.103 261.534C460.25 265.181 463.512 268.429 468.503 268.212C473.494 267.995 476.959 269.08 477.827 271.012C478.695 272.944 481.327 271.229 480.214 265.37C479.101 259.511 476.959 256.718 472.409 257.6Z" fill="#223F64"/>
<path d="M457.653 267.134C456.283 266.882 454.873 266.956 453.537 267.351C451.15 268.002 450.499 269.738 451.367 272.125C452.235 274.512 454.405 276.675 455.273 274.925C456.141 273.175 456.351 272.125 458.773 271.46C461.195 270.795 460.474 267.134 457.653 267.134Z" fill="#223F64"/>
<path d="M59.2551 211.155C59.2585 211.147 59.2603 211.139 59.2604 211.131C59.2605 211.122 59.2588 211.114 59.2556 211.106C59.2523 211.098 59.2475 211.091 59.2414 211.085C59.2353 211.079 59.2281 211.074 59.2201 211.071C59.212 211.067 59.203 211.064 59.1937 211.063C59.1844 211.062 59.175 211.064 59.1663 211.067C59.1576 211.071 59.1498 211.076 59.1433 211.083C59.1369 211.089 59.1321 211.097 59.1291 211.106C57.1142 215.934 55.5215 220.927 54.3691 226.03C53.2046 231.134 52.3282 236.298 51.7441 241.5L51.3661 245.413C51.3101 246.064 51.2401 246.715 51.1911 247.373L51.0861 249.333C51.0301 250.642 50.9461 251.951 50.9111 253.26V257.194L50.9601 259.154C50.9601 259.812 51.0301 260.463 51.0791 261.121C51.1771 262.423 51.2541 285.502 51.3731 286.804C51.6251 289.408 52.0171 292.005 52.4231 294.581C52.4249 294.599 52.433 294.615 52.446 294.626C52.4589 294.638 52.4757 294.644 52.4931 294.644C52.5099 294.641 52.5252 294.633 52.5366 294.62C52.548 294.607 52.5549 294.591 52.5561 294.574C52.5561 293.265 52.4931 291.963 52.4651 290.654C52.4371 289.345 52.3181 288.057 52.3321 286.755C52.3461 285.453 52.3321 262.381 52.2901 261.086V259.133V257.187V253.295L52.4021 249.396V247.45C52.4021 246.799 52.4791 246.155 52.5141 245.504L52.7521 241.612C53.1982 236.442 53.9344 231.3 54.9571 226.212C55.9542 221.079 57.3921 216.041 59.2551 211.155Z" fill="#263238"/>
<path d="M59.8151 231.525C59.8183 231.516 59.8198 231.507 59.8194 231.498C59.819 231.488 59.8168 231.479 59.8129 231.471C59.809 231.462 59.8035 231.455 59.7967 231.448C59.7898 231.442 59.7818 231.437 59.7731 231.434C59.7644 231.431 59.7551 231.429 59.7458 231.43C59.7365 231.43 59.7273 231.432 59.7189 231.436C59.7104 231.44 59.7028 231.446 59.6965 231.452C59.6902 231.459 59.6853 231.467 59.6821 231.476C57.468 237.976 55.9979 244.707 55.3001 251.538C54.9571 254.947 54.6001 258.363 54.5301 261.786C54.4601 265.209 54.5301 290.409 54.8941 293.832C54.894 293.848 54.8997 293.863 54.91 293.874C54.9203 293.886 54.9346 293.893 54.9501 293.895C54.9595 293.897 54.9692 293.897 54.9785 293.895C54.9879 293.893 54.9966 293.888 55.004 293.882C55.0114 293.876 55.0174 293.869 55.0214 293.86C55.0254 293.851 55.0273 293.842 55.0271 293.832C55.4261 290.423 55.6641 265.251 55.9021 261.849C56.1401 258.447 56.1751 255.031 56.3991 251.629C56.8759 244.83 58.0296 238.095 59.8431 231.525H59.8151Z" fill="#263238"/>
<path d="M71.1058 238.7C71.092 238.689 71.0747 238.683 71.0568 238.683C71.0389 238.683 71.0216 238.689 71.0078 238.7C68.187 240.519 65.6452 242.738 63.4618 245.287C62.362 246.568 61.3738 247.94 60.5078 249.389L59.8988 250.537L59.4298 251.727C59.2659 252.12 59.1257 252.522 59.0098 252.931C58.8908 253.337 58.7508 253.743 58.6458 254.149C57.7988 257.418 57.2458 282.527 57.0848 285.873C56.9143 289.224 57.0384 292.583 57.4558 295.911C57.4597 295.926 57.4678 295.939 57.479 295.949C57.4902 295.959 57.504 295.965 57.5188 295.967C57.5282 295.969 57.5379 295.969 57.5472 295.967C57.5566 295.965 57.5653 295.961 57.5727 295.955C57.5801 295.948 57.5861 295.941 57.5901 295.932C57.5941 295.923 57.596 295.914 57.5958 295.904L58.4568 285.971C58.7998 282.688 59.0098 257.621 59.7098 254.415C59.8008 254.016 59.9198 253.624 60.0178 253.225C60.1131 252.829 60.23 252.439 60.3678 252.056L60.7668 250.908L61.2918 249.823C62.0739 248.375 62.9778 246.995 63.9938 245.7C66.0083 243.066 68.3973 240.741 71.0848 238.798C71.0936 238.794 71.1013 238.788 71.1073 238.78C71.1133 238.773 71.1175 238.764 71.1196 238.754C71.1216 238.745 71.1214 238.735 71.119 238.726C71.1166 238.716 71.1121 238.708 71.1058 238.7Z" fill="#263238"/>
<path d="M65.6387 251.447C64.1695 252.517 62.9905 253.937 62.2087 255.577C61.3796 257.184 60.7338 258.88 60.2837 260.631C60.1507 261.065 60.0387 261.499 59.9477 261.94L59.6327 263.263C59.4787 264.152 59.3527 286.811 59.3037 287.714C59.2547 288.617 59.2617 289.513 59.3037 290.409C59.3696 291.309 59.4889 292.204 59.6607 293.09C59.6607 293.09 59.6607 293.146 59.7167 293.146C59.7255 293.148 59.7346 293.148 59.7435 293.147C59.7523 293.145 59.7607 293.141 59.768 293.136C59.7753 293.131 59.7814 293.124 59.7858 293.116C59.7902 293.108 59.7929 293.099 59.7937 293.09C60.0025 292.22 60.1614 291.339 60.2697 290.451C60.4097 289.576 60.5497 288.708 60.6547 287.84C60.7597 286.972 60.8927 286.111 60.9627 285.236C61.0327 284.361 61.1447 261.73 61.3337 260.883C61.6354 259.162 62.1309 257.481 62.8107 255.871C63.4139 254.228 64.4001 252.752 65.6877 251.566C65.6974 251.553 65.7026 251.537 65.7026 251.521C65.7026 251.504 65.6974 251.488 65.6877 251.475C65.6819 251.467 65.6746 251.461 65.6662 251.456C65.6577 251.451 65.6484 251.448 65.6387 251.447Z" fill="#263238"/>
<path d="M49.8043 261.394C49.4333 256.984 48.7053 252.623 48.0193 248.255C47.3333 243.887 46.5703 239.547 45.7723 235.2C44.9743 230.853 44.0993 226.541 43.1473 222.229C43.1424 222.212 43.1312 222.196 43.1158 222.186C43.1004 222.175 43.0817 222.171 43.0633 222.173C43.046 222.177 43.0306 222.187 43.0202 222.201C43.0098 222.215 43.0052 222.233 43.0073 222.25C43.7633 226.597 44.4493 230.958 45.1073 235.319C45.7653 239.68 46.3883 244.041 46.9413 248.416C47.4943 252.791 47.9003 257.173 48.4463 261.541L50.0633 296.429C50.0633 296.446 50.07 296.462 50.0818 296.474C50.0936 296.486 50.1096 296.492 50.1263 296.492C50.1355 296.492 50.1446 296.491 50.1531 296.487C50.1616 296.484 50.1693 296.478 50.1758 296.472C50.1823 296.465 50.1875 296.458 50.191 296.449C50.1945 296.441 50.1963 296.432 50.1963 296.422C50.2523 295.316 50.2523 294.21 50.2803 293.104C50.3083 291.998 50.2313 290.892 50.2103 289.786C50.1613 287.574 49.9723 263.599 49.8043 261.394Z" fill="#263238"/>
<path d="M47.1592 261.331C46.9282 259.581 46.6062 257.831 46.2702 256.116L45.6542 253.547C45.4512 252.686 45.2552 251.825 45.0032 250.978C44.1268 247.559 43.0015 244.209 41.6362 240.954L41.1042 239.743L40.5232 238.553C40.1452 237.755 39.6972 236.992 39.2632 236.222C38.3972 234.686 37.3283 233.273 36.0852 232.022C36.0714 232.011 36.0541 232.004 36.0362 232.004C36.0183 232.004 36.001 232.011 35.9872 232.022C35.9811 232.028 35.9762 232.035 35.9728 232.043C35.9695 232.051 35.9678 232.059 35.9678 232.067C35.9678 232.076 35.9695 232.084 35.9728 232.092C35.9762 232.1 35.9811 232.107 35.9872 232.113C37.1467 233.416 38.1261 234.869 38.8992 236.432C39.2842 237.216 39.6902 237.986 40.0122 238.791L40.5302 239.995L40.9922 241.22C42.2109 244.489 43.1934 247.841 43.9322 251.251C44.3312 252.945 44.5972 254.674 44.9262 256.382L45.3392 258.965C45.4862 259.826 45.6682 260.68 45.7942 261.541C46.0672 263.27 46.3822 286.741 46.6832 288.477C46.9842 290.213 47.2712 291.935 47.6352 293.664C47.6391 293.678 47.6472 293.691 47.6584 293.701C47.6695 293.711 47.6834 293.718 47.6982 293.72C47.7168 293.72 47.7346 293.713 47.7477 293.699C47.7608 293.686 47.7682 293.669 47.7682 293.65C47.7682 291.886 47.7682 290.15 47.6492 288.365C47.5302 286.58 47.3412 263.081 47.1592 261.331Z" fill="#263238"/>
<path d="M43.5113 261.555C42.6923 259.245 41.7473 256.977 40.7113 254.758C39.6722 252.544 38.5035 250.394 37.2113 248.318C37.197 248.308 37.1799 248.302 37.1623 248.302C37.1447 248.302 37.1276 248.308 37.1133 248.318C37.1019 248.332 37.0957 248.349 37.0957 248.367C37.0957 248.385 37.1019 248.402 37.1133 248.416C38.2439 250.566 39.2443 252.782 40.1093 255.052C41.0053 257.306 41.8103 259.595 42.4893 261.919C43.1683 264.243 43.6723 288.379 44.2883 290.71C44.9043 293.041 45.4643 295.393 46.1783 297.752C46.1835 297.767 46.1928 297.78 46.2052 297.79C46.2176 297.8 46.2325 297.806 46.2483 297.808C46.2659 297.805 46.2821 297.797 46.2947 297.784C46.3073 297.772 46.3156 297.756 46.3183 297.738C46.3415 295.275 46.1069 292.816 45.6183 290.402C45.1773 287.952 44.3233 263.9 43.5113 261.555Z" fill="#263238"/>
<path d="M43.358 291.025C42.9116 289.583 42.2585 288.213 41.419 286.958C40.628 285.677 39.704 262.703 38.619 261.681C38.0583 261.179 37.4565 260.725 36.82 260.323C36.1904 259.918 35.5038 259.609 34.783 259.406C34.7671 259.403 34.7504 259.404 34.7352 259.41C34.7201 259.417 34.7074 259.427 34.699 259.441C34.6918 259.458 34.6915 259.477 34.698 259.494C34.7046 259.511 34.7175 259.525 34.734 259.532C36.0325 260.158 37.1827 261.053 38.108 262.157C39.067 263.221 39.83 286.216 40.467 287.49C41.104 288.764 41.482 290.157 42.063 291.459C42.322 292.159 42.574 292.803 42.875 293.468C43.1218 294.167 43.4165 294.848 43.757 295.505C43.7638 295.516 43.7731 295.525 43.7841 295.531C43.7951 295.537 43.8074 295.54 43.82 295.54C43.8288 295.541 43.8378 295.541 43.8462 295.538C43.8547 295.535 43.8625 295.531 43.8691 295.525C43.8757 295.519 43.881 295.511 43.8846 295.503C43.8882 295.495 43.89 295.486 43.89 295.477C43.9181 294.725 43.89 293.972 43.806 293.223C43.694 292.484 43.5445 291.75 43.358 291.025Z" fill="#263238"/>
<path d="M43.6309 228.536C41.4302 227.922 39.4391 226.719 37.8724 225.056C36.3057 223.393 35.2229 221.333 34.7409 219.1C33.0749 211.316 38.4439 214.648 33.6279 202.426C28.8119 190.204 29.9249 187.425 31.5909 183.904C33.2569 180.383 34.1879 181.496 35.6649 186.123C37.1419 190.75 42.5249 197.981 44.5619 211.505C46.5989 225.029 43.6309 228.536 43.6309 228.536Z" fill="#223F64"/>
<path d="M57.8968 215.383C57.8968 215.383 53.0808 213.717 52.8918 204.645C52.7028 195.573 56.3918 197.421 56.9728 186.116C57.5538 174.811 58.2678 166.852 60.3048 166.67C62.3418 166.488 67.7108 172.2 69.5658 184.8C71.4208 197.4 67.1578 205.73 63.4548 209.44C59.7518 213.15 57.8968 215.383 57.8968 215.383Z" fill="#223F64"/>
<path d="M41.0411 239.463C41.0411 239.463 39.9281 232.799 37.7091 229.663C35.4901 226.527 30.6671 223.734 27.5171 217.623C24.3671 211.512 20.8531 208.523 21.0351 217.252C21.2171 225.981 25.1091 230.405 29.9251 233.352C34.7411 236.299 41.0411 239.463 41.0411 239.463Z" fill="#223F64"/>
<path d="M39.0038 250.95C39.0038 250.95 34.5588 242.431 28.0768 236.131C21.5948 229.831 16.4008 226.681 18.2768 229.831C20.1528 232.981 22.3508 232.799 25.5008 238.357C28.6508 243.915 27.7268 247.989 32.1718 251.132C36.6168 254.275 39.0038 250.95 39.0038 250.95Z" fill="#223F64"/>
<path d="M38.4434 261.877C38.2614 261.324 38.0725 257.25 31.7795 253.911C25.4865 250.572 19.5505 251.874 20.2995 253.54C21.0485 255.206 24.9334 257.992 28.8184 259.658C32.7034 261.324 38.4434 261.877 38.4434 261.877Z" fill="#223F64"/>
<path d="M57.5256 239.834C57.5256 239.834 54.7256 236.334 56.2306 228.907C57.7356 221.48 61.0466 223.349 64.7496 219.457C68.4526 215.565 67.7106 215.012 71.4206 210.938C75.1306 206.864 78.4206 204.638 79.9396 206.311C81.4586 207.984 79.1976 213.164 76.9716 216.111C74.7456 219.058 71.2316 220.556 69.5656 224.266C67.8996 227.976 68.6416 233.912 64.3996 236.684C60.1576 239.456 57.5256 239.834 57.5256 239.834Z" fill="#223F64"/>
<path d="M66.7871 241.871C66.7871 241.871 73.4581 234.276 78.2741 228.725C83.0901 223.174 84.9381 218.925 85.1271 222.607C85.3161 226.289 86.7931 229.278 82.9011 234.094C79.0091 238.91 66.7871 241.871 66.7871 241.871Z" fill="#223F64"/>
<path d="M63.2658 254.1C63.2658 254.1 63.0838 251.132 73.6398 244.3C84.1958 237.468 88.6478 236.152 87.5348 238.931C86.4218 241.71 81.7948 244.489 76.7898 249.487C71.7848 254.485 63.2658 254.1 63.2658 254.1Z" fill="#223F64"/>
<path d="M44.0996 227.745C44.0996 227.745 41.6216 214.445 39.0316 205.009C36.4416 195.573 34.7686 189.826 34.7686 189.826" stroke="#ABABAB" stroke-linecap="round" stroke-linejoin="round"/>
<path d="M57.4697 215.523C57.4697 215.523 61.9707 201.124 63.4547 192.423C64.9387 183.722 63.2657 177.233 62.5237 173.341" stroke="#ABABAB" stroke-linecap="round" stroke-linejoin="round"/>
<path d="M40.453 239.19C38.4528 235.756 36.1599 232.501 33.6 229.46C29.526 224.644 26.376 222.054 24.5 217.42" stroke="#ABABAB" stroke-linecap="round" stroke-linejoin="round"/>
<path d="M57.5254 239.834C57.5254 239.834 59.0094 230.944 62.5234 226.317C66.0374 221.69 73.0864 214.459 75.8654 209.825" stroke="#ABABAB" stroke-linecap="round" stroke-linejoin="round"/>
<path d="M38.01 261.674C38.01 261.674 31.78 257.621 27.335 255.374" stroke="#ABABAB" stroke-linecap="round" stroke-linejoin="round"/>
<path d="M55.1737 324.394H47.0187C46.3127 324.394 45.6226 324.185 45.0348 323.794C44.447 323.403 43.9877 322.847 43.7147 322.196C41.0477 315.812 38.2197 285.278 38.2197 285.278H63.9657C63.9657 285.278 61.1657 315.812 58.4777 322.196C58.2039 322.847 57.7446 323.402 57.1569 323.793C56.5693 324.184 55.8795 324.393 55.1737 324.394Z" fill="#263238"/>
<path d="M53.1998 242.809C53.1998 242.809 48.1878 244.132 45.5418 241.759C42.8958 239.386 38.9478 238.854 38.1498 242.284C37.3518 245.714 38.4158 249.151 40.7958 254.184C43.1758 259.217 46.8018 255.71 46.8648 253.659C46.9278 251.608 49.3988 249.984 52.4648 250.635C55.5308 251.286 60.8578 243.866 53.1998 242.809Z" fill="#223F64"/>
<path d="M61.9143 256.277C61.9143 256.277 64.1963 259.175 58.1693 257.46C52.1423 255.745 49.5523 254.345 48.9993 257.95C48.4463 261.555 53.1993 262.346 56.3703 263.137C59.5413 263.928 62.1733 269.479 64.2873 272.937C66.4013 276.395 70.5873 272.405 68.2493 264.222C65.9113 256.039 66.3033 252.455 61.9143 256.277Z" fill="#223F64"/>
<path opacity="0.3" d="M401.422 25.417H132.286V177.093H401.422V25.417Z" stroke="black" stroke-linejoin="round"/>
<path opacity="0.3" d="M401.422 162.988H132.286V177.1H401.422V162.988Z" stroke="black" stroke-linejoin="round"/>
<g opacity="0.3">
<path d="M201.306 50.9111H158.48V79.1771H201.306V50.9111Z" stroke="black" stroke-linejoin="round"/>
<path d="M167.895 103.6H151.998V120.701H167.895V103.6Z" stroke="black" stroke-linejoin="round"/>
<path d="M193.844 103.6H177.947V120.701H193.844V103.6Z" stroke="black" stroke-linejoin="round"/>
<path d="M219.8 103.6H203.903V120.701H219.8V103.6Z" stroke="black" stroke-linejoin="round"/>
<path d="M345.023 81.6201H329.126V98.7211H345.023V81.6201Z" stroke="black" stroke-linejoin="round"/>
<path d="M201.628 63.8262H247.051V47.0752H336.588V81.9702" stroke="black" stroke-linejoin="round"/>
<path d="M382.648 78.1343H352.156V85.1133H382.648V78.1343Z" stroke="black" stroke-linejoin="round"/>
<path d="M382.648 90.6924H352.156V97.6714H382.648V90.6924Z" stroke="black" stroke-linejoin="round"/>
<path d="M382.648 103.257H352.156V110.236H382.648V103.257Z" stroke="black" stroke-linejoin="round"/>
<path d="M382.648 115.815H352.156V122.794H382.648V115.815Z" stroke="black" stroke-linejoin="round"/>
<path d="M382.648 128.38H352.156V135.359H382.648V128.38Z" stroke="black" stroke-linejoin="round"/>
<path d="M177.947 79.5273V94.5283" stroke="black" stroke-linejoin="round"/>
<path d="M159.782 103.257V94.1851H212.03V103.257" stroke="black" stroke-linejoin="round"/>
<path d="M186.06 103.6V94.5283" stroke="black" stroke-linejoin="round"/>
<path d="M171.619 59.29H188.167" stroke="black" stroke-linejoin="round"/>
<path d="M171.619 70.8052H188.167" stroke="black" stroke-linejoin="round"/>
<path d="M166.432 64.8691H193.354" stroke="black" stroke-linejoin="round"/>
</g>
<path d="M433.468 272.664H69.9785V324.387H433.468V272.664Z" fill="#7D7D7D" stroke="#263238" stroke-linejoin="round"/>
<path d="M232.023 256.984C232.023 256.984 231.085 262.787 230.924 263.284C230.763 263.781 228.257 269.087 227.942 270.501C227.627 271.915 229.671 272.699 230.924 272.699C232.177 272.699 239.086 273.168 239.87 272.545C240.654 271.922 241.445 269.871 241.27 268.303C241.095 266.735 240.017 257.159 240.017 257.159L232.023 256.984Z" fill="white" stroke="#263238" stroke-linejoin="round"/>
<path d="M273.308 257.929C273.308 257.929 275.191 260.911 276.108 261.695C277.025 262.479 282.702 268.289 284.585 268.912C286.468 269.535 286.153 270.956 285.054 272.055C283.955 273.154 277.991 272.839 274.855 272.524C271.719 272.209 268.107 272.524 267.638 272.349C267.169 272.174 264.188 272.195 262.774 271.404C261.36 270.613 261.989 264.817 261.989 264.817L273.308 257.929Z" fill="white" stroke="#263238" stroke-linejoin="round"/>
<path d="M239.87 154.896C239.87 154.896 236.265 169.337 236.601 179.2C236.937 189.063 234.718 214.522 234.718 215.306C234.718 216.09 232.996 220.64 232.996 224.882C232.996 229.124 232.52 253.036 232.52 253.036C232.52 253.036 230.637 253.351 230.952 255.08C231.267 256.809 231.582 259.315 231.582 259.315C231.582 259.315 234.382 259.469 236.601 259.784C237.96 259.97 239.34 259.918 240.682 259.63C240.682 259.63 242.082 255.703 242.257 253.666C242.432 251.629 241.942 250.936 241.942 248.584C241.942 246.232 255.438 178.584 255.438 178.584L260.464 218.449C260.464 218.449 260.779 238.679 261.724 244.349C262.279 247.588 262.592 250.864 262.662 254.149C262.662 254.149 262.193 258.384 262.039 258.86C261.885 259.336 261.255 259.644 261.563 260.897C261.806 262.194 261.965 263.506 262.039 264.824C263.871 263.693 265.816 262.755 267.842 262.024C270.978 260.925 274.59 259.224 274.59 259.224C274.305 258.141 274.095 257.039 273.96 255.927C273.96 255.143 273.176 254.828 273.176 254.205C273.176 253.582 274.436 225.414 274.905 215.523C275.374 205.632 275.374 171.262 275.374 171.262L271.601 154.896L270.817 151.753L240.521 151.599L239.87 154.896Z" fill="#263238" stroke="#263238" stroke-linejoin="round"/>
<path d="M243.789 154.756C243.789 154.756 252.238 157.318 258.132 156.807C264.026 156.296 266.581 155.141 266.581 155.141L268.1 134.526L269.255 106.484L269.381 101.878C269.381 101.878 261.576 99.568 259.266 99.316C256.956 99.064 250.054 98.686 250.054 98.686L242.354 102.886L243.789 154.756Z" fill="white" stroke="#263238" stroke-linejoin="round"/>
<path d="M249.403 91.7002L250.068 98.7002C250.371 99.7502 250.844 100.743 251.468 101.64C252.42 102.872 255.738 105.245 255.738 105.245L257.348 110.551L258.958 105.056C260.174 104.519 261.199 103.625 261.898 102.494C262.629 101.03 263.141 99.4662 263.417 97.8532L263.795 94.4372C263.795 94.4372 259.91 95.8372 256.97 95.1372C254.03 94.4372 249.403 91.7002 249.403 91.7002Z" fill="white" stroke="#263238" stroke-linejoin="round"/>
<path d="M255.759 105.231L252.749 111.993L250.957 107.765" stroke="#263238" stroke-linejoin="round"/>
<path d="M258.979 105.042L261.331 111.097L262.997 108.535" stroke="#263238" stroke-linejoin="round"/>
<path d="M246.589 83.65C246.589 83.65 244.79 81.942 244.251 84.553C243.712 87.164 245.875 89.32 246.505 89.677C247.046 89.9381 247.621 90.1197 248.213 90.216C248.869 92.1079 249.982 93.8081 251.454 95.165C253.701 97.055 257.299 99.036 261.8 97.146C266.301 95.256 265.937 89.677 265.671 85.358C265.405 81.039 264.411 73.304 262.969 70.427C261.527 67.55 255.857 66.738 251.363 67.725C246.869 68.712 244.615 73.57 244.433 76.272C244.251 78.974 246.589 83.65 246.589 83.65Z" fill="white" stroke="#263238" stroke-linejoin="round"/>
<path d="M246.59 83.65C246.28 83.3589 245.89 83.1685 245.47 83.104L246.59 83.65Z" fill="white" stroke="#263238" stroke-linejoin="round"/>
<path d="M251.454 95.2C253.701 97.09 257.299 99.071 261.8 97.181C266.301 95.291 265.937 89.712 265.671 85.393C265.615 84.567 265.538 83.615 265.433 82.593L265.398 82.516L264.411 89.516C264.411 89.516 264.138 88.816 261.352 87.087C258.566 85.358 255.948 87.087 254.513 87.983C253.436 88.7171 252.439 89.5617 251.538 90.503C250.422 89.8629 249.541 88.8814 249.025 87.703C248.407 86.3639 248.01 84.9338 247.849 83.468C247.849 83.468 249.648 81.312 249.109 79.779C248.57 78.246 248.122 78.792 247.765 76.979C247.408 75.166 246.953 73.199 248.213 72.121C249.473 71.043 252.714 70.952 254.058 71.848C255.402 72.744 256.669 73.29 258.202 72.387C259.735 71.484 260.358 70.497 261.436 70.77C262.232 71.0868 262.968 71.5365 263.613 72.1C263.443 71.5216 263.228 70.9575 262.969 70.413C261.527 67.529 255.857 66.724 251.363 67.711C246.869 68.698 244.615 73.556 244.433 76.258C244.251 78.96 246.589 83.636 246.589 83.636L248.213 90.202C248.861 92.1115 249.975 93.8293 251.454 95.2Z" fill="#263238" stroke="#263238" stroke-linejoin="round"/>
<path d="M258.56 78.519C258.56 78.519 258.917 85.001 259.82 86.352C260.723 87.703 260.632 88.242 259.19 87.969C257.748 87.696 256.39 86.17 256.39 85.274" fill="white"/>
<path d="M258.56 78.519C258.56 78.519 258.917 85.001 259.82 86.352C260.723 87.703 260.632 88.242 259.19 87.969C257.748 87.696 256.39 86.17 256.39 85.274" stroke="#263238" stroke-linejoin="round"/>
<path d="M255.144 89.3198C255.144 89.3198 256.943 91.5668 260.989 90.3068" stroke="white" stroke-linecap="round" stroke-linejoin="round"/>
<path d="M254.324 81.7601C254.429 82.4601 254.233 83.0551 253.876 83.1111C253.519 83.1671 253.176 82.6491 253.043 81.9631C252.91 81.2771 253.141 80.6681 253.491 80.6121C253.841 80.5561 254.219 81.0741 254.324 81.7601Z" fill="#263238"/>
<path d="M262.172 81.2002C262.284 81.9002 262.081 82.4882 261.724 82.5442C261.367 82.6002 261.024 82.0822 260.891 81.3962C260.758 80.7102 260.989 80.1012 261.339 80.0452C261.689 79.9892 262.067 80.5002 262.172 81.2002Z" fill="#263238"/>
<path d="M251.545 78.974C251.545 78.974 252.518 78.001 254.849 77.938" stroke="#263238" stroke-linecap="round" stroke-linejoin="round"/>
<path d="M259.784 77.6092C259.784 77.6092 261.016 76.2512 263.284 78.0012" stroke="#263238" stroke-linecap="round" stroke-linejoin="round"/>
<path d="M265.301 80.724C265.301 80.724 266.603 80.08 266.792 82.215C266.881 83.573 266.567 84.9272 265.889 86.107L265.301 80.724Z" fill="white" stroke="#263238" stroke-linejoin="round"/>
<path d="M223.426 116.9C223.426 116.9 221.907 112.441 222.026 112.063C222.004 110.753 221.714 109.462 221.172 108.269C220.605 107.324 220.696 107.611 219.842 106.169C218.988 104.727 217.742 102.949 217.476 102.193C217.21 101.437 216.244 103.327 216.811 104.468C217.378 105.609 218.708 107.597 218.708 107.597C218.379 107.642 218.044 107.575 217.756 107.408C217.454 107.226 217.138 107.066 216.811 106.932L215.201 106.078C215.201 106.078 212.737 103.894 212.352 103.705C211.967 103.516 210.364 98.6789 209.51 99.2529C208.656 99.8269 209.608 101.052 209.699 101.997C210.014 103.789 210.425 105.562 210.931 107.31C211.12 107.786 213.206 110.53 214.347 112.049C215.408 113.273 216.619 114.357 217.952 115.276L219.653 121.058L223.426 116.9Z" fill="white" stroke="#263238" stroke-linejoin="round"/>
<path d="M214.425 110.971C214.425 110.971 214.488 109.571 214.614 108.773C214.74 107.975 216.714 103.04 217.05 103.712C217.384 104.485 217.429 105.352 217.176 106.155C216.931 106.638 216.196 108.409 216.196 108.409L216.896 111.097C216.896 111.097 218.667 111.279 219.458 112.007C220.047 112.702 220.483 113.513 220.739 114.387" fill="white"/>
<path d="M214.425 110.971C214.425 110.971 214.488 109.571 214.614 108.773C214.74 107.975 216.714 103.04 217.05 103.712C217.384 104.485 217.429 105.352 217.176 106.155C216.931 106.638 216.196 108.409 216.196 108.409L216.896 111.097C216.896 111.097 218.667 111.279 219.458 112.007C220.047 112.702 220.483 113.513 220.739 114.387" stroke="#263238" stroke-linejoin="round"/>
<path d="M213.5 109.998C213.5 109.998 212.8 108.346 212.884 107.555C212.968 106.764 214.228 101.885 214.228 101.885C214.228 101.885 215.082 101.458 215.145 102.368C215.075 103.687 214.871 104.996 214.536 106.274C214.489 107.108 214.51 107.943 214.599 108.773" fill="white"/>
<path d="M213.5 109.998C213.5 109.998 212.8 108.346 212.884 107.555C212.968 106.764 214.228 101.885 214.228 101.885C214.228 101.885 215.082 101.458 215.145 102.368C215.075 103.687 214.871 104.996 214.536 106.274C214.489 107.108 214.51 107.943 214.599 108.773" stroke="#263238" stroke-linejoin="round"/>
<path d="M212.843 108.045C212.843 108.045 211.562 106.4 211.562 105.539C211.619 103.581 211.78 101.628 212.045 99.687C212.234 99.134 212.745 99.26 212.899 100.66C212.974 101.986 212.913 103.316 212.717 104.629L213.207 106.092" fill="white"/>
<path d="M212.843 108.045C212.843 108.045 211.562 106.4 211.562 105.539C211.619 103.581 211.78 101.628 212.045 99.687C212.234 99.134 212.745 99.26 212.899 100.66C212.974 101.986 212.913 103.316 212.717 104.629L213.207 106.092" stroke="#263238" stroke-linejoin="round"/>
<path d="M249.69 97.8389L250.166 115.661C250.166 115.661 251.776 138.061 252.154 141.162C252.532 144.263 247.891 177.1 247.891 177.1C247.891 177.1 242.578 176.337 237.083 175.105C231.588 173.873 229.383 172.641 229.383 172.641L237.65 139.93C237.65 139.93 229.306 149.03 228.739 149.226C228.172 149.422 227.696 149.226 226.933 148.085C226.17 146.944 217 121.443 217 121.443L223.447 116.893L229.803 127.225C229.803 127.225 233.59 106.274 234.003 105.525C234.416 104.776 249.69 97.8389 249.69 97.8389Z" fill="#223F64" stroke="#263238" stroke-linejoin="round"/>
<path d="M246.274 99.918C246.274 99.918 244.174 112.819 245.616 119.518C247.058 126.217 251.02 138.859 251.02 138.859" stroke="#263238" stroke-linejoin="round"/>
<path d="M237.65 139.93L238.315 136.612L235.942 112.91" stroke="#263238" stroke-linejoin="round"/>
<path d="M229.782 127.225L231.581 132.818" stroke="#263238" stroke-linejoin="round"/>
<path d="M298.2 118.797C298.2 118.797 300.944 114.975 300.965 114.597C301.367 113.351 302.02 112.2 302.883 111.216C303.702 110.474 303.527 110.719 304.759 109.606C305.952 108.624 307.095 107.582 308.182 106.484C308.679 105.84 309.036 107.926 308.182 108.85C307.328 109.774 305.459 111.293 305.459 111.293C305.757 111.438 306.097 111.473 306.418 111.391C306.761 111.304 307.109 111.243 307.461 111.209L309.253 110.859C309.253 110.859 312.242 109.494 312.662 109.417C313.082 109.34 316.029 105.217 316.68 105.98C317.331 106.743 316.064 107.681 315.7 108.556C314.882 110.181 313.973 111.758 312.977 113.281C312.662 113.68 309.862 115.703 308.336 116.823C306.967 117.686 305.495 118.373 303.954 118.867L300.629 123.9L298.2 118.797Z" fill="white" stroke="#263238" stroke-linejoin="round"/>
<path d="M308.54 115.745C308.54 115.745 308.89 114.38 309.002 113.589C309.114 112.798 308.68 107.499 308.141 108.038C307.59 108.674 307.296 109.493 307.315 110.334C307.406 110.873 307.595 112.777 307.595 112.777L306.195 115.15C305.292 114.967 304.359 115.012 303.479 115.283C302.711 115.774 302.058 116.423 301.561 117.187" fill="white"/>
<path d="M308.54 115.745C308.54 115.745 308.89 114.38 309.002 113.589C309.114 112.798 308.68 107.499 308.141 108.038C307.59 108.674 307.296 109.493 307.315 110.334C307.406 110.873 307.595 112.777 307.595 112.777L306.195 115.15C305.292 114.967 304.359 115.012 303.479 115.283C302.711 115.774 302.058 116.423 301.561 117.187" stroke="#263238" stroke-linejoin="round"/>
<path d="M309.701 115.073C309.701 115.073 310.877 113.715 310.989 112.917C311.101 112.119 311.353 107.1 311.353 107.1C311.353 107.1 310.653 106.442 310.338 107.303C310.02 108.585 309.835 109.896 309.785 111.216C309.588 112.027 309.326 112.82 309.001 113.589" fill="white"/>
<path d="M309.701 115.073C309.701 115.073 310.877 113.715 310.989 112.917C311.101 112.119 311.353 107.1 311.353 107.1C311.353 107.1 310.653 106.442 310.338 107.303C310.02 108.585 309.835 109.896 309.785 111.216C309.588 112.027 309.326 112.82 309.001 113.589" stroke="#263238" stroke-linejoin="round"/>
<path d="M310.905 113.4C310.905 113.4 312.613 112.196 312.858 111.377C313.375 109.488 313.786 107.572 314.09 105.637C314.09 105.056 313.572 105.028 312.991 106.337C312.539 107.582 312.213 108.87 312.018 110.18L311.122 111.44" fill="white"/>
<path d="M310.905 113.4C310.905 113.4 312.613 112.196 312.858 111.377C313.375 109.488 313.786 107.572 314.09 105.637C314.09 105.056 313.572 105.028 312.991 106.337C312.539 107.582 312.213 108.87 312.018 110.18L311.122 111.44" stroke="#263238" stroke-linejoin="round"/>
<path d="M263.438 97.8389C263.69 103.41 263.627 108.991 263.249 114.555C262.612 121.849 260.05 140.42 260.309 140.931C260.568 141.442 264.145 176.631 264.145 176.631C264.145 176.631 271.446 176.89 275.541 175.994C278.039 175.445 280.482 174.674 282.842 173.691C282.842 173.691 273.497 139.3 273.364 138.754C273.231 138.208 274.764 133.756 274.764 133.756C274.764 133.756 283.864 144.13 285.39 143.878C286.916 143.626 302.946 122.5 302.946 122.5L297.955 117.117L286.811 126.7C286.811 126.7 279.643 109.032 278.873 107.492C278.062 106.128 277.071 104.88 275.926 103.782C275.541 103.411 263.438 97.8389 263.438 97.8389Z" fill="#223F64" stroke="#263238" stroke-linejoin="round"/>
<path d="M266.581 100.464C267.459 105.314 267.632 110.265 267.092 115.164C266.196 123.361 261.205 139.363 261.205 139.363" stroke="#263238" stroke-linejoin="round"/>
<path d="M274.778 133.756L277.718 115.451" stroke="#263238" stroke-linejoin="round"/>
<path d="M286.812 126.714L286.686 131.838" stroke="#263238" stroke-linejoin="round"/>
<path d="M389.402 167.3C389.402 167.3 383.256 168.7 381.576 171.353C379.896 174.006 377.943 180.292 378.503 182.672C379.063 185.052 381.716 191.611 383.809 193.291C385.902 194.971 390.109 197.344 393.175 197.344C396.241 197.344 401.981 193.291 402.534 191.331C403.087 189.371 404.634 183.785 404.774 181.272C404.914 178.759 406.034 174.706 401.141 170.933C396.248 167.16 394.575 166.166 389.402 167.3Z" fill="white" stroke="#263238" stroke-linejoin="round"/>
<path d="M402.535 191.317C403.095 189.364 404.635 183.771 404.775 181.258C404.88 179.361 405.538 176.589 403.753 173.719C403.592 174.937 402.92 178.115 401.842 179.445C400.582 180.978 394.989 183.911 387.723 182.378C382.494 181.272 380.31 177.926 379.498 176.134C378.693 178.647 378.182 181.293 378.504 182.658C379.064 185.031 381.717 191.597 383.81 193.277C385.903 194.957 390.11 197.33 393.176 197.33C396.242 197.33 401.982 193.277 402.535 191.317Z" fill="white" stroke="#263238" stroke-linejoin="round"/>
<path d="M378.503 182.658C378.503 182.658 376.683 181.958 376.403 183.771C376.123 185.584 377.243 189.371 378.783 190.204C379.234 190.446 379.738 190.572 380.25 190.572C380.762 190.572 381.265 190.446 381.716 190.204L378.503 182.658Z" fill="white" stroke="#263238" stroke-linejoin="round"/>
<path d="M404.774 182.378C404.774 182.378 407.574 180.138 407.287 183.631C407 187.124 403.234 189.784 403.234 189.784L404.774 182.378Z" fill="white" stroke="#263238" stroke-linejoin="round"/>
<path d="M406.7 201.803C406.7 201.803 402.787 195.65 402.367 195.23C401.947 194.81 395.661 193.83 391.748 193.83C387.835 193.83 381.409 195.503 381.409 195.503L378.056 202.503C378.056 202.503 393.736 198.45 406.7 201.803Z" fill="#263238" stroke="#263238" stroke-linejoin="round"/>
<path d="M358.798 244.006C358.798 244.006 357.699 249.732 358.399 251.3C359.099 252.868 361.752 254.373 363.152 254.373C364.613 254.256 366.062 254.022 367.485 253.673L368.045 245.567L358.798 244.006Z" stroke="#263238" stroke-linejoin="round"/>
<path d="M424.48 239.673C424.48 239.673 425.04 246.379 424.62 247.499C424.2 248.619 421.82 250.712 420.147 251.132C418.688 251.522 417.183 251.71 415.674 251.692C415.254 251.552 413.854 241.626 413.854 241.626L424.48 239.673Z" stroke="#263238" stroke-linejoin="round"/>
<path d="M388.983 311.78C388.983 311.78 388.703 321.839 389.403 322.819C390.103 323.799 393.456 325.052 397.103 324.632C400.75 324.212 402.276 323.099 402.276 322.399C402.276 321.699 402.136 312.753 402.136 312.753C402.136 312.753 390.803 312.06 388.983 311.78Z" fill="#263238" stroke="#263238" stroke-linejoin="round"/>
<path d="M402.262 322.399C402.262 322.245 402.262 321.699 402.262 320.901C397.453 323.001 391.972 321.832 389.081 320.901C389.078 321.551 389.195 322.196 389.424 322.805C390.124 323.785 393.477 325.038 397.124 324.618C400.771 324.198 402.262 323.099 402.262 322.399Z" fill="white" stroke="#263238" stroke-linejoin="round"/>
<path d="M385.77 275.023C385.77 275.023 388.983 297.521 388.843 300.601C388.734 302.137 388.781 303.68 388.983 305.207C388.983 305.207 387.723 305.907 387.723 307.027C387.723 308.147 388.983 311.78 388.983 311.78C388.983 311.78 388.843 312.34 392.483 313.033C396.123 313.726 401.149 313.453 402.129 312.753C403.109 312.053 403.102 308.84 402.962 306.747C402.822 304.654 401.149 300.321 401.149 298.641C401.149 296.961 403.382 273.63 403.382 273.63C403.382 273.63 390.803 276.003 385.77 275.023Z" fill="#223F64" stroke="#263238" stroke-linejoin="round"/>
<path d="M409.808 304.794C409.808 304.794 411.908 311.794 412.461 313.033C413.014 314.272 415.261 315.693 416.374 315.693C417.487 315.693 423.5 313.733 424.34 313.313C425.18 312.893 426.713 310.38 426.013 308.147C425.313 305.914 421.813 298.781 421.813 298.781L409.808 304.794Z" fill="#263238" stroke="#263238" stroke-linejoin="round"/>
<path d="M424.339 313.313C425.109 312.928 426.439 310.779 426.138 308.707C424.208 309.985 422.208 311.154 420.146 312.207C417.98 313.217 415.662 313.863 413.286 314.118C414.125 314.955 415.204 315.508 416.373 315.7C417.493 315.7 423.499 313.733 424.339 313.313Z" fill="white" stroke="#263238" stroke-linejoin="round"/>
<path d="M399.881 281.596C399.881 281.596 405.334 292.495 406.307 294.196C407.28 295.897 407.987 297.136 407.987 297.136C407.507 297.862 407.299 298.735 407.399 299.6C407.679 300.86 409.779 304.773 409.779 304.773C409.779 304.773 412.992 305.473 415.505 304.633C418.018 303.793 420.958 301.413 421.238 300.86C421.484 300.178 421.669 299.475 421.791 298.76C421.319 296.903 420.713 295.083 419.978 293.314C418.718 290.234 417.325 287.861 416.765 285.208C416.205 282.555 413.132 271.208 413.132 271.208L397.032 274.708L399.881 281.596Z" fill="#223F64" stroke="#263238" stroke-linejoin="round"/>
<path d="M365.085 259.098C365.085 259.098 364.385 263.998 364.665 266.224C364.945 268.45 365.365 271.25 372.365 273.924C379.365 276.598 386.365 278.39 391.965 277.977C397.565 277.564 407.897 275.037 410.165 273.924C412.433 272.811 414.26 270.683 415.765 269.227C417.27 267.771 417.697 262.465 417.424 260.365C417.275 259.171 416.994 257.997 416.584 256.865C416.584 256.865 393.036 263.011 365.085 259.098Z" fill="#223F64" stroke="#263238" stroke-linejoin="round"/>
<path d="M378.084 202.496C378.084 202.496 371.378 208.649 368.284 211.022C365.19 213.395 362.138 216.335 362.138 217.175C362.138 218.015 353.892 243.306 353.892 243.306C353.892 243.306 357.105 247.359 364.098 248.052H366.1C366.1 248.052 365.12 258.118 365.12 259.098C365.12 260.078 378.259 264.698 393.631 263.424C409.003 262.15 416.269 258.258 416.549 256.858C416.829 255.458 416.269 252.658 416.269 250.558C416.269 248.458 415.849 244.405 415.849 244.405C415.849 244.405 419.762 244.825 422.695 243.705C425.628 242.585 429.926 238.7 429.926 238.7C429.926 238.7 421.526 220.675 420.287 216.622C419.048 212.569 406.7 201.803 406.7 201.803C406.7 201.803 395.269 198.17 378.084 202.496Z" fill="#263238" stroke="#263238" stroke-linejoin="round"/>
<path d="M365.554 225.442L366.653 257.46C366.653 257.46 391.769 263.116 415.156 257.46L417.039 225.911C417.039 225.911 374.815 227.5 365.554 225.442Z" fill="#B2B2B2" stroke="#263238" stroke-linejoin="round"/>
<path d="M366.653 257.46L362.257 324.926" stroke="#263238" stroke-width="3" stroke-linecap="round" stroke-linejoin="round"/>
<path d="M415.022 257.46L419.418 324.926" stroke="#263238" stroke-width="3" stroke-linecap="round" stroke-linejoin="round"/>
<path d="M365.75 269.332C365.75 269.332 379.274 276.479 392.049 276.29C405.349 276.094 415.695 269.213 415.695 269.213L416.395 276.577C416.395 276.577 393.295 286.23 365.54 276.122L365.75 269.332Z" fill="#B2B2B2" stroke="#263238" stroke-linejoin="round"/>
<path d="M317.961 274.589C317.961 274.589 323.75 298.487 324.667 301.028C325.584 303.569 326.641 302.162 327.824 305.27C329.007 308.378 329.273 311.066 330.589 312.767C331.905 314.468 335.328 315.168 336.378 317.716C337.428 320.264 338.093 322.378 334.012 323.232C329.931 324.086 326.249 321.671 324.541 317.996C322.833 314.321 320.46 303.996 320.46 303.996C320.46 303.996 304.409 281.519 302.561 277.277L300.72 273.035L317.961 274.589Z" fill="white" stroke="#263238" stroke-linejoin="round"/>
<path d="M326.116 303.149L326.508 303.205C327.138 303.765 327.594 304.494 327.824 305.305C329.014 308.42 329.273 311.101 330.589 312.802C331.905 314.503 335.328 315.203 336.378 317.751C337.428 320.299 338.093 322.413 334.012 323.267C329.931 324.121 326.249 321.706 324.541 318.031C322.833 314.356 320.46 304.031 320.46 304.031C322.959 300.041 326.116 303.149 326.116 303.149Z" fill="#263238" stroke="#263238" stroke-linejoin="round"/>
<path d="M321.916 274.589C321.916 274.589 316.127 298.487 315.203 301.028C314.279 303.569 313.229 302.162 312.046 305.27C310.863 308.378 310.597 311.066 309.281 312.767C307.965 314.468 304.542 315.168 303.492 317.716C302.442 320.264 301.784 322.378 305.858 323.232C309.932 324.086 313.621 321.671 315.336 317.996C317.051 314.321 319.41 303.996 319.41 303.996C319.41 303.996 335.468 281.519 337.309 277.277L339.15 273.035L321.916 274.589Z" fill="white" stroke="#263238" stroke-linejoin="round"/>
<path d="M313.754 303.149L313.362 303.205C312.732 303.765 312.276 304.494 312.046 305.305C310.863 308.42 310.597 311.101 309.281 312.802C307.965 314.503 304.542 315.203 303.492 317.751C302.442 320.299 301.784 322.413 305.858 323.267C309.932 324.121 313.621 321.706 315.336 318.031C317.051 314.356 319.41 304.031 319.41 304.031C316.911 300.041 313.754 303.149 313.754 303.149Z" fill="#263238" stroke="#263238" stroke-linejoin="round"/>
<path d="M303.891 200.571C303.891 200.571 295.491 204.127 295.337 205.702C295.183 207.277 289.8 227.941 289.422 230.3C289.044 232.659 286.79 238.329 288.498 240.695C290.206 243.061 293.237 244.643 295.211 244.776C295.722 244.853 296.245 244.797 296.728 244.613C297.211 244.429 297.638 244.124 297.969 243.726L296.261 255.304C296.261 255.304 293.629 263.459 294.287 266.749C294.945 270.039 297.185 273.329 309.687 276.094C322.189 278.859 329.427 277.41 334.033 275.303C338.639 273.196 344.162 270.564 344.687 267.274C345.212 263.984 343.112 253.589 343.112 253.589L342.055 242.389C342.055 242.389 348.355 242.256 350.742 239.225C353.129 236.194 352.317 233.177 351.4 230.545C350.483 227.913 347.718 218.309 346.794 214.886C345.87 211.463 345.212 205.541 344.162 204.099C343.112 202.657 332.451 200.284 332.451 200.284C332.451 200.284 318.759 195.181 303.891 200.571Z" fill="white" stroke="#263238" stroke-linejoin="round"/>
<path d="M299.026 217.679L301.917 231.231" stroke="#263238" stroke-linejoin="round"/>
<path d="M342.574 218.596L340.6 230.573" stroke="#263238" stroke-linejoin="round"/>
<path d="M344.68 267.281C345.114 264.565 343.756 256.984 343.28 254.443C327.614 258.839 305.438 255.955 296.38 254.443L296.254 255.29C296.254 255.29 293.622 263.445 294.28 266.735C294.938 270.025 297.178 273.315 309.68 276.08C322.182 278.845 329.42 277.396 334.026 275.289C338.632 273.182 344.155 270.571 344.68 267.281Z" fill="#223F64" stroke="#263238" stroke-linejoin="round"/>
<path d="M313.103 163.863C313.103 163.863 308.364 162.022 307.706 168.063C307.048 174.104 309.946 181.363 310.079 182.931C310.212 184.499 301.126 198.065 303.233 202.531C305.34 206.997 309.946 212.926 316.533 213.85C323.12 214.774 328.244 213.584 333.109 209.244C337.974 204.904 339.031 203.98 338.898 201.614C338.765 199.248 333.767 185.297 333.242 181.874C332.717 178.451 335.874 171.871 332.059 165.557C328.244 159.243 320.215 157.794 317.058 159.635C313.901 161.476 313.103 163.863 313.103 163.863Z" fill="#263238" stroke="#263238" stroke-linejoin="round"/>
<path d="M294.147 225.442L295.246 257.46C295.246 257.46 320.362 263.116 343.749 257.46L345.632 225.911C345.632 225.911 303.408 227.5 294.147 225.442Z" fill="#B2B2B2" stroke="#263238" stroke-linejoin="round"/>
<path d="M295.246 257.46L290.857 324.926" stroke="#263238" stroke-width="3" stroke-linecap="round" stroke-linejoin="round"/>
<path d="M343.616 257.46L348.012 324.926" stroke="#263238" stroke-width="3" stroke-linecap="round" stroke-linejoin="round"/>
<path d="M294.343 269.332C294.343 269.332 307.867 276.479 320.642 276.29C333.942 276.094 344.288 269.213 344.288 269.213L344.988 276.577C344.988 276.577 321.888 286.23 294.14 276.122L294.343 269.332Z" fill="#B2B2B2" stroke="#263238" stroke-linejoin="round"/>
<path d="M180.804 180.88L179.754 194.201L200.292 193.501L198.717 181.671L180.804 180.88Z" fill="white" stroke="#263238" stroke-linejoin="round"/>
<path d="M204.4 161.861C203.441 158.977 199.605 158.823 198.324 158.018C197.043 157.213 197.365 155.141 193.844 153.86C190.323 152.579 188.244 152.74 186.48 154.343C185.04 155.769 183.706 157.299 182.49 158.921C180.614 159.859 178.738 161.021 178.003 162.183C176.323 164.836 175.777 171.115 176.337 173.488C176.897 175.861 179.55 182.434 181.65 184.107C183.75 185.78 187.95 188.16 191.009 188.16C194.068 188.16 199.815 184.107 200.375 182.154C200.935 180.201 202.475 174.608 202.608 172.088C202.829 170.995 203.162 169.927 203.602 168.903C203.889 168.098 205.324 164.738 204.4 161.861Z" fill="#263238" stroke="#263238" stroke-linejoin="round"/>
<path d="M176.302 173.488C176.302 173.488 174.489 172.788 174.202 174.608C173.915 176.428 175.035 180.208 176.575 181.034C177.026 181.276 177.53 181.403 178.042 181.403C178.554 181.403 179.058 181.276 179.508 181.034L176.302 173.488Z" fill="white" stroke="#263238" stroke-linejoin="round"/>
<path d="M202.573 173.208C202.573 173.208 205.373 170.975 205.093 174.468C204.813 177.961 201.04 180.6 201.04 180.6L202.573 173.208Z" fill="white" stroke="#263238" stroke-linejoin="round"/>
<path d="M207.144 198.639C207.144 198.639 202.517 191.478 202.02 190.995C201.523 190.512 194.089 189.364 189.462 189.364C184.835 189.364 177.24 191.317 177.24 191.317L173.271 199.451C173.271 199.451 191.8 194.733 207.144 198.639Z" fill="#223F64" stroke="#263238" stroke-linejoin="round"/>
<path d="M156.597 244.006C156.597 244.006 155.484 249.732 156.177 251.272C156.87 252.812 159.537 254.345 160.93 254.345C162.391 254.229 163.84 253.995 165.263 253.645L165.823 245.539L156.597 244.006Z" fill="white" stroke="#263238" stroke-linejoin="round"/>
<path d="M222.278 239.673C222.278 239.673 222.838 246.379 222.418 247.499C221.998 248.619 219.618 250.712 217.945 251.132C216.487 251.522 214.982 251.711 213.472 251.692C213.052 251.552 211.659 241.626 211.659 241.626L222.278 239.673Z" fill="white" stroke="#263238" stroke-linejoin="round"/>
<path d="M164.018 314.055L159.468 317.905C159.468 317.905 155.968 318.605 156.836 321.23C157.242 322.441 163.318 326.487 165.936 327.012C168.554 327.537 173.293 327.012 174.518 325.262C175.743 323.512 174.868 315.28 174.868 315.28L164.018 314.055Z" fill="white" stroke="#263238" stroke-linejoin="round"/>
<path d="M174.524 325.262C174.737 324.908 174.877 324.515 174.937 324.107C172.662 324.772 168.875 325.402 166.292 324.912C163.709 324.422 159.292 321.244 156.961 319.466C156.813 319.733 156.725 320.029 156.704 320.334C156.682 320.639 156.727 320.944 156.835 321.23C157.241 322.441 163.317 326.487 165.935 327.012C168.553 327.537 173.299 327.012 174.524 325.262Z" fill="white" stroke="#263238" stroke-linejoin="round"/>
<path d="M167.692 258.027C167.692 258.027 161.917 258.552 160.167 263.627C158.417 268.702 163.142 309.127 163.142 309.127C163.142 309.127 162.267 311.752 162.442 312.277C162.617 312.802 162.967 315.602 162.967 315.602C162.967 315.602 163.842 317.177 167.692 317.177C170.203 317.103 172.663 316.444 174.874 315.252C174.874 315.252 174.524 310.177 174.524 307.72C174.524 305.263 174.349 299.845 174.349 299.845L177.324 268.856C177.324 268.856 179.949 259.602 167.692 258.027Z" fill="#263238" stroke="#263238" stroke-linejoin="round"/>
<path d="M213.136 314.055L217.693 317.905C217.693 317.905 221.193 318.605 220.318 321.23C219.912 322.441 213.836 326.487 211.218 327.012C208.6 327.537 203.868 327.012 202.636 325.262C201.404 323.512 202.286 315.28 202.286 315.28L213.136 314.055Z" fill="white" stroke="#263238" stroke-linejoin="round"/>
<path d="M202.63 325.262C202.423 324.905 202.283 324.514 202.217 324.107C204.492 324.772 208.279 325.402 210.862 324.912C213.445 324.422 217.862 321.244 220.193 319.466C220.344 319.732 220.434 320.028 220.456 320.334C220.477 320.639 220.431 320.945 220.319 321.23C219.913 322.441 213.837 326.487 211.219 327.012C208.601 327.537 203.862 327.012 202.63 325.262Z" fill="white" stroke="#263238" stroke-linejoin="round"/>
<path d="M209.461 258.027C209.461 258.027 215.236 258.552 216.993 263.627C218.75 268.702 214.011 309.127 214.011 309.127C214.011 309.127 214.886 311.752 214.711 312.277C214.536 312.802 214.186 315.602 214.186 315.602C214.186 315.602 213.311 317.177 209.461 317.177C206.959 317.108 204.508 316.459 202.3 315.28C202.3 315.28 202.65 310.205 202.65 307.748C202.65 305.291 202.832 299.873 202.832 299.873L199.85 268.884C199.85 268.884 197.204 259.602 209.461 258.027Z" fill="#263238" stroke="#263238" stroke-linejoin="round"/>
<path d="M162.89 259.098C162.89 259.098 162.19 263.998 162.47 266.224C162.75 268.45 163.17 271.25 170.17 273.924C177.17 276.598 184.17 278.39 189.735 277.977C195.3 277.564 205.66 275.037 207.935 273.924C210.21 272.811 212.03 270.683 213.535 269.227C215.04 267.771 215.474 262.465 215.194 260.365C215.046 259.17 214.764 257.996 214.354 256.865C214.354 256.865 190.834 263.011 162.89 259.098Z" fill="#263238" stroke="#263238" stroke-linejoin="round"/>
<path d="M175.882 198.03C175.882 198.03 169.176 200.753 166.082 203.126C162.988 205.499 159.929 208.439 159.929 209.279C159.929 210.119 151.69 243.306 151.69 243.306C151.69 243.306 154.903 247.359 161.889 248.052H163.842C163.842 248.052 162.869 258.118 162.869 259.098C162.869 260.078 176.001 264.698 191.373 263.424C206.745 262.15 214.011 258.258 214.291 256.858C214.571 255.458 214.011 252.658 214.011 250.558C214.011 248.458 213.591 244.405 213.591 244.405C213.591 244.405 217.504 244.825 220.444 243.705C223.384 242.585 227.731 238.7 227.731 238.7C227.731 238.7 219.331 212.8 218.085 208.726C216.839 204.652 204.533 197.337 204.533 197.337C204.533 197.337 193.074 193.697 175.882 198.03Z" fill="#223F64" stroke="#263238" stroke-linejoin="round"/>
<path d="M163.45 215.39L166.824 229.474" stroke="#263238" stroke-linejoin="round"/>
<path d="M213.732 220.941L211.604 229.474" stroke="#263238" stroke-linejoin="round"/>
<path d="M214.977 215.957L214.361 218.428" stroke="#263238" stroke-linejoin="round"/>
<path d="M163.737 225.442L164.836 257.46C164.836 257.46 189.945 263.116 213.339 257.46L215.222 225.911C215.222 225.911 172.998 227.5 163.737 225.442Z" fill="#B2B2B2" stroke="#263238" stroke-linejoin="round"/>
<path d="M164.836 257.46L160.44 324.926" stroke="#263238" stroke-width="3" stroke-linecap="round" stroke-linejoin="round"/>
<path d="M213.199 257.46L217.595 324.926" stroke="#263238" stroke-width="3" stroke-linecap="round" stroke-linejoin="round"/>
<path d="M163.927 269.332C163.927 269.332 177.451 276.5 190.226 276.29C203.526 276.094 213.872 269.213 213.872 269.213L214.572 276.577C214.572 276.577 191.472 286.23 163.724 276.122L163.927 269.332Z" fill="#B2B2B2" stroke="#263238" stroke-linejoin="round"/>
<path d="M108.78 319.277C107.38 319.928 104.132 322.777 101.521 323.344C98.9097 323.911 93.6877 323.344 92.8197 321.895C92.0427 320.6 95.6197 318.15 97.4677 315.987C97.6752 315.743 97.8669 315.486 98.0417 315.217C99.4907 312.893 100.359 308.252 100.359 308.252L94.8497 269.367L108.78 271.397L108.199 305.641C108.199 305.641 110.684 310.065 111.391 313.474C112.042 316.631 111.664 317.975 108.78 319.277Z" fill="white" stroke="#263238" stroke-linejoin="round"/>
<path d="M108.78 319.277C107.38 319.928 104.132 322.777 101.521 323.344C98.91 323.911 93.688 323.344 92.82 321.895C92.7704 321.816 92.7371 321.728 92.722 321.636C92.477 320.299 95.753 318.017 97.468 315.987L98.168 316.687C98.168 316.687 100.317 313.383 101.038 311.948C101.759 310.513 102.473 308.504 104.048 307.048C105.623 305.592 108.192 305.599 108.192 305.599C108.192 305.599 110.677 310.023 111.384 313.432C111.487 313.908 111.565 314.39 111.615 314.874C111.839 317.1 111.181 318.199 108.78 319.277Z" fill="white" stroke="#263238" stroke-linejoin="round"/>
<path d="M108.781 319.277C107.381 319.928 104.133 322.777 101.522 323.344C98.9107 323.911 93.6887 323.344 92.8207 321.895C92.7711 321.816 92.7377 321.728 92.7227 321.636C94.5267 322.595 96.5824 322.973 98.6096 322.721C102.621 322.14 103.055 318.276 108.361 315.721C109.349 315.151 110.483 314.881 111.623 314.944C111.84 317.1 111.182 318.199 108.781 319.277Z" fill="white" stroke="#263238" stroke-linejoin="round"/>
<path d="M117.103 319.277C118.503 319.928 121.751 322.777 124.362 323.344C126.973 323.911 132.202 323.344 133.07 321.895C133.84 320.6 130.27 318.15 128.422 315.987C128.212 315.745 128.02 315.487 127.848 315.217C126.399 312.893 125.524 308.252 125.524 308.252L131.04 269.367L117.103 271.397L117.684 305.641C117.684 305.641 115.206 310.065 114.492 313.474C113.841 316.631 114.226 317.975 117.103 319.277Z" fill="white" stroke="#263238" stroke-linejoin="round"/>
<path d="M117.104 319.277C118.504 319.928 121.752 322.777 124.363 323.344C126.974 323.911 132.203 323.344 133.071 321.895C133.12 321.816 133.154 321.728 133.169 321.636C133.407 320.299 130.138 318.017 128.423 315.987L127.723 316.687C127.723 316.687 125.574 313.383 124.86 311.948C124.146 310.513 123.418 308.504 121.843 307.048C120.268 305.592 117.699 305.599 117.699 305.599C117.699 305.599 115.221 310.023 114.507 313.432C114.405 313.908 114.33 314.39 114.283 314.874C114.045 317.1 114.71 318.199 117.104 319.277Z" fill="white" stroke="#263238" stroke-linejoin="round"/>
<path d="M117.103 319.277C118.503 319.928 121.751 322.777 124.362 323.344C126.973 323.911 132.202 323.344 133.07 321.895C133.12 321.816 133.153 321.728 133.168 321.636C131.364 322.593 129.308 322.971 127.281 322.721C123.27 322.14 122.829 318.276 117.523 315.721C116.537 315.151 115.406 314.881 114.268 314.944C114.044 317.1 114.709 318.199 117.103 319.277Z" fill="white" stroke="#263238" stroke-linejoin="round"/>
<path d="M98.6092 200.571C98.6092 200.571 90.2092 204.127 90.0552 205.702C89.9012 207.277 84.5322 227.941 84.1402 230.307C83.7482 232.673 81.5082 238.336 83.2162 240.702C84.9242 243.068 87.9552 244.65 89.9292 244.783C90.4404 244.86 90.9626 244.804 91.4457 244.62C91.9287 244.436 92.3563 244.131 92.6872 243.733L91.0002 255.311C91.0002 255.311 88.3682 263.466 89.0262 266.756C89.6842 270.046 91.9242 273.336 104.426 276.101C116.928 278.866 124.166 277.417 128.772 275.31C133.378 273.203 138.901 270.571 139.426 267.281C139.951 263.991 137.851 253.596 137.851 253.596L136.794 242.396C136.794 242.396 143.094 242.263 145.481 239.232C147.868 236.201 147.056 233.184 146.139 230.552C145.222 227.92 142.457 218.316 141.533 214.893C140.609 211.47 139.951 205.548 138.901 204.106C137.851 202.664 127.19 200.291 127.19 200.291C127.19 200.291 113.477 195.181 98.6092 200.571Z" fill="#223F64" stroke="#263238" stroke-linejoin="round"/>
<path d="M94.9834 223.482L96.6354 231.231" stroke="#263238" stroke-linejoin="round"/>
<path d="M93.7441 217.679L94.3461 220.507" stroke="#263238" stroke-linejoin="round"/>
<path d="M137.298 218.596L135.324 230.573" stroke="#263238" stroke-linejoin="round"/>
<path d="M139.398 267.281C139.832 264.565 138.474 256.984 137.998 254.443C122.332 258.839 100.156 255.955 91.0982 254.443L90.9722 255.29C90.9722 255.29 88.3402 263.445 88.9982 266.735C89.6562 270.025 91.8962 273.315 104.398 276.08C116.9 278.845 124.138 277.396 128.744 275.289C133.35 273.182 138.873 270.571 139.398 267.281Z" fill="#263238" stroke="#263238" stroke-linejoin="round"/>
<path d="M101.43 174.629C101.43 174.629 100.73 172.284 99.4421 174.272C98.1541 176.26 99.4421 179.69 100.345 180.775C101.259 181.658 102.308 182.388 103.453 182.938L104.678 181.496L101.43 174.629Z" fill="white" stroke="#263238" stroke-linejoin="round"/>
<path d="M126.553 174.629C126.553 174.629 127.253 172.284 128.541 174.272C129.829 176.26 128.541 179.69 127.638 180.775C126.724 181.658 125.675 182.388 124.53 182.938L123.298 181.496L126.553 174.629Z" fill="white" stroke="#263238" stroke-linejoin="round"/>
<path d="M106.4 187.25L101.661 209.608C103.892 211.858 106.774 213.347 109.9 213.864C116.361 214.767 121.422 213.633 126.21 209.482C125.426 202.426 123.109 185.864 123.109 185.864L125.503 180.74C126.809 178.014 127.434 175.011 127.323 171.99C127.242 169.725 126.589 167.517 125.426 165.571C121.611 159.271 113.582 157.808 110.425 159.649C107.268 161.49 106.477 163.849 106.477 163.849C106.477 163.849 101.745 162.008 101.087 168.049C100.429 174.09 101.43 179.851 103.453 182.917L106.4 187.25Z" fill="#263238" stroke="#263238" stroke-linejoin="round"/>
<path d="M114.254 163.968C113.67 163.981 113.095 164.116 112.567 164.366C112.039 164.616 111.569 164.974 111.188 165.417C110.546 166.37 110.295 167.533 110.488 168.665C111.386 167.706 112.615 167.125 113.925 167.041C114.484 167.031 115.034 167.178 115.513 167.465C115.991 167.752 116.38 168.168 116.634 168.665C116.634 168.665 118.23 165.417 114.254 163.968Z" fill="white" stroke="#263238" stroke-linejoin="round"/>
<path d="M88.8232 225.442L89.9222 257.46C89.9222 257.46 115.038 263.116 138.425 257.46L140.308 225.911C140.308 225.911 98.0842 227.5 88.8232 225.442Z" fill="#B2B2B2" stroke="#263238" stroke-linejoin="round"/>
<path d="M89.9224 257.46L85.5264 324.926" stroke="#263238" stroke-width="3" stroke-linecap="round" stroke-linejoin="round"/>
<path d="M138.292 257.46L142.688 324.926" stroke="#263238" stroke-width="3" stroke-linecap="round" stroke-linejoin="round"/>
<path d="M89.0126 269.332C89.0126 269.332 102.537 276.479 115.312 276.29C128.612 276.094 138.965 269.213 138.965 269.213L139.665 276.577C139.665 276.577 116.565 286.23 88.8096 276.122L89.0126 269.332Z" fill="#B2B2B2" stroke="#263238" stroke-linejoin="round"/>
<path d="M296.1 59.2969H277.466C276.234 59.2969 275.051 59.7866 274.18 60.6582C273.308 61.5299 272.818 62.7121 272.818 63.9449V76.3769C272.818 77.6096 273.308 78.7918 274.18 79.6635C275.051 80.5352 276.234 81.0249 277.466 81.0249H279.86L276.773 87.1919L285.173 81.0249H296.1C297.333 81.0249 298.515 80.5352 299.387 79.6635C300.259 78.7918 300.748 77.6096 300.748 76.3769V63.9449C300.748 62.7121 300.259 61.5299 299.387 60.6582C298.515 59.7866 297.333 59.2969 296.1 59.2969Z" fill="white" stroke="#263238" stroke-linejoin="round"/>
<path d="M280.847 71.5187C281.597 71.5187 282.205 70.9107 282.205 70.1607C282.205 69.4107 281.597 68.8027 280.847 68.8027C280.097 68.8027 279.489 69.4107 279.489 70.1607C279.489 70.9107 280.097 71.5187 280.847 71.5187Z" fill="#263238" stroke="#263238" stroke-linejoin="round"/>
<path d="M286.769 71.5187C287.519 71.5187 288.127 70.9107 288.127 70.1607C288.127 69.4107 287.519 68.8027 286.769 68.8027C286.019 68.8027 285.411 69.4107 285.411 70.1607C285.411 70.9107 286.019 71.5187 286.769 71.5187Z" fill="#263238" stroke="#263238" stroke-linejoin="round"/>
<path d="M292.699 71.5187C293.449 71.5187 294.057 70.9107 294.057 70.1607C294.057 69.4107 293.449 68.8027 292.699 68.8027C291.949 68.8027 291.341 69.4107 291.341 70.1607C291.341 70.9107 291.949 71.5187 292.699 71.5187Z" fill="#263238" stroke="#263238" stroke-linejoin="round"/>
</svg>
