<svg width="12" height="12" viewBox="0 0 12 12" fill="none" xmlns="http://www.w3.org/2000/svg">
<path d="M3 2H7C7.53043 2 8.03914 2.21071 8.41421 2.58579C8.78929 2.96086 9 3.46957 9 4C9 4.53043 8.78929 5.03914 8.41421 5.41421C8.03914 5.78929 7.53043 6 7 6H3V2Z" stroke="#969D88" stroke-linecap="round" stroke-linejoin="round"/>
<path d="M3 6H7.5C8.03043 6 8.53914 6.21071 8.91421 6.58579C9.28929 6.96086 9.5 7.46957 9.5 8C9.5 8.53043 9.28929 9.03914 8.91421 9.41421C8.53914 9.78929 8.03043 10 7.5 10H3V6Z" stroke="#969D88" stroke-linecap="round" stroke-linejoin="round"/>
</svg>
