<svg width="16" height="16" viewBox="0 0 16 16" fill="none" xmlns="http://www.w3.org/2000/svg">
<path d="M13.7 6.50019H2M12.2 3.2002H11H6.2H3.8C3.32261 3.2002 2.86477 3.38984 2.52721 3.7274C2.18964 4.06497 2 4.5228 2 5.00019V12.2002C2 12.6776 2.18964 13.1354 2.52721 13.473C2.86477 13.8105 3.32261 14.0002 3.8 14.0002H12.2C12.6774 14.0002 13.1352 13.8105 13.4728 13.473C13.8103 13.1354 14 12.6776 14 12.2002V5.00019C14 4.5228 13.8103 4.06497 13.4728 3.7274C13.1352 3.38984 12.6774 3.2002 12.2 3.2002Z" stroke="#12160A"/>
<path d="M5.2998 2L5.2998 4.4" stroke="#12160A" stroke-linecap="round"/>
<path d="M10.4004 2L10.4004 4.4" stroke="#12160A" stroke-linecap="round"/>
</svg>
