<svg width="16" height="16" viewBox="0 0 16 16" fill="none" xmlns="http://www.w3.org/2000/svg">
<path d="M11.3337 6.00004V4.66671C11.3337 3.78265 10.9825 2.93481 10.3573 2.30968C9.73223 1.68456 8.88438 1.33337 8.00033 1.33337C7.11627 1.33337 6.26842 1.68456 5.6433 2.30968C5.01818 2.93481 4.66699 3.78265 4.66699 4.66671V6.00004C4.13656 6.00004 3.62785 6.21075 3.25278 6.58583C2.87771 6.9609 2.66699 7.46961 2.66699 8.00004V12.6667C2.66699 13.1971 2.87771 13.7058 3.25278 14.0809C3.62785 14.456 4.13656 14.6667 4.66699 14.6667H11.3337C11.8641 14.6667 12.3728 14.456 12.7479 14.0809C13.1229 13.7058 13.3337 13.1971 13.3337 12.6667V8.00004C13.3337 7.46961 13.1229 6.9609 12.7479 6.58583C12.3728 6.21075 11.8641 6.00004 11.3337 6.00004ZM6.00033 4.66671C6.00033 4.13627 6.21104 3.62757 6.58611 3.25249C6.96118 2.87742 7.46989 2.66671 8.00033 2.66671C8.53076 2.66671 9.03947 2.87742 9.41454 3.25249C9.78961 3.62757 10.0003 4.13627 10.0003 4.66671V6.00004H6.00033V4.66671ZM12.0003 12.6667C12.0003 12.8435 11.9301 13.0131 11.8051 13.1381C11.68 13.2631 11.5105 13.3334 11.3337 13.3334H4.66699C4.49018 13.3334 4.32061 13.2631 4.19559 13.1381C4.07056 13.0131 4.00033 12.8435 4.00033 12.6667V8.00004C4.00033 7.82323 4.07056 7.65366 4.19559 7.52864C4.32061 7.40361 4.49018 7.33337 4.66699 7.33337H11.3337C11.5105 7.33337 11.68 7.40361 11.8051 7.52864C11.9301 7.65366 12.0003 7.82323 12.0003 8.00004V12.6667Z" fill="#12160A"/>
</svg>
