<svg width="16" height="16" viewBox="0 0 16 16" fill="none" xmlns="http://www.w3.org/2000/svg">
<path d="M3.49992 12C2.3033 12 1.33325 11.03 1.33325 9.83333V4.16667C1.33325 2.97005 2.3033 2 3.49992 2H12.4999C13.6965 2 14.6666 2.97005 14.6666 4.16667V9.83333C14.6666 11.03 13.6965 12 12.4999 12H8.67491L5.33237 14.5005C4.96382 14.7761 4.44158 14.7008 4.16593 14.3322C4.05816 14.1882 3.99992 14.0131 3.99992 13.8333L3.99939 12H3.49992ZM8.34226 11H12.4999C13.1443 11 13.6666 10.4777 13.6666 9.83333V4.16667C13.6666 3.52233 13.1443 3 12.4999 3H3.49992C2.85559 3 2.33325 3.52233 2.33325 4.16667V9.83333C2.33325 10.4777 2.85559 11 3.49992 11H4.99911L4.99925 11.4999L4.99982 13.5004L8.34226 11Z" fill="#49A843"/>
</svg>
