<svg width="20" height="20" viewBox="0 0 20 20" fill="none" xmlns="http://www.w3.org/2000/svg">
<path d="M7.30582 9.0375L7.30582 14.6675C7.30582 15.0562 7.60275 15.3712 7.96904 15.3712C8.33533 15.3712 8.63227 15.0562 8.63227 14.6675L8.63227 9.0375C8.63227 8.64883 8.33533 8.33375 7.96904 8.33375C7.60275 8.33375 7.30582 8.64883 7.30582 9.0375ZM10.622 8.33375C10.9882 8.33375 11.2852 8.64883 11.2852 9.0375V14.6675C11.2852 15.0562 10.9882 15.3712 10.622 15.3712C10.2557 15.3712 9.95872 15.0562 9.95872 14.6675V9.0375C9.95872 8.64883 10.2557 8.33375 10.622 8.33375ZM11.9484 4.815H15.9278C16.2941 4.815 16.591 5.13008 16.591 5.51875C16.591 5.90742 16.2941 6.2225 15.9278 6.2225H15.1949L14.1962 15.7598C14.0096 17.5418 12.5901 18.89 10.9004 18.89H7.69059C6.00086 18.89 4.58134 17.5418 4.39474 15.7598L3.39606 6.2225H2.66323C2.29694 6.2225 2 5.90742 2 5.51875C2 5.13008 2.29694 4.815 2.66323 4.815H6.64259C6.64259 3.26032 7.83034 2 9.2955 2C10.7607 2 11.9484 3.26032 11.9484 4.815ZM9.2955 3.4075C8.56292 3.4075 7.96904 4.03766 7.96904 4.815H10.622C10.622 4.03766 10.0281 3.4075 9.2955 3.4075ZM4.73067 6.2225L5.71308 15.6044C5.82504 16.6736 6.67675 17.4825 7.69059 17.4825H10.9004C11.9142 17.4825 12.7659 16.6736 12.8779 15.6044L13.8603 6.2225H4.73067Z" fill="#C13939"/>
</svg>
