<svg width="16" height="16" viewBox="0 0 16 16" fill="none" xmlns="http://www.w3.org/2000/svg">
<path d="M13.7451 2.34151C12.8233 1.37204 11.2837 1.35262 10.3378 2.29853L2.83793 9.79804C2.57566 10.0603 2.39363 10.3919 2.31319 10.754L1.61109 13.9139C1.58143 14.0474 1.62203 14.1868 1.71875 14.2835C1.81547 14.3802 1.95489 14.4208 2.0884 14.3911L5.22951 13.6926C5.60346 13.6094 5.94594 13.4214 6.21682 13.1505L13.7032 5.66402C14.616 4.7512 14.6346 3.27705 13.7451 2.34151ZM10.9035 2.86423C11.5314 2.23631 12.5534 2.2492 13.1653 2.89276C13.7558 3.5138 13.7435 4.49238 13.1375 5.09834L12.6005 5.63535L10.3664 3.40124L10.9035 2.86423ZM9.80072 3.96691L12.0348 6.20104L5.65113 12.5848C5.48781 12.7481 5.28131 12.8615 5.05585 12.9117L2.5284 13.4737L3.09414 10.9275C3.14158 10.714 3.24893 10.5184 3.4036 10.3637L9.80072 3.96691Z" fill="#969D88"/>
</svg>
