<svg width="20" height="20" viewBox="0 0 20 20" fill="none" xmlns="http://www.w3.org/2000/svg">
<path d="M10 11.6307C7.79086 11.6307 6 9.92145 6 12.1306C6 14.3397 7.79086 17.6306 10 17.6306C12.2091 17.6306 14 14.3397 14 12.1306C14 9.92145 12.2091 11.6307 10 11.6307Z" fill="#969D88"/>
<path d="M9.04551 13.0193C8.20482 12.9645 7.37819 12.7796 6.59612 12.4716C6.13141 12.3043 5.71667 12.0254 5.38963 11.6604C5.21784 11.4621 5.12278 11.2105 5.12119 10.9501V8.59191C5.11976 8.56813 5.11976 8.54429 5.12119 8.52051L5.69531 8.69502C7.09786 9.11787 8.49986 9.54181 9.90131 9.96683C9.96313 9.98378 10.0285 9.98378 10.0903 9.96683L13.3783 8.97231L14.7632 8.5519C14.805 8.54069 14.8475 8.53195 14.8905 8.52571V10.8934C14.8905 11.3813 14.6379 11.7202 14.2703 11.9942C13.6626 12.4478 12.9559 12.6711 12.2246 12.8317C11.4973 12.9861 10.7554 13.0639 10.0114 13.0639C9.68897 13.0639 9.36702 13.049 9.04551 13.0193Z" fill="#969D88" stroke="white" stroke-width="0.5"/>
<path d="M2.24904 13.9863C2.22664 13.9727 2.20758 13.9544 2.19327 13.9326C2.17896 13.9109 2.16974 13.8863 2.1663 13.8607C2.1054 13.4517 2.1054 13.0361 2.1663 12.6271C2.32186 11.6414 2.77864 8.22894 3.17849 7.31477C3.2058 7.25297 3.19123 7.26939 3.19123 7.26939C3.19123 7.26939 3.02474 7.21345 2.90856 7.17344C2.79238 7.13343 2.89085 7.16905 2.72651 7.10838L1.66731 6.73334C1.61816 6.71521 1.57581 6.68277 1.54591 6.64035C1.51602 6.59794 1.5 6.54757 1.5 6.49598C1.5 6.44438 1.51602 6.39402 1.54591 6.3516C1.57581 6.30919 1.61816 6.27675 1.66731 6.25861L9.90339 3.01695C9.96429 2.99435 10.0315 2.99435 10.0924 3.01695L18.3371 6.24527C18.3863 6.26443 18.4284 6.29803 18.4575 6.3415C18.4866 6.38497 18.5014 6.43619 18.4999 6.48822C18.4984 6.54024 18.4806 6.59054 18.4489 6.63227C18.4173 6.67401 18.3733 6.70515 18.323 6.72147C16.4219 7.34616 11.1048 9.07335 10.1225 9.36642C10.0465 9.38919 4.99964 7.87472 4.39011 7.6846C4.3441 7.67061 4.22461 7.61955 3.9714 7.51009C3.45736 9.01236 3.93962 13.0057 3.7397 13.5449C3.72116 13.5921 3.71747 13.6437 3.72911 13.693C3.77876 13.9059 3.74152 13.9669 3.62981 14.0183C3.41437 14.1241 3.1759 14.1765 2.93513 14.171C2.69437 14.1656 2.45927 14.1017 2.24904 13.9863Z" fill="#969D88"/>
</svg>
