<svg width="16" height="16" viewBox="0 0 16 16" fill="none" xmlns="http://www.w3.org/2000/svg">
<path d="M1.52148 7.28949C1.52148 7.28949 3.60864 3 7.26117 3C10.9137 3 13.0009 7.28949 13.0009 7.28949C13.0009 7.28949 10.9137 11.579 7.26117 11.579C3.60864 11.579 1.52148 7.28949 1.52148 7.28949Z" stroke="#12160A" stroke-linecap="round" stroke-linejoin="round"/>
<path d="M7.26068 8.89778C8.12521 8.89778 8.82605 8.17761 8.82605 7.28922C8.82605 6.40084 8.12521 5.68066 7.26068 5.68066C6.39615 5.68066 5.69531 6.40084 5.69531 7.28922C5.69531 8.17761 6.39615 8.89778 7.26068 8.89778Z" stroke="#12160A" stroke-linecap="round" stroke-linejoin="round"/>
<line x1="0.5" y1="-0.5" x2="14.3226" y2="-0.5" transform="matrix(0.784508 0.620118 -0.59927 0.800547 1 3.15234)" stroke="#12160A" stroke-linecap="round" stroke-linejoin="round"/>
</svg>
