<svg width="20" height="20" viewBox="0 0 20 20" fill="none" xmlns="http://www.w3.org/2000/svg">
<path d="M8.22741 17.1694C8.27349 17.1345 8.33911 17.1026 8.45128 17.1012C8.68049 17.2025 8.94809 17.2634 9.21201 17.2722C9.47014 17.2808 9.76695 17.2405 10.0327 17.099C10.1328 17.1016 10.1929 17.1309 10.2356 17.1628C10.3027 17.213 10.3775 17.3094 10.444 17.4797C10.5338 17.7095 10.5814 18.002 10.6036 18.307C9.68665 18.3296 8.81368 18.3295 7.84975 18.3068C7.87918 18.0033 7.92849 17.7168 8.01819 17.4885C8.08514 17.3181 8.15958 17.2209 8.22741 17.1694Z" fill="#969D88" stroke="#969D88" stroke-linejoin="round"/>
<path d="M11.8014 11.9935C12.0525 11.7533 12.3206 11.6374 12.638 11.6539C13.1302 11.8969 13.7405 12.0419 14.3447 12.0584C14.9404 12.0747 15.5788 11.9671 16.1107 11.6553C16.5029 11.6476 16.8306 11.8336 17.1322 12.2248C17.475 12.6692 17.747 13.3403 17.9534 14.1442C18.3094 15.5311 18.4354 17.1685 18.483 18.3296C16.4214 18.3876 14.524 18.3574 12.4773 18.3212C12.4016 17.8621 12.2946 17.3879 12.141 16.9665C12.0001 16.5802 11.7972 16.1732 11.4912 15.8812C11.5104 15.8319 11.5303 15.7786 11.549 15.7234C11.5968 15.5928 11.6232 15.4224 11.6404 15.2835C11.6603 15.1234 11.6749 14.9414 11.6845 14.7671C11.6941 14.5925 11.6991 14.4192 11.6987 14.2757C11.6986 14.2042 11.6971 14.1362 11.6937 14.0771C11.6913 14.0349 11.6868 13.9693 11.6735 13.9056C11.6078 13.528 11.4343 13.2001 11.1771 12.9346C11.3632 12.5323 11.5722 12.2127 11.8014 11.9935Z" fill="#969D88" stroke="#969D88" stroke-linejoin="round"/>
<path d="M8.69042 12.2463L8.6904 12.2461L8.67812 12.2483C8.20055 12.3341 7.78592 12.5129 7.46873 12.8013C7.14716 13.0936 6.95533 13.472 6.88613 13.8993C6.83672 14.1966 6.82636 14.5495 6.8435 14.8638C6.85839 15.1367 6.89693 15.4424 6.97974 15.6707C6.53644 15.9825 6.33269 16.5182 6.22413 16.9607C6.14686 17.2756 6.10135 17.6083 6.06524 17.9078C6.05596 17.9847 6.04739 18.0586 6.03914 18.1296C6.03255 18.1863 6.02616 18.2413 6.0198 18.2945C5.74493 18.297 5.45826 18.3011 5.16249 18.3055C4.33111 18.3176 3.42776 18.3308 2.51209 18.3085C2.51468 18.1732 2.51707 18.0297 2.51958 17.8792C2.54287 16.4809 2.57632 14.4725 2.87656 12.6895C3.06502 11.5704 3.34981 10.6046 3.76311 9.95684C3.96654 9.638 4.18798 9.41717 4.4239 9.28495C4.63303 9.16774 4.87553 9.10742 5.17127 9.13006C5.70807 9.40605 6.3742 9.56737 7.03339 9.58392C7.68706 9.60033 8.3815 9.47513 8.95614 9.1281C9.18988 9.1113 9.34128 9.14902 9.44543 9.19996C9.56542 9.25866 9.6715 9.35875 9.77618 9.52325C9.88461 9.69364 9.97675 9.90901 10.0782 10.1765C10.1022 10.2397 10.127 10.3066 10.1527 10.376C10.1867 10.4679 10.2223 10.5641 10.2597 10.6617C9.83265 11.0433 9.50164 11.5848 9.22794 12.2008C9.03522 12.1991 8.84966 12.2218 8.69042 12.2463Z" fill="#969D88" stroke="#969D88" stroke-linejoin="round"/>
<path d="M6.72794 7.41147C6.13956 7.3064 5.57218 7.05423 5.19393 6.57092C4.85771 6.17165 4.71062 5.64631 4.6896 5.01589C4.66859 4.09129 4.85771 2.85147 4.96278 2.55728C5.34103 1.50659 6.30767 0.771103 7.8837 1.0653C9.45974 1.35949 10.1112 2.36815 10.0902 3.5029C10.0902 3.79709 9.81697 5.03691 9.48075 5.87746C9.2496 6.44483 8.91338 6.90714 8.47209 7.1593C7.92573 7.49552 7.31633 7.53755 6.72794 7.41147Z" fill="#969D88" stroke="#969D88" stroke-linejoin="round"/>
<path d="M16.6256 7.63628C16.4574 7.32107 16.5415 7.13195 16.5205 6.58559C16.4574 4.88347 15.3017 3.83278 13.8517 4.02191C12.2547 4.23204 11.5402 5.5349 11.9185 7.17398C12.0445 7.69932 12.1706 7.86743 12.0866 8.20365C12.0025 8.53988 11.3301 9.14928 11.3301 9.14928C11.3301 9.14928 12.3598 9.10725 12.8221 9.1913C13.1583 9.40144 13.8097 9.71665 14.5662 9.61158C15.1966 9.52752 15.8691 9.04421 16.1422 8.77103C16.5625 8.5819 17.5712 8.35075 17.5712 8.35075C17.5712 8.35075 16.7727 7.95149 16.6256 7.63628Z" fill="#969D88" stroke="#969D88" stroke-linejoin="round"/>
<path d="M8.54109 15.3877L8.54097 15.3877C8.58366 15.587 8.6586 15.7135 8.74746 15.7984C8.884 15.8942 9.05556 15.9381 9.27087 15.9381C9.48617 15.9381 9.65774 15.8942 9.79428 15.7984C9.88234 15.7143 9.95672 15.5893 9.99961 15.3931C10.0357 15.2016 10.0597 14.9697 10.072 14.7641C10.0781 14.6614 10.081 14.5696 10.0813 14.4976C10.0816 14.4289 10.0793 14.395 10.0788 14.3878L8.54109 15.3877ZM8.54109 15.3877L8.53847 15.3767C8.49594 15.1981 8.47194 14.9748 8.46219 14.77C8.45742 14.6698 8.4563 14.5792 8.45744 14.5075C8.45801 14.4717 8.45912 14.4421 8.46044 14.4195C8.46145 14.4021 8.4624 14.3921 8.4628 14.3883C8.48796 14.2396 8.55579 14.122 8.66211 14.0378C8.77151 13.951 8.95962 13.8701 9.27087 13.8701C9.58212 13.8701 9.77023 13.951 9.87963 14.0378C9.98574 14.1219 10.0535 14.2392 10.0788 14.3874L8.54109 15.3877Z" fill="#969D88" stroke="#969D88" stroke-linejoin="round"/>
</svg>
