<svg width="20" height="20" viewBox="0 0 20 20" fill="none" xmlns="http://www.w3.org/2000/svg">
<path d="M5.83333 9.16667C7.67428 9.16667 9.16667 7.67428 9.16667 5.83333C9.16667 3.99238 7.67428 2.5 5.83333 2.5C3.99238 2.5 2.5 3.99238 2.5 5.83333C2.5 7.67428 3.99238 9.16667 5.83333 9.16667Z" fill="#969D88"/>
<path d="M14.1667 9.16667C16.0076 9.16667 17.5 7.67428 17.5 5.83333C17.5 3.99238 16.0076 2.5 14.1667 2.5C12.3257 2.5 10.8333 3.99238 10.8333 5.83333C10.8333 7.67428 12.3257 9.16667 14.1667 9.16667ZM9.16667 14.1667C9.16667 16.0076 7.67428 17.5 5.83333 17.5C3.99238 17.5 2.5 16.0076 2.5 14.1667C2.5 12.3257 3.99238 10.8333 5.83333 10.8333C7.67428 10.8333 9.16667 12.3257 9.16667 14.1667Z" fill="#969D88"/>
<path d="M14.1663 17.4997C16.0073 17.4997 17.4997 16.0073 17.4997 14.1663C17.4997 12.3254 16.0073 10.833 14.1663 10.833C12.3254 10.833 10.833 12.3254 10.833 14.1663C10.833 16.0073 12.3254 17.4997 14.1663 17.4997Z" fill="#969D88"/>
</svg>
