<svg width="64" height="64" viewBox="0 0 64 64" fill="none" xmlns="http://www.w3.org/2000/svg">
<g clip-path="url(#clip0_713_15628)">
<path d="M60 0H4C1.79086 0 0 1.79086 0 4V60C0 62.2091 1.79086 64 4 64H60C62.2091 64 64 62.2091 64 60V4C64 1.79086 62.2091 0 60 0Z" fill="#49A843"/>
<path d="M33 45.7999H26L31.62 38.8799C31.62 38.8799 34.47 41.2499 34.56 42.5899L32.81 44.8199L33 45.7999Z" fill="white"/>
<path d="M21.5196 45.7998H16.6196L15.8096 43.9998C17.2388 43.308 18.6099 42.502 19.9096 41.5898C20.2648 41.9104 20.4821 42.3562 20.5156 42.8336C20.5492 43.3109 20.3965 43.7827 20.0896 44.1498L21.5196 45.7998Z" fill="white"/>
<path d="M51.6495 32.7896C51.1127 32.2799 50.6783 31.6723 50.3695 30.9996C50.708 30.1074 50.8906 29.1636 50.9095 28.2096C50.7295 27.4096 52.0995 26.8796 52.0995 26.8796C52.0995 26.8796 52.3295 25.7196 51.8595 25.4796C51.2394 25.4105 50.6139 25.5476 50.0795 25.8696C50.0795 25.8696 49.6295 24.9696 47.2195 24.5896C47.2868 24.2734 47.423 23.9761 47.6183 23.7185C47.8136 23.461 48.0633 23.2497 48.3495 23.0996C49.0695 22.7196 48.4095 22.0996 48.1395 21.9996C47.8695 21.8996 45.9995 20.9996 44.4295 23.7596C43.3999 23.6569 42.4263 23.2416 41.6395 22.5696C40.6395 21.5696 38.3695 18.4396 36.9195 18.2896C36.1037 18.1127 35.2538 18.1807 34.4764 18.4849C33.699 18.7891 33.0287 19.316 32.5495 19.9996C31.1195 21.8196 28.2395 25.4096 28.2395 25.4096C29.0516 23.4141 30.1868 21.5661 31.5995 19.9396C29.6506 20.5186 27.7974 21.3811 26.0995 22.4996C23.9995 23.9996 22.8295 24.8296 21.7095 24.8296C20.5895 24.8296 19.0295 23.6696 18.1695 24.1696C17.3095 24.6696 9.99951 29.4596 9.37951 30.9996C8.75951 32.5396 8.18951 36.1396 7.50951 35.9096C6.82951 35.6796 6.81951 35.0096 6.50951 35.1896C6.19951 35.3696 5.67951 36.0296 6.39951 36.4396C7.11951 36.8496 8.79951 36.6196 10.2295 33.3796C10.2295 33.3796 9.86951 37.7496 10.3195 38.7896C10.7695 39.8296 11.5095 40.2096 10.7295 42.2296L9.34951 45.7996H15.5595L14.4595 43.9996C14.4595 43.9996 19.1795 41.8296 19.8595 40.8796C20.5395 39.9296 22.2995 35.8796 24.4095 35.4096C24.7895 35.3196 23.4595 36.1496 22.8595 36.9896C22.2312 38.1312 21.6961 39.3218 21.2595 40.5496C21.2595 40.5496 25.5395 41.0596 31.8695 38.2296C32.7632 39.0615 33.5954 39.9572 34.3595 40.9096C35.0995 41.9096 36.0195 45.7796 36.0195 45.7796H42.8595L43.0395 45.1796C42.6136 44.723 42.081 44.3794 41.4895 44.1796C40.9573 43.9421 40.4872 43.5847 40.1159 43.1354C39.7447 42.6861 39.4824 42.157 39.3495 41.5896C39.3005 41.2108 39.3284 40.8261 39.4315 40.4584C39.5346 40.0907 39.7108 39.7476 39.9495 39.4496C41.1503 37.9142 41.8487 36.0461 41.9495 34.0996C41.9495 34.0996 42.5095 36.3296 46.5795 37.9096C47.5075 38.1478 48.3475 38.6476 48.9995 39.3496C49.9493 39.0796 50.8203 38.5853 51.539 37.9083C52.2578 37.2313 52.8033 36.3915 53.1295 35.4596C54.2856 34.9821 55.3217 34.2549 56.1637 33.33C57.0056 32.405 57.6325 31.3053 57.9995 30.1096C57.9995 30.1096 53.6995 32.8196 51.6495 32.7896ZM46.6495 32.7896C46.0495 32.4296 45.9095 30.7896 45.8795 30.7896C47.1495 32.2696 47.8795 32.4196 47.8795 32.4196C47.8795 32.4196 47.2795 33.1696 46.6895 32.8196L46.6495 32.7896Z" fill="white"/>
</g>
<defs>
<clipPath id="clip0_713_15628">
<rect width="64" height="64" fill="white"/>
</clipPath>
</defs>
</svg>
