<svg width="20" height="20" viewBox="0 0 20 20" fill="none" xmlns="http://www.w3.org/2000/svg">
<path d="M5.00873 11.5C3.90315 11.5 3 12.3869 3 13.5C3 15.1912 3.83281 16.4663 5.13499 17.2966C6.41697 18.114 8.14526 18.5 10 18.5C11.8547 18.5 13.583 18.114 14.865 17.2966C16.1672 16.4663 17 15.1912 17 13.5C17 12.3956 16.1045 11.5 15 11.5L5.00873 11.5Z" fill="#12160A" stroke="#12160A" stroke-linejoin="round"/>
<path d="M10 1.5C7.79086 1.5 6 3.29086 6 5.5C6 7.70914 7.79086 9.5 10 9.5C12.2091 9.5 14 7.70914 14 5.5C14 3.29086 12.2091 1.5 10 1.5Z" fill="#49A843" stroke="#49A843" stroke-linejoin="round"/>
</svg>
