<svg width="29" height="28" viewBox="0 0 29 28" fill="none" xmlns="http://www.w3.org/2000/svg">
<g clip-path="url(#clip0_657_18210)">
<path d="M4.42998 13.4969C4.23298 13.5609 4.0906 13.7288 4.06303 13.9296C4.03547 14.1304 4.12755 14.3289 4.30033 14.4413L9.10784 17.0264C9.29096 17.1248 9.51573 17.1121 9.68598 16.9937L14.7934 13.4411C15.0406 13.2803 15.3352 13.5677 15.1703 13.8088L11.5283 18.7908C11.4069 18.9568 11.3939 19.1761 11.4948 19.3547L14.145 24.0442C14.2602 24.2127 14.4637 24.3025 14.6696 24.2756C14.8754 24.2487 15.0475 24.1098 15.1132 23.9177L20.1109 9.29271C20.176 9.10214 20.1252 8.89204 19.9796 8.75001C19.834 8.60797 19.6186 8.55837 19.4232 8.62189L4.42998 13.4969Z" fill="white"/>
</g>
<defs>
<clipPath id="clip0_657_18210">
<rect width="20.0498" height="20.0498" fill="white" transform="matrix(0.715843 -0.698261 0.715843 0.698261 0.245117 14)"/>
</clipPath>
</defs>
</svg>
