<svg width="16" height="16" viewBox="0 0 16 16" fill="none" xmlns="http://www.w3.org/2000/svg">
<path d="M14.0044 7.25459V8.74541C14.0044 8.97891 13.9116 9.20285 13.7465 9.36796C13.5814 9.53307 13.3575 9.62583 13.124 9.62583H12.6838C12.6229 9.62558 12.5634 9.64383 12.513 9.67815C12.4627 9.71247 12.424 9.76126 12.4021 9.81805C12.376 9.87396 12.3673 9.93638 12.377 9.99729C12.3866 10.0582 12.4143 10.1148 12.4563 10.1599L12.7718 10.474C12.8537 10.5557 12.9186 10.6528 12.9629 10.7597C13.0072 10.8666 13.03 10.9811 13.03 11.0968C13.03 11.2125 13.0072 11.3271 12.9629 11.434C12.9186 11.5409 12.8537 11.638 12.7718 11.7197L11.7183 12.7733C11.6365 12.8552 11.5394 12.9201 11.4325 12.9644C11.3256 13.0087 11.2111 13.0315 11.0954 13.0315C10.9797 13.0315 10.8651 13.0087 10.7582 12.9644C10.6514 12.9201 10.5543 12.8552 10.4725 12.7733L10.1585 12.4578C10.1134 12.4178 10.0579 12.3912 9.99836 12.3812C9.93886 12.3712 9.87775 12.3782 9.82203 12.4013C9.7663 12.4244 9.7182 12.4628 9.68325 12.512C9.64829 12.5611 9.62788 12.6192 9.62436 12.6794V13.1196C9.62436 13.3531 9.5316 13.577 9.36649 13.7421C9.20138 13.9072 8.97745 14 8.74395 14H7.25459C7.02109 14 6.79715 13.9072 6.63204 13.7421C6.46693 13.577 6.37417 13.3531 6.37417 13.1196V12.6794C6.37353 12.6192 6.35488 12.5607 6.32061 12.5112C6.28635 12.4618 6.23805 12.4238 6.18195 12.4021C6.12604 12.376 6.06362 12.3673 6.00271 12.377C5.94179 12.3866 5.88516 12.4143 5.84006 12.4563L5.52605 12.7718C5.44428 12.8537 5.34718 12.9186 5.2403 12.9629C5.13342 13.0072 5.01885 13.03 4.90315 13.03C4.78746 13.03 4.67289 13.0072 4.56601 12.9629C4.45913 12.9186 4.36203 12.8537 4.28026 12.7718L3.22671 11.7183C3.14485 11.6365 3.07991 11.5394 3.0356 11.4325C2.9913 11.3256 2.96849 11.2111 2.96849 11.0954C2.96849 10.9797 2.9913 10.8651 3.0356 10.7582C3.07991 10.6514 3.14485 10.5543 3.22671 10.4725L3.54219 10.1585C3.58224 10.1134 3.60877 10.0579 3.61876 9.99836C3.62875 9.93886 3.62179 9.87775 3.59867 9.82203C3.57555 9.7663 3.53721 9.7182 3.48804 9.68325C3.43887 9.64829 3.38085 9.62788 3.32062 9.62436H2.88041C2.64691 9.62436 2.42298 9.5316 2.25787 9.36649C2.09276 9.20138 2 8.97745 2 8.74395V7.25459C2 7.02109 2.09276 6.79715 2.25787 6.63204C2.42298 6.46693 2.64691 6.37417 2.88041 6.37417H3.32062C3.38076 6.37353 3.43934 6.35488 3.48877 6.32061C3.53821 6.28635 3.57624 6.23805 3.59795 6.18195C3.62398 6.12604 3.63272 6.06362 3.62305 6.00271C3.61337 5.94179 3.58573 5.88516 3.54365 5.84006L3.22817 5.52605C3.14632 5.44428 3.08138 5.34718 3.03707 5.2403C2.99277 5.13342 2.96996 5.01885 2.96996 4.90315C2.96996 4.78746 2.99277 4.67289 3.03707 4.56601C3.08138 4.45913 3.14632 4.36203 3.22817 4.28026L4.28173 3.22671C4.3635 3.14485 4.4606 3.07991 4.56748 3.0356C4.67436 2.9913 4.78892 2.96849 4.90462 2.96849C5.02032 2.96849 5.13489 2.9913 5.24177 3.0356C5.34865 3.07991 5.44575 3.14485 5.52751 3.22671L5.84153 3.54219C5.88665 3.58224 5.94214 3.60877 6.00164 3.61876C6.06114 3.62875 6.12225 3.62179 6.17797 3.59867C6.2337 3.57555 6.2818 3.53721 6.31675 3.48804C6.35171 3.43887 6.37212 3.38085 6.37564 3.32062V2.88041C6.37564 2.64691 6.4684 2.42298 6.63351 2.25787C6.79862 2.09276 7.02255 2 7.25605 2H8.74541C8.97891 2 9.20285 2.09276 9.36796 2.25787C9.53307 2.42298 9.62583 2.64691 9.62583 2.88041V3.32062C9.62647 3.38076 9.64512 3.43934 9.67939 3.48877C9.71365 3.53821 9.76195 3.57624 9.81805 3.59795C9.87396 3.62398 9.93638 3.63272 9.99729 3.62305C10.0582 3.61337 10.1148 3.58573 10.1599 3.54365L10.474 3.22817C10.5557 3.14632 10.6528 3.08138 10.7597 3.03707C10.8666 2.99277 10.9811 2.96996 11.0968 2.96996C11.2125 2.96996 11.3271 2.99277 11.434 3.03707C11.5409 3.08138 11.638 3.14632 11.7197 3.22817L12.7733 4.28173C12.8552 4.3635 12.9201 4.4606 12.9644 4.56748C13.0087 4.67436 13.0315 4.78892 13.0315 4.90462C13.0315 5.02032 13.0087 5.13489 12.9644 5.24177C12.9201 5.34865 12.8552 5.44575 12.7733 5.52751L12.4578 5.84153C12.4178 5.88665 12.3912 5.94214 12.3812 6.00164C12.3712 6.06114 12.3782 6.12225 12.4013 6.17797C12.4244 6.2337 12.4628 6.2818 12.512 6.31675C12.5611 6.35171 12.6192 6.37212 12.6794 6.37564H13.1196C13.2355 6.37506 13.3503 6.39736 13.4575 6.44125C13.5647 6.48515 13.6623 6.54977 13.7445 6.63143C13.8267 6.71309 13.8919 6.81016 13.9365 6.9171C13.9812 7.02403 14.0042 7.13872 14.0044 7.25459ZM10.9464 8C10.9464 7.41725 10.7736 6.84758 10.4499 6.36304C10.1261 5.8785 9.66595 5.50085 9.12755 5.27784C8.58916 5.05483 7.99673 4.99648 7.42518 5.11017C6.85362 5.22386 6.32862 5.50448 5.91655 5.91655C5.50448 6.32862 5.22386 6.85362 5.11017 7.42518C4.99648 7.99673 5.05483 8.58916 5.27784 9.12755C5.50085 9.66595 5.8785 10.1261 6.36304 10.4499C6.84758 10.7736 7.41725 10.9464 8 10.9464C8.78109 10.9453 9.52985 10.6345 10.0822 10.0822C10.6345 9.52985 10.9453 8.78109 10.9464 8Z" fill="#969D88"/>
<path d="M10.3596 8.00013C10.3596 8.46679 10.2212 8.92298 9.96198 9.31099C9.70272 9.69901 9.33421 10.0014 8.90307 10.18C8.47193 10.3586 7.99751 10.4053 7.53981 10.3143C7.08211 10.2232 6.66169 9.99853 6.33171 9.66855C6.00173 9.33856 5.77701 8.91814 5.68596 8.46044C5.59492 8.00274 5.64165 7.52833 5.82023 7.09718C5.99882 6.66604 6.30124 6.29754 6.68926 6.03827C7.07728 5.77901 7.53346 5.64063 8.00013 5.64062C8.62579 5.64101 9.22571 5.88973 9.66812 6.33214C10.1105 6.77454 10.3592 7.37447 10.3596 8.00013Z" fill="#969D88"/>
</svg>
